<svg width="215" height="342" viewBox="0 0 215 342" fill="none" xmlns="http://www.w3.org/2000/svg">
<path d="M63.2388 69.0979L63.2388 187.582" stroke="#42A0F0" stroke-width="10" stroke-linecap="round"/>
<path d="M63.002 98.0608L83.408 76.9968" stroke="#42A0F0" stroke-width="10" stroke-linecap="round"/>
<path d="M63.002 98.0608L41.938 76.9968" stroke="#42A0F0" stroke-width="10" stroke-linecap="round"/>
<path d="M63.002 161.252L83.408 182.316" stroke="#42A0F0" stroke-width="10" stroke-linecap="round"/>
<path d="M63.002 161.252L41.938 182.316" stroke="#42A0F0" stroke-width="10" stroke-linecap="round"/>
<path d="M114.261 99.2092L11.6506 158.451" stroke="#42A0F0" stroke-width="10" stroke-linecap="round"/>
<path d="M89.0598 113.485L117.505 120.625" stroke="#42A0F0" stroke-width="10" stroke-linecap="round"/>
<path d="M89.0596 113.485L96.7695 84.7114" stroke="#42A0F0" stroke-width="10" stroke-linecap="round"/>
<path d="M34.335 145.081L26.296 173.285" stroke="#42A0F0" stroke-width="10" stroke-linecap="round"/>
<path d="M34.3347 145.081L5.56078 137.371" stroke="#42A0F0" stroke-width="10" stroke-linecap="round"/>
<path d="M113.695 158.451L11.0847 99.2092" stroke="#42A0F0" stroke-width="10" stroke-linecap="round"/>
<path d="M88.7302 143.764L96.7692 171.969" stroke="#42A0F0" stroke-width="10" stroke-linecap="round"/>
<path d="M88.7304 143.764L117.504 136.054" stroke="#42A0F0" stroke-width="10" stroke-linecap="round"/>
<path d="M34.0054 112.169L5.56041 119.309" stroke="#42A0F0" stroke-width="10" stroke-linecap="round"/>
<path d="M34.0056 112.169L26.2956 83.395" stroke="#42A0F0" stroke-width="10" stroke-linecap="round"/>
<g filter="url(#filter0_d_240_3025)">
<path d="M81.4003 199.055L81.4003 63C81.4003 53.7174 85.0878 44.815 91.6516 38.2513C98.2153 31.6875 107.118 28 116.4 28C125.683 28 134.585 31.6875 141.149 38.2513C147.713 44.815 151.4 53.7174 151.4 63L151.4 201.97C160.477 209.088 167.31 218.672 171.08 229.573C174.851 240.475 175.4 252.232 172.662 263.437C169.924 274.642 164.014 284.821 155.64 292.755C147.267 300.688 136.784 306.04 125.447 308.17C121.333 309.261 117.055 309.6 112.819 309.17C100.047 308.837 87.7148 304.437 77.6172 296.609C67.5196 288.781 60.1841 277.935 56.6786 265.649C53.173 253.363 53.6804 240.278 58.1269 228.301C62.5734 216.323 70.7269 206.077 81.4003 199.055Z" fill="url(#paint0_linear_240_3025)"/>
<path d="M55.3759 249.189C55.3759 257.029 56.8886 264.644 59.8722 271.821C62.7542 278.754 66.8871 285.005 72.1563 290.402C74.7517 293.061 77.6105 295.485 80.6534 297.609C83.7227 299.75 87.0078 301.605 90.4176 303.122C97.4994 306.273 105.045 307.971 112.845 308.169L112.883 308.17L112.921 308.174C114.068 308.291 115.239 308.35 116.4 308.35C119.381 308.35 122.338 307.964 125.19 307.203L125.227 307.193L125.264 307.186C132.004 305.929 138.419 303.521 144.333 300.029C150.124 296.61 155.257 292.258 159.589 287.096C163.954 281.896 167.359 276.046 169.71 269.71C172.143 263.153 173.376 256.248 173.376 249.189C173.376 244.564 172.84 239.958 171.781 235.501C170.752 231.169 169.223 226.949 167.239 222.957C165.289 219.036 162.893 215.323 160.117 211.919C157.357 208.536 154.216 205.453 150.783 202.757L150.4 202.457V201.97L150.4 63.0001C150.4 58.4096 149.502 53.957 147.729 49.766C146.017 45.7174 143.565 42.0811 140.442 38.9583C137.319 35.8355 133.683 33.3839 129.634 31.6715C125.443 29.8988 120.991 29 116.4 29C111.81 29 107.357 29.8988 103.166 31.6715C99.1175 33.3839 95.4813 35.8355 92.3585 38.9583C89.2357 42.0811 86.784 45.7174 85.0716 49.766C83.299 53.957 82.4002 58.4096 82.4002 63.0001L82.4002 199.055V199.593L81.9505 199.89C73.9469 205.164 67.2759 212.384 62.6584 220.769C60.3112 225.031 58.5004 229.575 57.2765 234.275C56.0154 239.117 55.3759 244.135 55.3759 249.189ZM54.3759 249.189C54.3759 228.231 65.1188 209.785 81.4002 199.055L81.4002 63.0001C81.4002 43.6699 97.0701 28 116.4 28C135.73 28 151.4 43.6699 151.4 63.0001L151.4 201.97C165.389 212.955 174.376 230.023 174.376 249.189C174.376 278.543 153.296 302.975 125.447 308.169C122.561 308.94 119.529 309.35 116.4 309.35C115.191 309.35 113.997 309.289 112.82 309.169C80.401 308.344 54.3759 281.806 54.3759 249.189Z" fill="white" fill-opacity="0.5"/>
</g>
<path d="M114.775 205.58C123.575 205.427 132.223 207.886 139.625 212.647C147.028 217.409 152.852 224.258 156.361 232.329C159.871 240.4 160.908 249.331 159.342 257.992C157.776 266.653 153.677 274.655 147.563 280.986C141.449 287.317 133.595 291.693 124.994 293.56C116.393 295.428 107.432 294.703 99.2428 291.477C91.0539 288.251 84.0055 282.67 78.9888 275.438C73.9721 268.207 71.2125 259.65 71.0589 250.85C70.8529 239.05 75.343 227.651 83.5415 219.161C91.7399 210.671 102.975 205.786 114.775 205.58V205.58Z" fill="white"/>
<defs>
<filter id="filter0_d_240_3025" x="34.3755" y="0" width="180.002" height="341.351" filterUnits="userSpaceOnUse" color-interpolation-filters="sRGB">
<feFlood flood-opacity="0" result="BackgroundImageFix"/>
<feColorMatrix in="SourceAlpha" type="matrix" values="0 0 0 0 0 0 0 0 0 0 0 0 0 0 0 0 0 0 127 0" result="hardAlpha"/>
<feOffset dx="10" dy="2"/>
<feGaussianBlur stdDeviation="15"/>
<feColorMatrix type="matrix" values="0 0 0 0 0.501961 0 0 0 0 0.501961 0 0 0 0 0.501961 0 0 0 0.302 0"/>
<feBlend mode="normal" in2="BackgroundImageFix" result="effect1_dropShadow_240_3025"/>
<feBlend mode="normal" in="SourceGraphic" in2="effect1_dropShadow_240_3025" result="shape"/>
</filter>
<linearGradient id="paint0_linear_240_3025" x1="159.257" y1="141.947" x2="41.2076" y2="169.913" gradientUnits="userSpaceOnUse">
<stop stop-color="white" stop-opacity="0.596"/>
<stop offset="1" stop-color="#F7F7F7" stop-opacity="0.204"/>
</linearGradient>
</defs>
</svg>
