<svg width="272" height="217" viewBox="0 0 272 217" fill="none" xmlns="http://www.w3.org/2000/svg">
<g filter="url(#filter0_bd_102_1439)">
<mask id="path-1-inside-1_102_1439" fill="white">
<path fill-rule="evenodd" clip-rule="evenodd" d="M211.563 151.351C211.683 151.352 211.804 151.353 211.924 151.353C229.087 151.353 243 137.44 243 120.277C243 103.115 229.087 89.2017 211.924 89.2017C211.804 89.2017 211.683 89.2024 211.563 89.2037V89.2017H203.535C203.825 87.075 203.975 84.9037 203.975 82.6975C203.975 56.3549 182.62 35 156.277 35C129.935 35 108.58 56.3549 108.58 82.6975C108.58 85.1831 108.77 87.6243 109.136 90.0074C106.868 89.4803 104.504 89.2017 102.076 89.2017C84.913 89.2017 71 103.115 71 120.277C71 137.44 84.913 151.353 102.076 151.353C102.197 151.353 102.318 151.352 102.439 151.351L102.437 151.353H211.563V151.351Z"/>
</mask>
<path fill-rule="evenodd" clip-rule="evenodd" d="M211.563 151.351C211.683 151.352 211.804 151.353 211.924 151.353C229.087 151.353 243 137.44 243 120.277C243 103.115 229.087 89.2017 211.924 89.2017C211.804 89.2017 211.683 89.2024 211.563 89.2037V89.2017H203.535C203.825 87.075 203.975 84.9037 203.975 82.6975C203.975 56.3549 182.62 35 156.277 35C129.935 35 108.58 56.3549 108.58 82.6975C108.58 85.1831 108.77 87.6243 109.136 90.0074C106.868 89.4803 104.504 89.2017 102.076 89.2017C84.913 89.2017 71 103.115 71 120.277C71 137.44 84.913 151.353 102.076 151.353C102.197 151.353 102.318 151.352 102.439 151.351L102.437 151.353H211.563V151.351Z" fill="url(#paint0_linear_102_1439)" shape-rendering="crispEdges"/>
<path d="M211.563 151.351L211.586 149.351C211.052 149.345 210.537 149.553 210.157 149.929C209.777 150.304 209.563 150.816 209.563 151.351H211.563ZM211.563 89.2037H209.563C209.563 89.7381 209.777 90.2503 210.157 90.626C210.537 91.0017 211.051 91.2097 211.586 91.2036L211.563 89.2037ZM211.563 89.2017H213.563C213.563 88.0971 212.668 87.2017 211.563 87.2017V89.2017ZM203.535 89.2017L201.553 88.9315C201.475 89.5037 201.649 90.0818 202.028 90.5169C202.408 90.952 202.957 91.2017 203.535 91.2017V89.2017ZM109.136 90.0074L108.684 91.9555C109.33 92.1057 110.009 91.9253 110.496 91.4741C110.983 91.0228 111.214 90.3594 111.113 89.7033L109.136 90.0074ZM102.439 151.351L104.008 152.59C104.486 151.985 104.573 151.16 104.233 150.468C103.893 149.777 103.186 149.342 102.416 149.351L102.439 151.351ZM102.437 151.353L100.867 150.114C100.392 150.715 100.303 151.535 100.637 152.225C100.971 152.915 101.67 153.353 102.437 153.353V151.353ZM211.563 151.353V153.353C212.668 153.353 213.563 152.458 213.563 151.353H211.563ZM211.54 153.351C211.668 153.352 211.796 153.353 211.924 153.353V149.353C211.811 149.353 211.699 149.352 211.586 149.351L211.54 153.351ZM211.924 153.353C230.192 153.353 245 138.544 245 120.277H241C241 136.335 227.982 149.353 211.924 149.353V153.353ZM245 120.277C245 102.01 230.192 87.2017 211.924 87.2017V91.2017C227.982 91.2017 241 104.219 241 120.277H245ZM211.924 87.2017C211.796 87.2017 211.668 87.2024 211.54 87.2039L211.586 91.2036C211.699 91.2023 211.811 91.2017 211.924 91.2017V87.2017ZM209.563 89.2017V89.2037H213.563V89.2017H209.563ZM203.535 91.2017H211.563V87.2017H203.535V91.2017ZM205.517 89.4719C205.819 87.2559 205.975 84.9944 205.975 82.6975H201.975C201.975 84.8131 201.831 86.8941 201.553 88.9315L205.517 89.4719ZM205.975 82.6975C205.975 55.2503 183.724 33 156.277 33V37C181.515 37 201.975 57.4595 201.975 82.6975H205.975ZM156.277 33C128.83 33 106.58 55.2503 106.58 82.6975H110.58C110.58 57.4595 131.039 37 156.277 37V33ZM106.58 82.6975C106.58 85.2852 106.778 87.8281 107.16 90.3114L111.113 89.7033C110.762 87.4205 110.58 85.081 110.58 82.6975H106.58ZM109.589 88.0592C107.173 87.498 104.658 87.2017 102.076 87.2017V91.2017C104.351 91.2017 106.563 91.4627 108.684 91.9555L109.589 88.0592ZM102.076 87.2017C83.8085 87.2017 69 102.01 69 120.277H73C73 104.219 86.0176 91.2017 102.076 91.2017V87.2017ZM69 120.277C69 138.544 83.8085 153.353 102.076 153.353V149.353C86.0176 149.353 73 136.335 73 120.277H69ZM102.076 153.353C102.204 153.353 102.333 153.352 102.461 153.351L102.416 149.351C102.303 149.352 102.189 149.353 102.076 149.353V153.353ZM104.007 152.592L104.008 152.59L100.869 150.112L100.867 150.114L104.007 152.592ZM211.563 149.353H102.437V153.353H211.563V149.353ZM209.563 151.351V151.353H213.563V151.351H209.563Z" fill="url(#paint1_linear_102_1439)" mask="url(#path-1-inside-1_102_1439)"/>
</g>
<defs>
<filter id="filter0_bd_102_1439" x="0" y="0" width="272" height="216.353" filterUnits="userSpaceOnUse" color-interpolation-filters="sRGB">
<feFlood flood-opacity="0" result="BackgroundImageFix"/>
<feGaussianBlur in="BackgroundImageFix" stdDeviation="7"/>
<feComposite in2="SourceAlpha" operator="in" result="effect1_backgroundBlur_102_1439"/>
<feColorMatrix in="SourceAlpha" type="matrix" values="0 0 0 0 0 0 0 0 0 0 0 0 0 0 0 0 0 0 127 0" result="hardAlpha"/>
<feOffset dx="-21" dy="15"/>
<feGaussianBlur stdDeviation="25"/>
<feComposite in2="hardAlpha" operator="out"/>
<feColorMatrix type="matrix" values="0 0 0 0 0.113438 0 0 0 0 0.148981 0 0 0 0 0.275 0 0 0 0.25 0"/>
<feBlend mode="normal" in2="effect1_backgroundBlur_102_1439" result="effect2_dropShadow_102_1439"/>
<feBlend mode="normal" in="SourceGraphic" in2="effect2_dropShadow_102_1439" result="shape"/>
</filter>
<linearGradient id="paint0_linear_102_1439" x1="165" y1="38.5" x2="165" y2="164.5" gradientUnits="userSpaceOnUse">
<stop stop-color="#494949"/>
<stop offset="1" stop-color="#DADADA" stop-opacity="0"/>
</linearGradient>
<linearGradient id="paint1_linear_102_1439" x1="157" y1="35" x2="157" y2="151.353" gradientUnits="userSpaceOnUse">
<stop stop-color="white"/>
<stop offset="1" stop-color="white" stop-opacity="0"/>
</linearGradient>
</defs>
</svg>
