<svg width="348" height="318" viewBox="0 0 348 318" fill="none" xmlns="http://www.w3.org/2000/svg">
<g filter="url(#filter0_bdd_102_1433)">
<mask id="path-1-inside-1_102_1433" fill="white">
<path d="M219 112C219 152.869 185.869 186 145 186C104.131 186 71 152.869 71 112C71 71.1309 104.131 38 145 38C185.869 38 219 71.1309 219 112Z"/>
</mask>
<path d="M219 112C219 152.869 185.869 186 145 186C104.131 186 71 152.869 71 112C71 71.1309 104.131 38 145 38C185.869 38 219 71.1309 219 112Z" fill="url(#paint0_linear_102_1433)"/>
<path d="M217 112C217 151.765 184.765 184 145 184V188C186.974 188 221 153.974 221 112H217ZM145 184C105.235 184 73 151.765 73 112H69C69 153.974 103.026 188 145 188V184ZM73 112C73 72.2355 105.235 40 145 40V36C103.026 36 69 70.0264 69 112H73ZM145 40C184.765 40 217 72.2355 217 112H221C221 70.0264 186.974 36 145 36V40Z" fill="url(#paint1_linear_102_1433)" mask="url(#path-1-inside-1_102_1433)"/>
</g>
<g filter="url(#filter1_bd_102_1433)">
<mask id="path-3-inside-2_102_1433" fill="white">
<path fill-rule="evenodd" clip-rule="evenodd" d="M278.556 252.146C278.708 252.147 278.86 252.148 279.011 252.148C300.569 252.148 318.045 234.672 318.045 213.115C318.045 191.557 300.569 174.082 279.011 174.082C278.86 174.082 278.708 174.083 278.556 174.084V174.082H268.473C268.838 171.41 269.026 168.683 269.026 165.911C269.026 132.823 242.203 106 209.114 106C176.026 106 149.203 132.823 149.203 165.911C149.203 169.034 149.442 172.1 149.902 175.094C147.053 174.432 144.084 174.082 141.033 174.082C119.476 174.082 102 191.557 102 213.115C102 234.672 119.476 252.148 141.033 252.148C141.185 252.148 141.337 252.147 141.488 252.146L141.486 252.148H278.556V252.146Z"/>
</mask>
<path fill-rule="evenodd" clip-rule="evenodd" d="M278.556 252.146C278.708 252.147 278.86 252.148 279.011 252.148C300.569 252.148 318.045 234.672 318.045 213.115C318.045 191.557 300.569 174.082 279.011 174.082C278.86 174.082 278.708 174.083 278.556 174.084V174.082H268.473C268.838 171.41 269.026 168.683 269.026 165.911C269.026 132.823 242.203 106 209.114 106C176.026 106 149.203 132.823 149.203 165.911C149.203 169.034 149.442 172.1 149.902 175.094C147.053 174.432 144.084 174.082 141.033 174.082C119.476 174.082 102 191.557 102 213.115C102 234.672 119.476 252.148 141.033 252.148C141.185 252.148 141.337 252.147 141.488 252.146L141.486 252.148H278.556V252.146Z" fill="url(#paint2_linear_102_1433)" shape-rendering="crispEdges"/>
<path d="M278.556 252.146L278.579 250.146C278.045 250.14 277.53 250.348 277.15 250.723C276.77 251.099 276.556 251.611 276.556 252.146H278.556ZM278.556 174.084H276.556C276.556 174.619 276.77 175.131 277.15 175.507C277.53 175.882 278.045 176.09 278.579 176.084L278.556 174.084ZM278.556 174.082H280.556C280.556 172.977 279.661 172.082 278.556 172.082V174.082ZM268.473 174.082L266.492 173.812C266.414 174.384 266.587 174.962 266.967 175.397C267.346 175.832 267.896 176.082 268.473 176.082V174.082ZM149.902 175.094L149.449 177.042C150.096 177.192 150.775 177.012 151.262 176.56C151.748 176.109 151.98 175.446 151.879 174.79L149.902 175.094ZM141.488 252.146L143.058 253.385C143.536 252.78 143.623 251.955 143.283 251.263C142.943 250.572 142.236 250.137 141.466 250.146L141.488 252.146ZM141.486 252.148L139.917 250.909C139.442 251.51 139.352 252.33 139.686 253.02C140.021 253.71 140.72 254.148 141.486 254.148V252.148ZM278.556 252.148V254.148C279.661 254.148 280.556 253.253 280.556 252.148H278.556ZM278.534 254.146C278.693 254.147 278.852 254.148 279.011 254.148V250.148C278.867 250.148 278.723 250.147 278.579 250.146L278.534 254.146ZM279.011 254.148C301.673 254.148 320.045 235.777 320.045 213.115H316.045C316.045 233.568 299.464 250.148 279.011 250.148V254.148ZM320.045 213.115C320.045 190.453 301.673 172.082 279.011 172.082V176.082C299.464 176.082 316.045 192.662 316.045 213.115H320.045ZM279.011 172.082C278.852 172.082 278.693 172.083 278.534 172.084L278.579 176.084C278.723 176.083 278.867 176.082 279.011 176.082V172.082ZM276.556 174.082V174.084H280.556V174.082H276.556ZM268.473 176.082H278.556V172.082H268.473V176.082ZM270.455 174.352C270.831 171.591 271.026 168.774 271.026 165.912H267.026C267.026 168.592 266.844 171.229 266.492 173.812L270.455 174.352ZM271.026 165.912C271.026 131.719 243.307 104 209.114 104V108C241.098 108 267.026 133.928 267.026 165.912H271.026ZM209.114 104C174.921 104 147.203 131.719 147.203 165.912H151.203C151.203 133.928 177.131 108 209.114 108V104ZM147.203 165.912C147.203 169.136 147.449 172.304 147.925 175.398L151.879 174.79C151.434 171.897 151.203 168.932 151.203 165.912H147.203ZM150.355 173.146C147.358 172.449 144.237 172.082 141.033 172.082V176.082C143.93 176.082 146.748 176.414 149.449 177.042L150.355 173.146ZM141.033 172.082C118.371 172.082 100 190.453 100 213.115H104C104 192.662 120.58 176.082 141.033 176.082V172.082ZM100 213.115C100 235.777 118.371 254.148 141.033 254.148V250.148C120.58 250.148 104 233.568 104 213.115H100ZM141.033 254.148C141.193 254.148 141.352 254.147 141.511 254.146L141.466 250.146C141.322 250.147 141.178 250.148 141.033 250.148V254.148ZM143.056 253.388L143.058 253.385L139.919 250.906L139.917 250.909L143.056 253.388ZM278.556 250.148H141.486V254.148H278.556V250.148ZM276.556 252.146V252.148H280.556V252.146H276.556Z" fill="url(#paint3_linear_102_1433)" mask="url(#path-3-inside-2_102_1433)"/>
</g>
<defs>
<filter id="filter0_bdd_102_1433" x="0" y="0" width="257" height="251" filterUnits="userSpaceOnUse" color-interpolation-filters="sRGB">
<feFlood flood-opacity="0" result="BackgroundImageFix"/>
<feGaussianBlur in="BackgroundImageFix" stdDeviation="7"/>
<feComposite in2="SourceAlpha" operator="in" result="effect1_backgroundBlur_102_1433"/>
<feColorMatrix in="SourceAlpha" type="matrix" values="0 0 0 0 0 0 0 0 0 0 0 0 0 0 0 0 0 0 127 0" result="hardAlpha"/>
<feOffset dx="-21" dy="15"/>
<feGaussianBlur stdDeviation="25"/>
<feComposite in2="hardAlpha" operator="out"/>
<feColorMatrix type="matrix" values="0 0 0 0 0.113438 0 0 0 0 0.148981 0 0 0 0 0.275 0 0 0 0.25 0"/>
<feBlend mode="normal" in2="effect1_backgroundBlur_102_1433" result="effect2_dropShadow_102_1433"/>
<feColorMatrix in="SourceAlpha" type="matrix" values="0 0 0 0 0 0 0 0 0 0 0 0 0 0 0 0 0 0 127 0" result="hardAlpha"/>
<feOffset/>
<feGaussianBlur stdDeviation="19"/>
<feComposite in2="hardAlpha" operator="out"/>
<feColorMatrix type="matrix" values="0 0 0 0 0.619608 0 0 0 0 0.423529 0 0 0 0 1 0 0 0 0.4 0"/>
<feBlend mode="normal" in2="effect2_dropShadow_102_1433" result="effect3_dropShadow_102_1433"/>
<feBlend mode="normal" in="SourceGraphic" in2="effect3_dropShadow_102_1433" result="shape"/>
</filter>
<filter id="filter1_bd_102_1433" x="31" y="71" width="316.045" height="246.148" filterUnits="userSpaceOnUse" color-interpolation-filters="sRGB">
<feFlood flood-opacity="0" result="BackgroundImageFix"/>
<feGaussianBlur in="BackgroundImageFix" stdDeviation="7"/>
<feComposite in2="SourceAlpha" operator="in" result="effect1_backgroundBlur_102_1433"/>
<feColorMatrix in="SourceAlpha" type="matrix" values="0 0 0 0 0 0 0 0 0 0 0 0 0 0 0 0 0 0 127 0" result="hardAlpha"/>
<feOffset dx="-21" dy="15"/>
<feGaussianBlur stdDeviation="25"/>
<feComposite in2="hardAlpha" operator="out"/>
<feColorMatrix type="matrix" values="0 0 0 0 0.113438 0 0 0 0 0.148981 0 0 0 0 0.275 0 0 0 0.25 0"/>
<feBlend mode="normal" in2="effect1_backgroundBlur_102_1433" result="effect2_dropShadow_102_1433"/>
<feBlend mode="normal" in="SourceGraphic" in2="effect2_dropShadow_102_1433" result="shape"/>
</filter>
<linearGradient id="paint0_linear_102_1433" x1="125.418" y1="41.4288" x2="125.418" y2="203.63" gradientUnits="userSpaceOnUse">
<stop offset="0.0001" stop-color="#DECFFF"/>
<stop offset="1" stop-color="#7E2FFF"/>
</linearGradient>
<linearGradient id="paint1_linear_102_1433" x1="178.555" y1="-25.405" x2="140.61" y2="167.531" gradientUnits="userSpaceOnUse">
<stop stop-color="white"/>
<stop offset="1" stop-color="white" stop-opacity="0"/>
</linearGradient>
<linearGradient id="paint2_linear_102_1433" x1="220.071" y1="110.396" x2="220.071" y2="268.662" gradientUnits="userSpaceOnUse">
<stop stop-color="white"/>
<stop offset="1" stop-color="white" stop-opacity="0"/>
</linearGradient>
<linearGradient id="paint3_linear_102_1433" x1="210.022" y1="106" x2="210.022" y2="252.148" gradientUnits="userSpaceOnUse">
<stop stop-color="white"/>
<stop offset="1" stop-color="white" stop-opacity="0"/>
</linearGradient>
</defs>
</svg>
