<svg width="317" height="249" viewBox="0 0 317 249" fill="none" xmlns="http://www.w3.org/2000/svg">
<path d="M241.427 215.089V247.119" stroke="#42A0F0" stroke-width="3" stroke-linecap="round"/>
<path d="M241.356 222.919L247.435 217.225" stroke="#42A0F0" stroke-width="3" stroke-linecap="round"/>
<path d="M241.356 222.919L235.081 217.225" stroke="#42A0F0" stroke-width="3" stroke-linecap="round"/>
<path d="M241.356 240.001L247.435 245.695" stroke="#42A0F0" stroke-width="3" stroke-linecap="round"/>
<path d="M241.356 240.001L235.081 245.695" stroke="#42A0F0" stroke-width="3" stroke-linecap="round"/>
<path d="M256.627 223.229L226.059 239.244" stroke="#42A0F0" stroke-width="3" stroke-linecap="round"/>
<path d="M249.12 227.088L257.593 229.018" stroke="#42A0F0" stroke-width="3" stroke-linecap="round"/>
<path d="M249.12 227.088L251.416 219.31" stroke="#42A0F0" stroke-width="3" stroke-linecap="round"/>
<path d="M232.816 235.63L230.421 243.254" stroke="#42A0F0" stroke-width="3" stroke-linecap="round"/>
<path d="M232.816 235.63L224.244 233.545" stroke="#42A0F0" stroke-width="3" stroke-linecap="round"/>
<path d="M256.458 239.244L225.889 223.229" stroke="#42A0F0" stroke-width="3" stroke-linecap="round"/>
<path d="M249.022 235.274L251.416 242.898" stroke="#42A0F0" stroke-width="3" stroke-linecap="round"/>
<path d="M249.022 235.274L257.593 233.19" stroke="#42A0F0" stroke-width="3" stroke-linecap="round"/>
<path d="M232.718 226.732L224.244 228.663" stroke="#42A0F0" stroke-width="3" stroke-linecap="round"/>
<path d="M232.718 226.732L230.421 218.954" stroke="#42A0F0" stroke-width="3" stroke-linecap="round"/>
<path d="M178.929 215.089V247.119" stroke="#42A0F0" stroke-width="3" stroke-linecap="round"/>
<path d="M178.858 222.919L184.937 217.225" stroke="#42A0F0" stroke-width="3" stroke-linecap="round"/>
<path d="M178.858 222.919L172.583 217.225" stroke="#42A0F0" stroke-width="3" stroke-linecap="round"/>
<path d="M178.858 240.001L184.937 245.695" stroke="#42A0F0" stroke-width="3" stroke-linecap="round"/>
<path d="M178.858 240.001L172.583 245.695" stroke="#42A0F0" stroke-width="3" stroke-linecap="round"/>
<path d="M194.129 223.229L163.56 239.244" stroke="#42A0F0" stroke-width="3" stroke-linecap="round"/>
<path d="M186.621 227.088L195.095 229.018" stroke="#42A0F0" stroke-width="3" stroke-linecap="round"/>
<path d="M186.621 227.088L188.918 219.31" stroke="#42A0F0" stroke-width="3" stroke-linecap="round"/>
<path d="M170.318 235.63L167.923 243.254" stroke="#42A0F0" stroke-width="3" stroke-linecap="round"/>
<path d="M170.318 235.63L161.746 233.545" stroke="#42A0F0" stroke-width="3" stroke-linecap="round"/>
<path d="M193.96 239.244L163.391 223.229" stroke="#42A0F0" stroke-width="3" stroke-linecap="round"/>
<path d="M186.523 235.274L188.918 242.898" stroke="#42A0F0" stroke-width="3" stroke-linecap="round"/>
<path d="M186.524 235.274L195.095 233.19" stroke="#42A0F0" stroke-width="3" stroke-linecap="round"/>
<path d="M170.22 226.732L161.746 228.663" stroke="#42A0F0" stroke-width="3" stroke-linecap="round"/>
<path d="M170.22 226.732L167.923 218.954" stroke="#42A0F0" stroke-width="3" stroke-linecap="round"/>
<path d="M116.542 215.089V247.119" stroke="#42A0F0" stroke-width="3" stroke-linecap="round"/>
<path d="M116.47 222.919L122.549 217.225" stroke="#42A0F0" stroke-width="3" stroke-linecap="round"/>
<path d="M116.47 222.919L110.195 217.225" stroke="#42A0F0" stroke-width="3" stroke-linecap="round"/>
<path d="M116.47 240.001L122.549 245.695" stroke="#42A0F0" stroke-width="3" stroke-linecap="round"/>
<path d="M116.47 240.001L110.195 245.695" stroke="#42A0F0" stroke-width="3" stroke-linecap="round"/>
<path d="M131.742 223.229L101.173 239.244" stroke="#42A0F0" stroke-width="3" stroke-linecap="round"/>
<path d="M124.234 227.088L132.708 229.018" stroke="#42A0F0" stroke-width="3" stroke-linecap="round"/>
<path d="M124.234 227.088L126.531 219.31" stroke="#42A0F0" stroke-width="3" stroke-linecap="round"/>
<path d="M107.931 235.63L105.536 243.254" stroke="#42A0F0" stroke-width="3" stroke-linecap="round"/>
<path d="M107.931 235.63L99.3589 233.545" stroke="#42A0F0" stroke-width="3" stroke-linecap="round"/>
<path d="M131.573 239.244L101.004 223.229" stroke="#42A0F0" stroke-width="3" stroke-linecap="round"/>
<path d="M124.136 235.274L126.531 242.898" stroke="#42A0F0" stroke-width="3" stroke-linecap="round"/>
<path d="M124.136 235.274L132.708 233.19" stroke="#42A0F0" stroke-width="3" stroke-linecap="round"/>
<path d="M107.833 226.732L99.3589 228.663" stroke="#42A0F0" stroke-width="3" stroke-linecap="round"/>
<path d="M107.833 226.732L105.536 218.954" stroke="#42A0F0" stroke-width="3" stroke-linecap="round"/>
<path d="M146.729 167V199.03" stroke="#42A0F0" stroke-width="3" stroke-linecap="round"/>
<path d="M146.658 174.829L152.737 169.135" stroke="#42A0F0" stroke-width="3" stroke-linecap="round"/>
<path d="M146.658 174.829L140.383 169.135" stroke="#42A0F0" stroke-width="3" stroke-linecap="round"/>
<path d="M146.658 191.912L152.737 197.606" stroke="#42A0F0" stroke-width="3" stroke-linecap="round"/>
<path d="M146.658 191.912L140.383 197.606" stroke="#42A0F0" stroke-width="3" stroke-linecap="round"/>
<path d="M161.929 175.14L131.36 191.155" stroke="#42A0F0" stroke-width="3" stroke-linecap="round"/>
<path d="M154.421 178.999L162.895 180.929" stroke="#42A0F0" stroke-width="3" stroke-linecap="round"/>
<path d="M154.422 178.999L156.718 171.221" stroke="#42A0F0" stroke-width="3" stroke-linecap="round"/>
<path d="M138.118 187.54L135.723 195.165" stroke="#42A0F0" stroke-width="3" stroke-linecap="round"/>
<path d="M138.118 187.54L129.546 185.456" stroke="#42A0F0" stroke-width="3" stroke-linecap="round"/>
<path d="M161.76 191.155L131.191 175.14" stroke="#42A0F0" stroke-width="3" stroke-linecap="round"/>
<path d="M154.324 187.185L156.718 194.809" stroke="#42A0F0" stroke-width="3" stroke-linecap="round"/>
<path d="M154.324 187.185L162.895 185.1" stroke="#42A0F0" stroke-width="3" stroke-linecap="round"/>
<path d="M138.02 178.643L129.546 180.573" stroke="#42A0F0" stroke-width="3" stroke-linecap="round"/>
<path d="M138.02 178.643L135.723 170.865" stroke="#42A0F0" stroke-width="3" stroke-linecap="round"/>
<path d="M215.825 167V199.03" stroke="#42A0F0" stroke-width="3" stroke-linecap="round"/>
<path d="M215.754 174.829L221.833 169.135" stroke="#42A0F0" stroke-width="3" stroke-linecap="round"/>
<path d="M215.754 174.829L209.479 169.135" stroke="#42A0F0" stroke-width="3" stroke-linecap="round"/>
<path d="M215.754 191.912L221.833 197.606" stroke="#42A0F0" stroke-width="3" stroke-linecap="round"/>
<path d="M215.754 191.912L209.479 197.606" stroke="#42A0F0" stroke-width="3" stroke-linecap="round"/>
<path d="M231.025 175.14L200.456 191.155" stroke="#42A0F0" stroke-width="3" stroke-linecap="round"/>
<path d="M223.517 178.999L231.991 180.929" stroke="#42A0F0" stroke-width="3" stroke-linecap="round"/>
<path d="M223.517 178.999L225.814 171.221" stroke="#42A0F0" stroke-width="3" stroke-linecap="round"/>
<path d="M207.214 187.54L204.819 195.165" stroke="#42A0F0" stroke-width="3" stroke-linecap="round"/>
<path d="M207.214 187.54L198.642 185.456" stroke="#42A0F0" stroke-width="3" stroke-linecap="round"/>
<path d="M230.856 191.155L200.287 175.14" stroke="#42A0F0" stroke-width="3" stroke-linecap="round"/>
<path d="M223.419 187.185L225.814 194.809" stroke="#42A0F0" stroke-width="3" stroke-linecap="round"/>
<path d="M223.419 187.185L231.991 185.1" stroke="#42A0F0" stroke-width="3" stroke-linecap="round"/>
<path d="M207.116 178.643L198.642 180.573" stroke="#42A0F0" stroke-width="3" stroke-linecap="round"/>
<path d="M207.116 178.643L204.819 170.865" stroke="#42A0F0" stroke-width="3" stroke-linecap="round"/>
<g filter="url(#filter0_bd_108_1657)">
<mask id="path-76-inside-1_108_1657" fill="white">
<path fill-rule="evenodd" clip-rule="evenodd" d="M247.678 181.997C247.829 181.999 247.981 182 248.133 182C269.69 182 287.166 164.524 287.166 142.967C287.166 121.409 269.69 103.933 248.133 103.933C247.981 103.933 247.829 103.934 247.678 103.936V103.933H237.595C237.959 101.262 238.147 98.5347 238.147 95.7633C238.147 62.6751 211.324 35.8518 178.236 35.8518C145.147 35.8518 118.324 62.6751 118.324 95.7633C118.324 98.8855 118.563 101.952 119.023 104.945C116.174 104.283 113.205 103.933 110.155 103.933C88.5971 103.933 71.1213 121.409 71.1213 142.967C71.1213 164.524 88.5971 182 110.155 182C110.307 182 110.458 181.999 110.61 181.997L110.608 182H247.678V181.997Z"/>
</mask>
<path fill-rule="evenodd" clip-rule="evenodd" d="M247.678 181.997C247.829 181.999 247.981 182 248.133 182C269.69 182 287.166 164.524 287.166 142.967C287.166 121.409 269.69 103.933 248.133 103.933C247.981 103.933 247.829 103.934 247.678 103.936V103.933H237.595C237.959 101.262 238.147 98.5347 238.147 95.7633C238.147 62.6751 211.324 35.8518 178.236 35.8518C145.147 35.8518 118.324 62.6751 118.324 95.7633C118.324 98.8855 118.563 101.952 119.023 104.945C116.174 104.283 113.205 103.933 110.155 103.933C88.5971 103.933 71.1213 121.409 71.1213 142.967C71.1213 164.524 88.5971 182 110.155 182C110.307 182 110.458 181.999 110.61 181.997L110.608 182H247.678V181.997Z" fill="url(#paint0_linear_108_1657)" shape-rendering="crispEdges"/>
<path d="M247.678 181.997L247.701 179.998C247.166 179.991 246.652 180.199 246.272 180.575C245.892 180.951 245.678 181.463 245.678 181.997H247.678ZM247.678 103.936H245.678C245.678 104.47 245.892 104.983 246.272 105.358C246.652 105.734 247.166 105.942 247.701 105.936L247.678 103.936ZM247.678 103.933H249.678C249.678 102.829 248.782 101.933 247.678 101.933V103.933ZM237.595 103.933L235.613 103.663C235.535 104.236 235.708 104.814 236.088 105.249C236.468 105.684 237.017 105.933 237.595 105.933V103.933ZM119.023 104.945L118.571 106.894C119.217 107.044 119.896 106.863 120.383 106.412C120.87 105.961 121.101 105.297 121 104.641L119.023 104.945ZM110.61 181.997L112.179 183.237C112.657 182.632 112.745 181.807 112.405 181.115C112.065 180.423 111.358 179.989 110.587 179.998L110.61 181.997ZM110.608 182L109.038 180.76C108.563 181.362 108.474 182.182 108.808 182.872C109.142 183.562 109.841 184 110.608 184V182ZM247.678 182V184C248.782 184 249.678 183.105 249.678 182H247.678ZM247.655 183.997C247.814 183.999 247.973 184 248.133 184V180C247.988 180 247.844 179.999 247.701 179.998L247.655 183.997ZM248.133 184C270.795 184 289.166 165.629 289.166 142.967H285.166C285.166 163.42 268.586 180 248.133 180V184ZM289.166 142.967C289.166 120.305 270.795 101.933 248.133 101.933V105.933C268.586 105.933 285.166 122.514 285.166 142.967H289.166ZM248.133 101.933C247.973 101.933 247.814 101.934 247.655 101.936L247.701 105.936C247.844 105.934 247.988 105.933 248.133 105.933V101.933ZM245.678 103.933V103.936H249.678V103.933H245.678ZM237.595 105.933H247.678V101.933H237.595V105.933ZM239.576 104.204C239.953 101.443 240.147 98.6253 240.147 95.7633H236.147C236.147 98.444 235.965 101.081 235.613 103.663L239.576 104.204ZM240.147 95.7633C240.147 61.5705 212.428 33.8518 178.236 33.8518V37.8518C210.219 37.8518 236.147 63.7797 236.147 95.7633H240.147ZM178.236 33.8518C144.043 33.8518 116.324 61.5705 116.324 95.7633H120.324C120.324 63.7797 146.252 37.8518 178.236 37.8518V33.8518ZM116.324 95.7633C116.324 98.9877 116.571 102.156 117.047 105.249L121 104.641C120.555 101.748 120.324 98.7834 120.324 95.7633H116.324ZM119.476 102.997C116.479 102.301 113.359 101.933 110.155 101.933V105.933C113.052 105.933 115.869 106.266 118.571 106.894L119.476 102.997ZM110.155 101.933C87.4926 101.933 69.1213 120.305 69.1213 142.967H73.1213C73.1213 122.514 89.7017 105.933 110.155 105.933V101.933ZM69.1213 142.967C69.1213 165.629 87.4926 184 110.155 184V180C89.7017 180 73.1213 163.42 73.1213 142.967H69.1213ZM110.155 184C110.314 184 110.473 183.999 110.633 183.997L110.587 179.998C110.443 179.999 110.299 180 110.155 180V184ZM112.177 183.239L112.179 183.237L109.04 180.758L109.038 180.76L112.177 183.239ZM247.678 180H110.608V184H247.678V180ZM245.678 181.997V182H249.678V181.997H245.678Z" fill="url(#paint1_linear_108_1657)" mask="url(#path-76-inside-1_108_1657)"/>
</g>
<defs>
<filter id="filter0_bd_108_1657" x="0.121338" y="0.851807" width="316.045" height="246.148" filterUnits="userSpaceOnUse" color-interpolation-filters="sRGB">
<feFlood flood-opacity="0" result="BackgroundImageFix"/>
<feGaussianBlur in="BackgroundImageFix" stdDeviation="7"/>
<feComposite in2="SourceAlpha" operator="in" result="effect1_backgroundBlur_108_1657"/>
<feColorMatrix in="SourceAlpha" type="matrix" values="0 0 0 0 0 0 0 0 0 0 0 0 0 0 0 0 0 0 127 0" result="hardAlpha"/>
<feOffset dx="-21" dy="15"/>
<feGaussianBlur stdDeviation="25"/>
<feComposite in2="hardAlpha" operator="out"/>
<feColorMatrix type="matrix" values="0 0 0 0 0.113438 0 0 0 0 0.148981 0 0 0 0 0.275 0 0 0 0.25 0"/>
<feBlend mode="normal" in2="effect1_backgroundBlur_108_1657" result="effect2_dropShadow_108_1657"/>
<feBlend mode="normal" in="SourceGraphic" in2="effect2_dropShadow_108_1657" result="shape"/>
</filter>
<linearGradient id="paint0_linear_108_1657" x1="189.192" y1="40.2481" x2="189.192" y2="198.514" gradientUnits="userSpaceOnUse">
<stop stop-color="white"/>
<stop offset="1" stop-color="white" stop-opacity="0"/>
</linearGradient>
<linearGradient id="paint1_linear_108_1657" x1="179.144" y1="35.8518" x2="179.144" y2="182" gradientUnits="userSpaceOnUse">
<stop stop-color="white"/>
<stop offset="1" stop-color="white" stop-opacity="0"/>
</linearGradient>
</defs>
</svg>
