<svg width="215" height="133" viewBox="0 0 215 133" fill="none" xmlns="http://www.w3.org/2000/svg">
<path d="M206.92 44.5953C206.92 44.5953 195.427 52.0345 186.444 51.7888C175.184 51.4732 173.255 44.9907 162.82 44.5953C151.9 44.6734 150.785 51.3983 138.947 51.7888C128.341 51.6977 123.845 44.7174 113.738 44.5953C103.631 44.4733 92.85 51.7888 92.85 51.7888" stroke="white" stroke-width="16" stroke-linecap="round"/>
<path d="M173.335 8.0022C173.335 8.0022 160.093 18.7705 149.742 18.4158C136.768 17.9586 134.545 8.5717 122.524 8.0022C109.941 8.11529 108.657 17.8463 95.0178 18.4158C82.7982 18.2848 77.6212 8.17956 65.9724 8.0022C54.3237 7.82485 41.9067 18.4158 41.9067 18.4158" stroke="white" stroke-width="16" stroke-linecap="round"/>
<path d="M130.515 77.9684C130.515 77.9684 118.173 88.7367 108.523 88.3819C96.4326 87.9247 94.3579 78.5379 83.1517 77.9684C71.4223 78.0815 70.2217 87.8125 57.5109 88.3819C46.1207 88.2493 41.2947 78.1449 30.4335 77.9684C19.5723 77.7918 8 88.3819 8 88.3819" stroke="white" stroke-width="16" stroke-linecap="round"/>
<path d="M201.043 114.579C201.043 114.579 188.286 125.347 178.316 124.991C165.818 124.534 163.678 115.147 152.097 114.578C139.976 114.691 138.738 124.422 125.599 124.991C113.826 124.86 108.84 114.755 97.6215 114.579C86.4035 114.402 74.4382 124.992 74.4382 124.992" stroke="white" stroke-width="16" stroke-linecap="round"/>
</svg>
