<svg width="354" height="354" viewBox="0 0 354 354" fill="none" xmlns="http://www.w3.org/2000/svg">
<g filter="url(#filter0_f_104_1436)">
<circle cx="176.62" cy="176.62" r="76.6203" fill="#FFC701" fill-opacity="0.35"/>
</g>
<circle cx="176.62" cy="179.132" r="73.1083" fill="url(#paint0_linear_104_1436)" stroke="url(#paint1_linear_104_1436)" stroke-width="2"/>
<mask id="mask0_104_1436" style="mask-type:alpha" maskUnits="userSpaceOnUse" x="102" y="146" width="149" height="108">
<path d="M250.729 179.132C250.729 220.061 217.549 253.241 176.62 253.241C135.692 253.241 102.512 220.061 102.512 179.132C102.512 138.204 130.039 147.731 170.968 147.731C211.897 147.731 250.729 138.204 250.729 179.132Z" fill="url(#paint2_linear_104_1436)"/>
</mask>
<g mask="url(#mask0_104_1436)">
<g filter="url(#filter1_f_104_1436)">
<path fill-rule="evenodd" clip-rule="evenodd" d="M289.667 314.788C289.667 344.618 265.486 368.799 235.656 368.799C235.447 368.799 235.237 368.798 235.028 368.796V368.799H45.3612L45.3635 368.796C45.1536 368.799 44.9434 368.8 44.7329 368.8C14.9034 368.8 -9.2782 344.618 -9.2782 314.789C-9.2782 284.959 14.9034 260.778 44.7329 260.778C70.445 260.778 91.9608 278.744 97.4106 302.808L115.701 279.618L172.853 260.777H235.028V260.781C235.237 260.778 235.447 260.777 235.656 260.777C265.486 260.777 289.667 284.959 289.667 314.788Z" fill="#E18700"/>
</g>
</g>
<path d="M216.92 197.595C216.92 197.595 205.427 205.035 196.444 204.789C185.184 204.473 183.255 197.991 172.82 197.595C161.9 197.673 160.785 204.398 148.947 204.789C138.341 204.698 133.845 197.717 123.738 197.595C113.631 197.473 102.85 204.789 102.85 204.789" stroke="white" stroke-width="16" stroke-linecap="round"/>
<path d="M183.335 161.002C183.335 161.002 170.093 171.77 159.742 171.416C146.768 170.959 144.545 161.572 132.524 161.002C119.941 161.115 118.657 170.846 105.018 171.416C92.7982 171.285 87.6212 161.18 75.9724 161.002C64.3237 160.825 51.9067 171.416 51.9067 171.416" stroke="white" stroke-width="16" stroke-linecap="round"/>
<path d="M140.515 230.968C140.515 230.968 128.173 241.737 118.523 241.382C106.433 240.925 104.358 231.538 93.1517 230.968C81.4223 231.081 80.2217 240.812 67.5109 241.382C56.1207 241.249 51.2947 231.145 40.4335 230.968C29.5723 230.792 18 241.382 18 241.382" stroke="white" stroke-width="16" stroke-linecap="round"/>
<path d="M211.043 267.579C211.043 267.579 198.286 278.347 188.316 277.991C175.818 277.534 173.678 268.147 162.097 267.578C149.976 267.691 148.738 277.422 135.599 277.991C123.826 277.86 118.84 267.755 107.621 267.579C96.4035 267.402 84.4382 277.992 84.4382 277.992" stroke="white" stroke-width="16" stroke-linecap="round"/>
<defs>
<filter id="filter0_f_104_1436" x="0" y="0" width="353.241" height="353.241" filterUnits="userSpaceOnUse" color-interpolation-filters="sRGB">
<feFlood flood-opacity="0" result="BackgroundImageFix"/>
<feBlend mode="normal" in="SourceGraphic" in2="BackgroundImageFix" result="shape"/>
<feGaussianBlur stdDeviation="50" result="effect1_foregroundBlur_104_1436"/>
</filter>
<filter id="filter1_f_104_1436" x="-23.2782" y="246.777" width="326.945" height="136.023" filterUnits="userSpaceOnUse" color-interpolation-filters="sRGB">
<feFlood flood-opacity="0" result="BackgroundImageFix"/>
<feBlend mode="normal" in="SourceGraphic" in2="BackgroundImageFix" result="shape"/>
<feGaussianBlur stdDeviation="7" result="effect1_foregroundBlur_104_1436"/>
</filter>
<linearGradient id="paint0_linear_104_1436" x1="176.62" y1="105.024" x2="176.62" y2="253.241" gradientUnits="userSpaceOnUse">
<stop stop-color="#FFE600"/>
<stop offset="1" stop-color="#FF7A00"/>
</linearGradient>
<linearGradient id="paint1_linear_104_1436" x1="176.62" y1="105.024" x2="176.62" y2="253.241" gradientUnits="userSpaceOnUse">
<stop stop-color="white"/>
<stop offset="1" stop-color="white" stop-opacity="0"/>
</linearGradient>
<linearGradient id="paint2_linear_104_1436" x1="176.62" y1="105.024" x2="176.62" y2="253.241" gradientUnits="userSpaceOnUse">
<stop stop-color="#FFD600"/>
<stop offset="1" stop-color="#FF7A00"/>
</linearGradient>
</defs>
</svg>
