<svg width="321" height="265" viewBox="0 0 321 265" fill="none" xmlns="http://www.w3.org/2000/svg">
<g filter="url(#filter0_bdd_108_1996)">
<mask id="path-1-inside-1_108_1996" fill="white">
<path fill-rule="evenodd" clip-rule="evenodd" d="M196.339 38.4558C199.792 37.9443 201.853 42.0181 199.943 44.9404C187.004 64.7381 184.781 90.7363 196.373 113.271C211.668 143.007 245.856 156.682 276.736 147.177C280.075 146.149 283.421 149.261 281.97 152.44C274.671 168.424 262.149 182.162 245.311 190.823C205.481 211.311 156.583 195.63 136.096 155.8C115.608 115.97 131.289 67.0725 171.119 46.585C179.254 42.4008 187.767 39.7251 196.339 38.4558Z"/>
</mask>
<path fill-rule="evenodd" clip-rule="evenodd" d="M196.339 38.4558C199.792 37.9443 201.853 42.0181 199.943 44.9404C187.004 64.7381 184.781 90.7363 196.373 113.271C211.668 143.007 245.856 156.682 276.736 147.177C280.075 146.149 283.421 149.261 281.97 152.44C274.671 168.424 262.149 182.162 245.311 190.823C205.481 211.311 156.583 195.63 136.096 155.8C115.608 115.97 131.289 67.0725 171.119 46.585C179.254 42.4008 187.767 39.7251 196.339 38.4558Z" fill="url(#paint0_linear_108_1996)"/>
<path d="M276.736 147.177L277.324 149.088L276.736 147.177ZM281.97 152.44L283.789 153.27L281.97 152.44ZM199.943 44.9404L201.617 46.0346L199.943 44.9404ZM198.151 112.357C186.902 90.4869 189.056 65.2547 201.617 46.0346L198.269 43.8463C184.953 64.2216 182.66 90.9857 194.594 114.186L198.151 112.357ZM276.148 145.265C246.178 154.49 212.995 141.215 198.151 112.357L194.594 114.186C210.34 144.798 245.534 158.873 277.324 149.088L276.148 145.265ZM280.15 151.609C273.032 167.199 260.821 180.596 244.396 189.045L246.226 192.602C263.477 183.728 276.311 169.648 283.789 153.27L280.15 151.609ZM244.396 189.045C205.548 209.027 157.857 193.733 137.874 154.885L134.317 156.715C155.31 197.527 205.413 213.595 246.226 192.602L244.396 189.045ZM137.874 154.885C117.892 116.037 133.186 68.3458 172.034 48.3635L170.204 44.8065C129.392 65.7992 113.325 115.902 134.317 156.715L137.874 154.885ZM172.034 48.3635C179.971 44.2808 188.274 41.6719 196.632 40.4342L196.046 36.4773C187.26 37.7784 178.537 40.5207 170.204 44.8065L172.034 48.3635ZM277.324 149.088C278.247 148.804 279.168 149.091 279.752 149.662C280.306 150.203 280.478 150.89 280.15 151.609L283.789 153.27C284.912 150.811 284.137 148.353 282.546 146.8C280.986 145.276 278.564 144.521 276.148 145.265L277.324 149.088ZM201.617 46.0346C202.999 43.92 202.945 41.3854 201.915 39.4648C200.864 37.5068 198.719 36.0815 196.046 36.4773L196.632 40.4342C197.412 40.3186 198.024 40.6745 198.39 41.356C198.776 42.0751 198.797 43.0385 198.269 43.8463L201.617 46.0346Z" fill="url(#paint1_linear_108_1996)" mask="url(#path-1-inside-1_108_1996)"/>
</g>
<path d="M206.92 159.595C206.92 159.595 195.427 167.034 186.444 166.789C175.184 166.473 173.255 159.991 162.82 159.595C151.9 159.673 150.785 166.398 138.947 166.789C128.341 166.698 123.845 159.717 113.738 159.595C103.631 159.473 92.8499 166.789 92.8499 166.789" stroke="white" stroke-width="16" stroke-linecap="round"/>
<path d="M173.335 123.002C173.335 123.002 160.093 133.77 149.742 133.416C136.768 132.959 134.545 123.572 122.524 123.002C109.941 123.115 108.657 132.846 95.0179 133.416C82.7982 133.285 77.6212 123.18 65.9725 123.002C54.3237 122.825 41.9068 133.416 41.9068 133.416" stroke="white" stroke-width="16" stroke-linecap="round"/>
<path d="M130.515 192.968C130.515 192.968 118.173 203.737 108.523 203.382C96.4326 202.925 94.3579 193.538 83.1517 192.968C71.4223 193.082 70.2217 202.813 57.5109 203.382C46.1207 203.249 41.2947 193.145 30.4335 192.968C19.5723 192.792 8 203.382 8 203.382" stroke="white" stroke-width="16" stroke-linecap="round"/>
<path d="M201.043 229.579C201.043 229.579 188.286 240.347 178.316 239.991C165.818 239.534 163.678 230.147 152.097 229.578C139.976 229.691 138.738 239.422 125.599 239.991C113.826 239.86 108.839 229.755 97.6215 229.579C86.4035 229.402 74.4382 239.992 74.4382 239.992" stroke="white" stroke-width="16" stroke-linecap="round"/>
<defs>
<filter id="filter0_bdd_108_1996" x="56.0976" y="0.411865" width="264.22" height="264.41" filterUnits="userSpaceOnUse" color-interpolation-filters="sRGB">
<feFlood flood-opacity="0" result="BackgroundImageFix"/>
<feGaussianBlur in="BackgroundImageFix" stdDeviation="7"/>
<feComposite in2="SourceAlpha" operator="in" result="effect1_backgroundBlur_108_1996"/>
<feColorMatrix in="SourceAlpha" type="matrix" values="0 0 0 0 0 0 0 0 0 0 0 0 0 0 0 0 0 0 127 0" result="hardAlpha"/>
<feOffset dx="-21" dy="15"/>
<feGaussianBlur stdDeviation="25"/>
<feComposite in2="hardAlpha" operator="out"/>
<feColorMatrix type="matrix" values="0 0 0 0 0.113438 0 0 0 0 0.148981 0 0 0 0 0.275 0 0 0 0.25 0"/>
<feBlend mode="normal" in2="effect1_backgroundBlur_108_1996" result="effect2_dropShadow_108_1996"/>
<feColorMatrix in="SourceAlpha" type="matrix" values="0 0 0 0 0 0 0 0 0 0 0 0 0 0 0 0 0 0 127 0" result="hardAlpha"/>
<feOffset/>
<feGaussianBlur stdDeviation="19"/>
<feComposite in2="hardAlpha" operator="out"/>
<feColorMatrix type="matrix" values="0 0 0 0 0.619608 0 0 0 0 0.423529 0 0 0 0 1 0 0 0 0.4 0"/>
<feBlend mode="normal" in2="effect2_dropShadow_108_1996" result="effect3_dropShadow_108_1996"/>
<feBlend mode="normal" in="SourceGraphic" in2="effect3_dropShadow_108_1996" result="shape"/>
</filter>
<linearGradient id="paint0_linear_108_1996" x1="155.961" y1="55.9888" x2="230.152" y2="200.227" gradientUnits="userSpaceOnUse">
<stop offset="0.0001" stop-color="#D4C0FF"/>
<stop offset="1" stop-color="#7E2FFF"/>
</linearGradient>
<linearGradient id="paint1_linear_108_1996" x1="164.038" y1="-23.3228" x2="210.183" y2="165.979" gradientUnits="userSpaceOnUse">
<stop stop-color="white"/>
<stop offset="1" stop-color="white" stop-opacity="0"/>
</linearGradient>
</defs>
</svg>
