<svg width="218" height="324" viewBox="0 0 218 324" fill="none" xmlns="http://www.w3.org/2000/svg">
<path d="M67 157C93.5097 157 115 135.51 115 109C115 82.4908 93.5097 61.0005 67 61.0005C40.4903 61.0005 19 82.4908 19 109C19 135.51 40.4903 157 67 157Z" fill="#FA9E42"/>
<path d="M67 167C99.0325 167 125 141.033 125 109C125 76.968 99.0325 51.0005 67 51.0005C34.9675 51.0005 9 76.968 9 109C9 141.033 34.9675 167 67 167Z" stroke="#FA9E42" stroke-width="10" stroke-linecap="round" stroke-dasharray="1 66"/>
<g filter="url(#filter0_f_409_2)">
<path d="M61.6224 99.1821C78.6362 90.1454 88.2605 74.9723 83.1189 65.2921C77.9773 55.6119 60.0169 55.0903 43.0031 64.127C25.9894 73.1638 16.3651 88.3369 21.5067 98.0171C26.6482 107.697 44.6087 108.219 61.6224 99.1821Z" fill="#F8E36F"/>
</g>
<g filter="url(#filter1_d_409_2)">
<path d="M84.7539 181.054L84.7539 45.0004C84.7539 35.7178 88.4414 26.8154 95.0052 20.2516C101.569 13.6879 110.471 10.0004 119.754 10.0004C129.037 10.0004 137.939 13.6879 144.503 20.2516C151.066 26.8154 154.754 35.7178 154.754 45.0004L154.754 183.97C163.831 191.089 170.663 200.672 174.434 211.574C178.205 222.475 178.754 234.232 176.016 245.437C173.277 256.643 167.368 266.821 158.994 274.755C150.62 282.688 140.138 288.04 128.801 290.17C124.686 291.262 120.408 291.6 116.173 291.17C103.401 290.837 91.0691 286.437 80.9718 278.609C70.8745 270.781 63.5392 259.935 60.0337 247.649C56.5282 235.363 57.0355 222.28 61.4817 210.302C65.9279 198.325 74.0809 188.079 84.7539 181.056V181.054Z" fill="url(#paint0_linear_409_2)"/>
<path d="M58.7301 231.189C58.7301 239.029 60.2429 246.644 63.2265 253.821C66.1084 260.754 70.2414 267.005 75.5105 272.402C78.1059 275.061 80.9647 277.485 84.0077 279.609C87.0769 281.75 90.3621 283.605 93.7719 285.122C100.854 288.273 108.399 289.971 116.199 290.169L116.237 290.17L116.275 290.174C117.423 290.291 118.593 290.35 119.755 290.35C122.735 290.35 125.692 289.964 128.544 289.203L128.581 289.193L128.618 289.186C135.358 287.929 141.773 285.521 147.687 282.029C153.478 278.61 158.611 274.258 162.943 269.096C167.308 263.896 170.713 258.046 173.064 251.71C175.497 245.153 176.731 238.248 176.731 231.189C176.731 226.564 176.194 221.958 175.135 217.501C174.106 213.169 172.578 208.949 170.593 204.957C168.644 201.036 166.247 197.323 163.471 193.919C160.711 190.536 157.571 187.453 154.137 184.757L153.755 184.457V183.97L153.755 45.0001C153.755 40.4096 152.856 35.957 151.083 31.766C149.371 27.7174 146.919 24.0811 143.796 20.9583C140.673 17.8355 137.037 15.3839 132.989 13.6715C128.798 11.8988 124.345 11 119.755 11C115.164 11 110.711 11.8988 106.52 13.6715C102.472 15.3839 98.8356 17.8355 95.7128 20.9583C92.5899 24.0811 90.1383 27.7174 88.4259 31.766C86.6532 35.957 85.7544 40.4096 85.7544 45.0001L85.7544 181.055V181.593L85.3047 181.89C77.3012 187.164 70.6301 194.384 66.0127 202.769C63.6654 207.031 61.8547 211.575 60.6308 216.275C59.3696 221.117 58.7301 226.135 58.7301 231.189ZM57.7301 231.189C57.7301 210.231 68.473 191.785 84.7544 181.055L84.7544 45.0001C84.7544 25.6699 100.424 10 119.755 10C139.085 10 154.755 25.6699 154.755 45.0001L154.755 183.97C168.743 194.955 177.731 212.023 177.731 231.189C177.731 260.544 156.65 284.975 128.802 290.169C125.916 290.94 122.883 291.35 119.755 291.35C118.545 291.35 117.352 291.289 116.174 291.169C83.7553 290.344 57.7301 263.806 57.7301 231.189Z" fill="white" fill-opacity="0.5"/>
<path d="M118.64 22.3718C122.784 22.2994 126.857 23.4601 130.344 25.7072C133.83 27.9542 136.573 31.1865 138.226 34.9955C139.879 38.8045 140.368 43.019 139.631 47.1061C138.893 51.1932 136.963 54.9693 134.083 57.9569C131.204 60.9445 127.505 63.0094 123.454 63.8906C119.403 64.7717 115.183 64.4294 111.326 62.9071C107.469 61.3847 104.149 58.7506 101.786 55.3379C99.4233 51.9252 98.1234 47.8871 98.0509 43.7343C97.9537 38.1656 100.068 32.7865 103.929 28.7802C107.791 24.774 113.082 22.4688 118.64 22.3718Z" fill="white"/>
</g>
<path d="M118.13 187.581C126.93 187.427 135.578 189.886 142.98 194.648C150.382 199.409 156.206 206.258 159.716 214.33C163.225 222.401 164.263 231.332 162.697 239.992C161.13 248.653 157.031 256.655 150.917 262.986C144.804 269.317 136.95 273.693 128.349 275.561C119.748 277.428 110.786 276.703 102.598 273.477C94.4087 270.252 87.3602 264.67 82.3435 257.439C77.3268 250.207 74.5672 241.65 74.4136 232.851C74.2076 221.05 78.6977 209.651 86.8962 201.162C95.0946 192.672 106.33 187.787 118.13 187.581V187.581Z" fill="white"/>
<path d="M140 42H98V194H140V42Z" fill="white"/>
<defs>
<filter id="filter0_f_409_2" x="0.122192" y="37.6765" width="104.381" height="87.9562" filterUnits="userSpaceOnUse" color-interpolation-filters="sRGB">
<feFlood flood-opacity="0" result="BackgroundImageFix"/>
<feBlend mode="normal" in="SourceGraphic" in2="BackgroundImageFix" result="shape"/>
<feGaussianBlur stdDeviation="10" result="effect1_foregroundBlur_409_2"/>
</filter>
<filter id="filter1_d_409_2" x="37.7301" y="-18" width="180.001" height="341.351" filterUnits="userSpaceOnUse" color-interpolation-filters="sRGB">
<feFlood flood-opacity="0" result="BackgroundImageFix"/>
<feColorMatrix in="SourceAlpha" type="matrix" values="0 0 0 0 0 0 0 0 0 0 0 0 0 0 0 0 0 0 127 0" result="hardAlpha"/>
<feOffset dx="10" dy="2"/>
<feGaussianBlur stdDeviation="15"/>
<feColorMatrix type="matrix" values="0 0 0 0 0.501961 0 0 0 0 0.501961 0 0 0 0 0.501961 0 0 0 0.302 0"/>
<feBlend mode="normal" in2="BackgroundImageFix" result="effect1_dropShadow_409_2"/>
<feBlend mode="normal" in="SourceGraphic" in2="effect1_dropShadow_409_2" result="shape"/>
</filter>
<linearGradient id="paint0_linear_409_2" x1="162.611" y1="123.947" x2="44.5628" y2="151.912" gradientUnits="userSpaceOnUse">
<stop stop-color="white" stop-opacity="0.596"/>
<stop offset="1" stop-color="#F7F7F7" stop-opacity="0.204"/>
</linearGradient>
</defs>
</svg>
