<svg width="444" height="363" viewBox="0 0 444 363" fill="none" xmlns="http://www.w3.org/2000/svg">
<g filter="url(#filter0_bdd_108_1987)">
<mask id="path-1-inside-1_108_1987" fill="white">
<path fill-rule="evenodd" clip-rule="evenodd" d="M238.019 38.1374C241.456 37.5276 243.545 41.5962 241.735 44.5815C232.264 60.2017 230.89 80.2293 239.858 97.6643C251.797 120.874 278.132 131.847 302.348 125.286C305.721 124.372 309.054 127.51 307.513 130.646C301.585 142.715 291.865 153.051 278.989 159.674C247.141 176.056 208.043 163.518 191.662 131.67C175.28 99.822 187.818 60.7242 219.666 44.3426C225.597 41.292 231.779 39.2443 238.019 38.1374Z"/>
</mask>
<path fill-rule="evenodd" clip-rule="evenodd" d="M238.019 38.1374C241.456 37.5276 243.545 41.5962 241.735 44.5815C232.264 60.2017 230.89 80.2293 239.858 97.6643C251.797 120.874 278.132 131.847 302.348 125.286C305.721 124.372 309.054 127.51 307.513 130.646C301.585 142.715 291.865 153.051 278.989 159.674C247.141 176.056 208.043 163.518 191.662 131.67C175.28 99.822 187.818 60.7242 219.666 44.3426C225.597 41.292 231.779 39.2443 238.019 38.1374Z" fill="url(#paint0_linear_108_1987)"/>
<path d="M302.348 125.286L302.871 127.216L302.348 125.286ZM307.513 130.646L305.718 129.764L307.513 130.646ZM241.637 96.7495C233 79.9582 234.32 60.669 243.445 45.6184L240.025 43.5445C230.208 59.7344 228.781 80.5005 238.08 98.5792L241.637 96.7495ZM301.825 123.356C278.5 129.675 253.135 119.103 241.637 96.7495L238.08 98.5792C250.459 122.646 277.763 134.019 302.871 127.216L301.825 123.356ZM305.718 129.764C299.973 141.461 290.555 151.476 278.074 157.896L279.904 161.453C293.175 154.626 303.197 143.969 309.308 131.527L305.718 129.764ZM278.074 157.896C247.208 173.772 209.316 161.621 193.44 130.755L189.883 132.585C206.77 165.415 247.074 178.34 279.904 161.453L278.074 157.896ZM193.44 130.755C177.564 99.8895 189.715 61.9975 220.581 46.1211L218.751 42.5641C185.921 59.4509 172.996 99.7546 189.883 132.585L193.44 130.755ZM220.581 46.1211C226.332 43.163 232.323 41.179 238.368 40.1066L237.669 36.1681C231.235 37.3096 224.862 39.421 218.751 42.5641L220.581 46.1211ZM302.871 127.216C303.825 126.958 304.773 127.275 305.359 127.862C305.908 128.411 306.057 129.075 305.718 129.764L309.308 131.527C310.51 129.08 309.762 126.608 308.187 125.033C306.649 123.495 304.244 122.7 301.825 123.356L302.871 127.216ZM243.445 45.6184C244.743 43.477 244.646 40.9476 243.595 39.0446C242.519 37.0958 240.352 35.6922 237.669 36.1681L238.368 40.1066C239.123 39.9728 239.719 40.2986 240.094 40.978C240.494 41.7032 240.536 42.7006 240.025 43.5445L243.445 45.6184Z" fill="url(#paint1_linear_108_1987)" mask="url(#path-1-inside-1_108_1987)"/>
</g>
<g filter="url(#filter1_bd_108_1987)">
<mask id="path-3-inside-2_108_1987" fill="white">
<path fill-rule="evenodd" clip-rule="evenodd" d="M211.563 222.351C211.683 222.352 211.804 222.353 211.924 222.353C229.087 222.353 243 208.44 243 191.277C243 174.115 229.087 160.202 211.924 160.202C211.804 160.202 211.683 160.202 211.563 160.204V160.202H203.535C203.825 158.075 203.975 155.904 203.975 153.697C203.975 127.355 182.62 106 156.277 106C129.935 106 108.58 127.355 108.58 153.697C108.58 156.183 108.77 158.624 109.136 161.007C106.868 160.48 104.504 160.202 102.076 160.202C84.913 160.202 71 174.115 71 191.277C71 208.44 84.913 222.353 102.076 222.353C102.197 222.353 102.318 222.352 102.439 222.351L102.437 222.353H211.563V222.351Z"/>
</mask>
<path fill-rule="evenodd" clip-rule="evenodd" d="M211.563 222.351C211.683 222.352 211.804 222.353 211.924 222.353C229.087 222.353 243 208.44 243 191.277C243 174.115 229.087 160.202 211.924 160.202C211.804 160.202 211.683 160.202 211.563 160.204V160.202H203.535C203.825 158.075 203.975 155.904 203.975 153.697C203.975 127.355 182.62 106 156.277 106C129.935 106 108.58 127.355 108.58 153.697C108.58 156.183 108.77 158.624 109.136 161.007C106.868 160.48 104.504 160.202 102.076 160.202C84.913 160.202 71 174.115 71 191.277C71 208.44 84.913 222.353 102.076 222.353C102.197 222.353 102.318 222.352 102.439 222.351L102.437 222.353H211.563V222.351Z" fill="url(#paint2_linear_108_1987)" shape-rendering="crispEdges"/>
<path d="M211.563 222.351L211.586 220.351C211.052 220.345 210.537 220.553 210.157 220.929C209.777 221.304 209.563 221.816 209.563 222.351H211.563ZM211.563 160.204H209.563C209.563 160.738 209.777 161.25 210.157 161.626C210.537 162.002 211.051 162.21 211.586 162.204L211.563 160.204ZM211.563 160.202H213.563C213.563 159.097 212.668 158.202 211.563 158.202V160.202ZM203.535 160.202L201.553 159.931C201.475 160.504 201.649 161.082 202.028 161.517C202.408 161.952 202.957 162.202 203.535 162.202V160.202ZM109.136 161.007L108.684 162.955C109.33 163.106 110.009 162.925 110.496 162.474C110.983 162.023 111.214 161.359 111.113 160.703L109.136 161.007ZM102.439 222.351L104.008 223.59C104.486 222.985 104.573 222.16 104.233 221.468C103.893 220.777 103.186 220.342 102.416 220.351L102.439 222.351ZM102.437 222.353L100.867 221.114C100.392 221.715 100.303 222.535 100.637 223.225C100.971 223.915 101.67 224.353 102.437 224.353V222.353ZM211.563 222.353V224.353C212.668 224.353 213.563 223.458 213.563 222.353H211.563ZM211.54 224.351C211.668 224.352 211.796 224.353 211.924 224.353V220.353C211.811 220.353 211.699 220.352 211.586 220.351L211.54 224.351ZM211.924 224.353C230.192 224.353 245 209.544 245 191.277H241C241 207.335 227.982 220.353 211.924 220.353V224.353ZM245 191.277C245 173.01 230.192 158.202 211.924 158.202V162.202C227.982 162.202 241 175.219 241 191.277H245ZM211.924 158.202C211.796 158.202 211.668 158.202 211.54 158.204L211.586 162.204C211.698 162.202 211.811 162.202 211.924 162.202V158.202ZM209.563 160.202V160.204H213.563V160.202H209.563ZM203.535 162.202H211.563V158.202H203.535V162.202ZM205.517 160.472C205.819 158.256 205.975 155.994 205.975 153.697H201.975C201.975 155.813 201.831 157.894 201.553 159.931L205.517 160.472ZM205.975 153.697C205.975 126.25 183.724 104 156.277 104V108C181.515 108 201.975 128.459 201.975 153.697H205.975ZM156.277 104C128.83 104 106.58 126.25 106.58 153.697H110.58C110.58 128.459 131.039 108 156.277 108V104ZM106.58 153.697C106.58 156.285 106.778 158.828 107.16 161.311L111.113 160.703C110.762 158.421 110.58 156.081 110.58 153.697H106.58ZM109.589 159.059C107.173 158.498 104.658 158.202 102.076 158.202V162.202C104.351 162.202 106.563 162.463 108.684 162.955L109.589 159.059ZM102.076 158.202C83.8085 158.202 69 173.01 69 191.277H73C73 175.219 86.0176 162.202 102.076 162.202V158.202ZM69 191.277C69 209.544 83.8085 224.353 102.076 224.353V220.353C86.0176 220.353 73 207.335 73 191.277H69ZM102.076 224.353C102.204 224.353 102.333 224.352 102.461 224.351L102.416 220.351C102.303 220.352 102.189 220.353 102.076 220.353V224.353ZM104.007 223.592L104.008 223.59L100.869 221.112L100.867 221.114L104.007 223.592ZM211.563 220.353H102.437V224.353H211.563V220.353ZM209.563 222.351V222.353H213.563V222.351H209.563Z" fill="url(#paint3_linear_108_1987)" mask="url(#path-3-inside-2_108_1987)"/>
</g>
<g filter="url(#filter2_bd_108_1987)">
<mask id="path-5-inside-3_108_1987" fill="white">
<path fill-rule="evenodd" clip-rule="evenodd" d="M305.5 301.997C305.666 301.999 305.833 302 306 302C329.748 302 349 282.748 349 259C349 235.252 329.748 216 306 216C305.833 216 305.666 216.001 305.5 216.003V216H294.391C294.793 213.057 295 210.053 295 207C295 170.549 265.451 141 229 141C192.549 141 163 170.549 163 207C163 210.439 163.263 213.817 163.77 217.115C160.631 216.386 157.361 216 154 216C130.252 216 111 235.252 111 259C111 282.748 130.252 302 154 302C154.168 302 154.335 301.999 154.502 301.997L154.5 302H305.5V301.997Z"/>
</mask>
<path fill-rule="evenodd" clip-rule="evenodd" d="M305.5 301.997C305.666 301.999 305.833 302 306 302C329.748 302 349 282.748 349 259C349 235.252 329.748 216 306 216C305.833 216 305.666 216.001 305.5 216.003V216H294.391C294.793 213.057 295 210.053 295 207C295 170.549 265.451 141 229 141C192.549 141 163 170.549 163 207C163 210.439 163.263 213.817 163.77 217.115C160.631 216.386 157.361 216 154 216C130.252 216 111 235.252 111 259C111 282.748 130.252 302 154 302C154.168 302 154.335 301.999 154.502 301.997L154.5 302H305.5V301.997Z" fill="url(#paint4_linear_108_1987)" shape-rendering="crispEdges"/>
<path d="M305.5 301.997L305.523 299.997C304.988 299.991 304.474 300.199 304.094 300.575C303.714 300.951 303.5 301.463 303.5 301.997H305.5ZM305.5 216.003H303.5C303.5 216.537 303.714 217.049 304.094 217.425C304.474 217.801 304.988 218.009 305.523 218.003L305.5 216.003ZM305.5 216H307.5C307.5 214.895 306.605 214 305.5 214V216ZM294.391 216L292.41 215.73C292.332 216.302 292.505 216.88 292.885 217.315C293.265 217.75 293.814 218 294.391 218V216ZM163.77 217.115L163.318 219.063C163.964 219.213 164.643 219.033 165.13 218.582C165.617 218.13 165.848 217.467 165.747 216.811L163.77 217.115ZM154.502 301.997L156.072 303.237C156.549 302.632 156.637 301.807 156.297 301.115C155.957 300.423 155.25 299.988 154.479 299.997L154.502 301.997ZM154.5 302L152.931 300.76C152.455 301.362 152.366 302.182 152.7 302.872C153.034 303.562 153.733 304 154.5 304V302ZM305.5 302V304C306.605 304 307.5 303.105 307.5 302H305.5ZM305.477 303.997C305.651 303.999 305.825 304 306 304V300C305.841 300 305.682 299.999 305.523 299.997L305.477 303.997ZM306 304C330.853 304 351 283.853 351 259H347C347 281.644 328.644 300 306 300V304ZM351 259C351 234.147 330.853 214 306 214V218C328.644 218 347 236.356 347 259H351ZM306 214C305.826 214 305.651 214.001 305.477 214.003L305.523 218.003C305.682 218.001 305.841 218 306 218V214ZM303.5 216V216.003H307.5V216H303.5ZM294.391 218H305.5V214H294.391V218ZM296.373 216.27C296.787 213.238 297 210.143 297 207H293C293 209.962 292.799 212.876 292.41 215.73L296.373 216.27ZM297 207C297 169.445 266.555 139 229 139V143C264.346 143 293 171.654 293 207H297ZM229 139C191.445 139 161 169.445 161 207H165C165 171.654 193.654 143 229 143V139ZM161 207C161 210.542 161.271 214.021 161.793 217.419L165.747 216.811C165.255 213.614 165 210.337 165 207H161ZM164.223 215.167C160.937 214.403 157.514 214 154 214V218C157.207 218 160.326 218.368 163.318 219.063L164.223 215.167ZM154 214C129.147 214 109 234.147 109 259H113C113 236.356 131.356 218 154 218V214ZM109 259C109 283.853 129.147 304 154 304V300C131.356 300 113 281.644 113 259H109ZM154 304C154.175 304 154.35 303.999 154.525 303.997L154.479 299.997C154.32 299.999 154.16 300 154 300V304ZM156.069 303.24L156.072 303.237L152.933 300.757L152.931 300.76L156.069 303.24ZM305.5 300H154.5V304H305.5V300ZM303.5 301.997V302H307.5V301.997H303.5Z" fill="url(#paint5_linear_108_1987)" mask="url(#path-5-inside-3_108_1987)"/>
</g>
<g filter="url(#filter3_bd_108_1987)">
<mask id="path-7-inside-4_108_1987" fill="white">
<path fill-rule="evenodd" clip-rule="evenodd" d="M383.563 257.351C383.683 257.352 383.804 257.353 383.924 257.353C401.087 257.353 415 243.44 415 226.277C415 209.115 401.087 195.202 383.924 195.202C383.804 195.202 383.683 195.202 383.563 195.204V195.202H375.535C375.825 193.075 375.975 190.904 375.975 188.697C375.975 162.355 354.62 141 328.277 141C301.935 141 280.58 162.355 280.58 188.697C280.58 191.183 280.77 193.624 281.136 196.007C278.868 195.48 276.504 195.202 274.076 195.202C256.913 195.202 243 209.115 243 226.277C243 243.44 256.913 257.353 274.076 257.353C274.197 257.353 274.318 257.352 274.439 257.351L274.437 257.353H383.563V257.351Z"/>
</mask>
<path fill-rule="evenodd" clip-rule="evenodd" d="M383.563 257.351C383.683 257.352 383.804 257.353 383.924 257.353C401.087 257.353 415 243.44 415 226.277C415 209.115 401.087 195.202 383.924 195.202C383.804 195.202 383.683 195.202 383.563 195.204V195.202H375.535C375.825 193.075 375.975 190.904 375.975 188.697C375.975 162.355 354.62 141 328.277 141C301.935 141 280.58 162.355 280.58 188.697C280.58 191.183 280.77 193.624 281.136 196.007C278.868 195.48 276.504 195.202 274.076 195.202C256.913 195.202 243 209.115 243 226.277C243 243.44 256.913 257.353 274.076 257.353C274.197 257.353 274.318 257.352 274.439 257.351L274.437 257.353H383.563V257.351Z" fill="url(#paint6_linear_108_1987)" shape-rendering="crispEdges"/>
<path d="M383.563 257.351L383.586 255.351C383.052 255.345 382.537 255.553 382.157 255.929C381.777 256.304 381.563 256.816 381.563 257.351H383.563ZM383.563 195.204H381.563C381.563 195.738 381.777 196.25 382.157 196.626C382.537 197.002 383.051 197.21 383.586 197.204L383.563 195.204ZM383.563 195.202H385.563C385.563 194.097 384.668 193.202 383.563 193.202V195.202ZM375.535 195.202L373.553 194.931C373.475 195.504 373.649 196.082 374.028 196.517C374.408 196.952 374.957 197.202 375.535 197.202V195.202ZM281.136 196.007L280.684 197.955C281.33 198.106 282.009 197.925 282.496 197.474C282.983 197.023 283.214 196.359 283.113 195.703L281.136 196.007ZM274.439 257.351L276.008 258.59C276.486 257.985 276.573 257.16 276.233 256.468C275.893 255.777 275.186 255.342 274.416 255.351L274.439 257.351ZM274.437 257.353L272.867 256.114C272.392 256.715 272.303 257.535 272.637 258.225C272.971 258.915 273.67 259.353 274.437 259.353V257.353ZM383.563 257.353V259.353C384.668 259.353 385.563 258.458 385.563 257.353H383.563ZM383.54 259.351C383.668 259.352 383.796 259.353 383.924 259.353V255.353C383.811 255.353 383.699 255.352 383.586 255.351L383.54 259.351ZM383.924 259.353C402.192 259.353 417 244.544 417 226.277H413C413 242.335 399.982 255.353 383.924 255.353V259.353ZM417 226.277C417 208.01 402.192 193.202 383.924 193.202V197.202C399.982 197.202 413 210.219 413 226.277H417ZM383.924 193.202C383.796 193.202 383.668 193.202 383.54 193.204L383.586 197.204C383.698 197.202 383.811 197.202 383.924 197.202V193.202ZM381.563 195.202V195.204H385.563V195.202H381.563ZM375.535 197.202H383.563V193.202H375.535V197.202ZM377.517 195.472C377.819 193.256 377.975 190.994 377.975 188.697H373.975C373.975 190.813 373.831 192.894 373.553 194.931L377.517 195.472ZM377.975 188.697C377.975 161.25 355.724 139 328.277 139V143C353.515 143 373.975 163.459 373.975 188.697H377.975ZM328.277 139C300.83 139 278.58 161.25 278.58 188.697H282.58C282.58 163.459 303.039 143 328.277 143V139ZM278.58 188.697C278.58 191.285 278.778 193.828 279.16 196.311L283.113 195.703C282.762 193.421 282.58 191.081 282.58 188.697H278.58ZM281.589 194.059C279.173 193.498 276.658 193.202 274.076 193.202V197.202C276.351 197.202 278.563 197.463 280.684 197.955L281.589 194.059ZM274.076 193.202C255.808 193.202 241 208.01 241 226.277H245C245 210.219 258.018 197.202 274.076 197.202V193.202ZM241 226.277C241 244.544 255.808 259.353 274.076 259.353V255.353C258.018 255.353 245 242.335 245 226.277H241ZM274.076 259.353C274.204 259.353 274.333 259.352 274.461 259.351L274.416 255.351C274.303 255.352 274.189 255.353 274.076 255.353V259.353ZM276.007 258.592L276.008 258.59L272.869 256.112L272.867 256.114L276.007 258.592ZM383.563 255.353H274.437V259.353H383.563V255.353ZM381.563 257.351V257.353H385.563V257.351H381.563Z" fill="url(#paint7_linear_108_1987)" mask="url(#path-7-inside-4_108_1987)"/>
</g>
<defs>
<filter id="filter0_bdd_108_1987" x="113.467" y="0.0761719" width="232.434" height="231.793" filterUnits="userSpaceOnUse" color-interpolation-filters="sRGB">
<feFlood flood-opacity="0" result="BackgroundImageFix"/>
<feGaussianBlur in="BackgroundImageFix" stdDeviation="7"/>
<feComposite in2="SourceAlpha" operator="in" result="effect1_backgroundBlur_108_1987"/>
<feColorMatrix in="SourceAlpha" type="matrix" values="0 0 0 0 0 0 0 0 0 0 0 0 0 0 0 0 0 0 127 0" result="hardAlpha"/>
<feOffset dx="-21" dy="15"/>
<feGaussianBlur stdDeviation="25"/>
<feComposite in2="hardAlpha" operator="out"/>
<feColorMatrix type="matrix" values="0 0 0 0 0.113438 0 0 0 0 0.148981 0 0 0 0 0.275 0 0 0 0.25 0"/>
<feBlend mode="normal" in2="effect1_backgroundBlur_108_1987" result="effect2_dropShadow_108_1987"/>
<feColorMatrix in="SourceAlpha" type="matrix" values="0 0 0 0 0 0 0 0 0 0 0 0 0 0 0 0 0 0 127 0" result="hardAlpha"/>
<feOffset/>
<feGaussianBlur stdDeviation="19"/>
<feComposite in2="hardAlpha" operator="out"/>
<feColorMatrix type="matrix" values="0 0 0 0 0.619608 0 0 0 0 0.423529 0 0 0 0 1 0 0 0 0.4 0"/>
<feBlend mode="normal" in2="effect2_dropShadow_108_1987" result="effect3_dropShadow_108_1987"/>
<feBlend mode="normal" in="SourceGraphic" in2="effect3_dropShadow_108_1987" result="shape"/>
</filter>
<filter id="filter1_bd_108_1987" x="0" y="71" width="272" height="216.353" filterUnits="userSpaceOnUse" color-interpolation-filters="sRGB">
<feFlood flood-opacity="0" result="BackgroundImageFix"/>
<feGaussianBlur in="BackgroundImageFix" stdDeviation="7"/>
<feComposite in2="SourceAlpha" operator="in" result="effect1_backgroundBlur_108_1987"/>
<feColorMatrix in="SourceAlpha" type="matrix" values="0 0 0 0 0 0 0 0 0 0 0 0 0 0 0 0 0 0 127 0" result="hardAlpha"/>
<feOffset dx="-21" dy="15"/>
<feGaussianBlur stdDeviation="25"/>
<feComposite in2="hardAlpha" operator="out"/>
<feColorMatrix type="matrix" values="0 0 0 0 0.113438 0 0 0 0 0.148981 0 0 0 0 0.275 0 0 0 0.25 0"/>
<feBlend mode="normal" in2="effect1_backgroundBlur_108_1987" result="effect2_dropShadow_108_1987"/>
<feBlend mode="normal" in="SourceGraphic" in2="effect2_dropShadow_108_1987" result="shape"/>
</filter>
<filter id="filter2_bd_108_1987" x="40" y="106" width="338" height="261" filterUnits="userSpaceOnUse" color-interpolation-filters="sRGB">
<feFlood flood-opacity="0" result="BackgroundImageFix"/>
<feGaussianBlur in="BackgroundImageFix" stdDeviation="7"/>
<feComposite in2="SourceAlpha" operator="in" result="effect1_backgroundBlur_108_1987"/>
<feColorMatrix in="SourceAlpha" type="matrix" values="0 0 0 0 0 0 0 0 0 0 0 0 0 0 0 0 0 0 127 0" result="hardAlpha"/>
<feOffset dx="-21" dy="15"/>
<feGaussianBlur stdDeviation="25"/>
<feComposite in2="hardAlpha" operator="out"/>
<feColorMatrix type="matrix" values="0 0 0 0 0.113725 0 0 0 0 0.14902 0 0 0 0 0.27451 0 0 0 0.25 0"/>
<feBlend mode="normal" in2="effect1_backgroundBlur_108_1987" result="effect2_dropShadow_108_1987"/>
<feBlend mode="normal" in="SourceGraphic" in2="effect2_dropShadow_108_1987" result="shape"/>
</filter>
<filter id="filter3_bd_108_1987" x="172" y="106" width="272" height="216.353" filterUnits="userSpaceOnUse" color-interpolation-filters="sRGB">
<feFlood flood-opacity="0" result="BackgroundImageFix"/>
<feGaussianBlur in="BackgroundImageFix" stdDeviation="7"/>
<feComposite in2="SourceAlpha" operator="in" result="effect1_backgroundBlur_108_1987"/>
<feColorMatrix in="SourceAlpha" type="matrix" values="0 0 0 0 0 0 0 0 0 0 0 0 0 0 0 0 0 0 127 0" result="hardAlpha"/>
<feOffset dx="-21" dy="15"/>
<feGaussianBlur stdDeviation="25"/>
<feComposite in2="hardAlpha" operator="out"/>
<feColorMatrix type="matrix" values="0 0 0 0 0.113438 0 0 0 0 0.148981 0 0 0 0 0.275 0 0 0 0.25 0"/>
<feBlend mode="normal" in2="effect1_backgroundBlur_108_1987" result="effect2_dropShadow_108_1987"/>
<feBlend mode="normal" in="SourceGraphic" in2="effect2_dropShadow_108_1987" result="shape"/>
</filter>
<linearGradient id="paint0_linear_108_1987" x1="207.067" y1="52.1079" x2="266.39" y2="167.44" gradientUnits="userSpaceOnUse">
<stop offset="0.0001" stop-color="#D4C0FF"/>
<stop offset="1" stop-color="#7E2FFF"/>
</linearGradient>
<linearGradient id="paint1_linear_108_1987" x1="213.197" y1="-11.14" x2="249.703" y2="140.225" gradientUnits="userSpaceOnUse">
<stop stop-color="white"/>
<stop offset="1" stop-color="white" stop-opacity="0"/>
</linearGradient>
<linearGradient id="paint2_linear_108_1987" x1="165" y1="109.5" x2="165" y2="235.5" gradientUnits="userSpaceOnUse">
<stop stop-color="white"/>
<stop offset="1" stop-color="white" stop-opacity="0"/>
</linearGradient>
<linearGradient id="paint3_linear_108_1987" x1="157" y1="106" x2="157" y2="222.353" gradientUnits="userSpaceOnUse">
<stop stop-color="white"/>
<stop offset="1" stop-color="white" stop-opacity="0"/>
</linearGradient>
<linearGradient id="paint4_linear_108_1987" x1="230" y1="89.5" x2="230" y2="324.5" gradientUnits="userSpaceOnUse">
<stop stop-color="white"/>
<stop offset="1" stop-color="white" stop-opacity="0"/>
</linearGradient>
<linearGradient id="paint5_linear_108_1987" x1="230" y1="141" x2="230" y2="302" gradientUnits="userSpaceOnUse">
<stop stop-color="white"/>
<stop offset="1" stop-color="white" stop-opacity="0"/>
</linearGradient>
<linearGradient id="paint6_linear_108_1987" x1="337" y1="144.5" x2="337" y2="270.5" gradientUnits="userSpaceOnUse">
<stop stop-color="white"/>
<stop offset="1" stop-color="white" stop-opacity="0"/>
</linearGradient>
<linearGradient id="paint7_linear_108_1987" x1="329" y1="141" x2="329" y2="257.353" gradientUnits="userSpaceOnUse">
<stop stop-color="white"/>
<stop offset="1" stop-color="white" stop-opacity="0"/>
</linearGradient>
</defs>
</svg>
