<svg width="254" height="175" viewBox="0 0 254 175" fill="none" xmlns="http://www.w3.org/2000/svg">
<path d="M8.31097 67.6249C8.31097 67.6249 18.469 76.7689 26.406 76.4669C36.357 76.0789 38.061 68.1109 47.282 67.6249C56.933 67.7249 57.918 75.9869 68.382 76.4669C77.753 76.3549 81.727 67.7749 90.657 67.6249C99.587 67.4749 109.115 76.4669 109.115 76.4669" stroke="white" stroke-width="16" stroke-linecap="round"/>
<path d="M48.311 22.6448C48.311 22.6448 63.011 35.8808 74.504 35.4448C88.904 34.8828 91.375 23.3448 104.722 22.6448C118.692 22.7838 120.122 34.7448 135.261 35.4448C148.828 35.2838 154.576 22.8628 167.508 22.6448C180.44 22.4268 194.227 35.4438 194.227 35.4438" stroke="white" stroke-width="16" stroke-linecap="round"/>
<path d="M99.311 108.645C99.311 108.645 114.011 121.881 125.504 121.445C139.904 120.883 142.375 109.345 155.722 108.645C169.692 108.784 171.122 120.745 186.261 121.445C199.828 121.284 205.576 108.863 218.508 108.645C231.44 108.427 245.227 121.444 245.227 121.444" stroke="white" stroke-width="16" stroke-linecap="round"/>
<path d="M15.311 153.645C15.311 153.645 30.011 166.881 41.504 166.445C55.904 165.883 58.375 154.345 71.722 153.645C85.692 153.784 87.122 165.745 102.261 166.445C115.828 166.284 121.576 153.863 134.508 153.645C147.44 153.427 161.227 166.444 161.227 166.444" stroke="white" stroke-width="16" stroke-linecap="round"/>
<path d="M166 69L159 76" stroke="#CAD1D2" stroke-width="4" stroke-linecap="round"/>
<path d="M159 69L166 76" stroke="#CAD1D2" stroke-width="4" stroke-linecap="round"/>
<path d="M223.02 150L218 155.02" stroke="#42A0F0" stroke-width="4" stroke-linecap="round"/>
<path d="M218 150L223.02 155.02" stroke="#42A0F0" stroke-width="4" stroke-linecap="round"/>
<path d="M8.02 125L3 130.02" stroke="#713FFD" stroke-width="4" stroke-linecap="round"/>
<path d="M3 125L8.02 130.02" stroke="#713FFD" stroke-width="4" stroke-linecap="round"/>
<path d="M20.02 2L15 7.02" stroke="#42A0F0" stroke-width="4" stroke-linecap="round"/>
<path d="M15 2L20.02 7.02" stroke="#42A0F0" stroke-width="4" stroke-linecap="round"/>
<path d="M214.02 7L209 12.02" stroke="#713FFD" stroke-width="4" stroke-linecap="round"/>
<path d="M209 7L214.02 12.02" stroke="#713FFD" stroke-width="4" stroke-linecap="round"/>
</svg>
