<svg width="444" height="459" viewBox="0 0 444 459" fill="none" xmlns="http://www.w3.org/2000/svg">
<g filter="url(#filter0_bdd_108_2047)">
<mask id="path-1-inside-1_108_2047" fill="white">
<path fill-rule="evenodd" clip-rule="evenodd" d="M231.339 38.4557C234.792 37.9443 236.853 42.018 234.943 44.9404C222.004 64.7381 219.781 90.7363 231.373 113.271C246.668 143.007 280.856 156.682 311.736 147.176C315.075 146.149 318.421 149.261 316.97 152.439C309.671 168.424 297.149 182.162 280.311 190.823C240.481 211.311 191.583 195.63 171.096 155.8C150.608 115.97 166.289 67.0725 206.119 46.585C214.254 42.4007 222.767 39.7251 231.339 38.4557Z"/>
</mask>
<path fill-rule="evenodd" clip-rule="evenodd" d="M231.339 38.4557C234.792 37.9443 236.853 42.018 234.943 44.9404C222.004 64.7381 219.781 90.7363 231.373 113.271C246.668 143.007 280.856 156.682 311.736 147.176C315.075 146.149 318.421 149.261 316.97 152.439C309.671 168.424 297.149 182.162 280.311 190.823C240.481 211.311 191.583 195.63 171.096 155.8C150.608 115.97 166.289 67.0725 206.119 46.585C214.254 42.4007 222.767 39.7251 231.339 38.4557Z" fill="url(#paint0_linear_108_2047)"/>
<path d="M311.736 147.176L312.324 149.088L311.736 147.176ZM316.97 152.439L315.15 151.609L316.97 152.439ZM234.943 44.9404L236.617 46.0345L234.943 44.9404ZM231.339 38.4557L231.632 40.4341L231.339 38.4557ZM233.151 112.356C221.902 90.4869 224.056 65.2547 236.617 46.0345L233.269 43.8462C219.953 64.2215 217.66 90.9857 229.594 114.186L233.151 112.356ZM311.148 145.265C281.178 154.49 247.995 141.215 233.151 112.356L229.594 114.186C245.34 144.798 280.534 158.873 312.324 149.088L311.148 145.265ZM315.15 151.609C308.032 167.199 295.821 180.596 279.396 189.045L281.226 192.602C298.477 183.728 311.311 169.648 318.789 153.27L315.15 151.609ZM279.396 189.045C240.548 209.027 192.857 193.733 172.874 154.885L169.317 156.715C190.31 197.527 240.413 213.594 281.226 192.602L279.396 189.045ZM172.874 154.885C152.892 116.037 168.186 68.3457 207.034 48.3635L205.204 44.8065C164.392 65.7992 148.325 115.902 169.317 156.715L172.874 154.885ZM207.034 48.3635C214.971 44.2808 223.274 41.6718 231.632 40.4341L231.046 36.4773C222.26 37.7783 213.537 40.5206 205.204 44.8065L207.034 48.3635ZM312.324 149.088C313.247 148.804 314.168 149.091 314.752 149.662C315.306 150.203 315.478 150.89 315.15 151.609L318.789 153.27C319.912 150.81 319.137 148.353 317.546 146.8C315.986 145.276 313.564 144.521 311.148 145.265L312.324 149.088ZM236.617 46.0345C237.999 43.92 237.945 41.3853 236.915 39.4648C235.864 37.5067 233.719 36.0814 231.046 36.4773L231.632 40.4341C232.412 40.3186 233.024 40.6744 233.39 41.356C233.776 42.075 233.797 43.0384 233.269 43.8462L236.617 46.0345Z" fill="url(#paint1_linear_108_2047)" mask="url(#path-1-inside-1_108_2047)"/>
</g>
<g filter="url(#filter1_bd_108_2047)">
<mask id="path-3-inside-2_108_2047" fill="white">
<path fill-rule="evenodd" clip-rule="evenodd" d="M211.563 251.351C211.683 251.352 211.804 251.353 211.924 251.353C229.087 251.353 243 237.44 243 220.277C243 203.115 229.087 189.202 211.924 189.202C211.804 189.202 211.683 189.202 211.563 189.204V189.202H203.535C203.825 187.075 203.975 184.904 203.975 182.697C203.975 156.355 182.62 135 156.277 135C129.935 135 108.58 156.355 108.58 182.697C108.58 185.183 108.77 187.624 109.136 190.007C106.868 189.48 104.504 189.202 102.076 189.202C84.913 189.202 71 203.115 71 220.277C71 237.44 84.913 251.353 102.076 251.353C102.197 251.353 102.318 251.352 102.439 251.351L102.437 251.353H211.563V251.351Z"/>
</mask>
<path fill-rule="evenodd" clip-rule="evenodd" d="M211.563 251.351C211.683 251.352 211.804 251.353 211.924 251.353C229.087 251.353 243 237.44 243 220.277C243 203.115 229.087 189.202 211.924 189.202C211.804 189.202 211.683 189.202 211.563 189.204V189.202H203.535C203.825 187.075 203.975 184.904 203.975 182.697C203.975 156.355 182.62 135 156.277 135C129.935 135 108.58 156.355 108.58 182.697C108.58 185.183 108.77 187.624 109.136 190.007C106.868 189.48 104.504 189.202 102.076 189.202C84.913 189.202 71 203.115 71 220.277C71 237.44 84.913 251.353 102.076 251.353C102.197 251.353 102.318 251.352 102.439 251.351L102.437 251.353H211.563V251.351Z" fill="url(#paint2_linear_108_2047)" shape-rendering="crispEdges"/>
<path d="M211.563 251.351L211.586 249.351C211.052 249.345 210.537 249.553 210.157 249.929C209.777 250.304 209.563 250.816 209.563 251.351H211.563ZM211.563 189.204H209.563C209.563 189.738 209.777 190.25 210.157 190.626C210.537 191.002 211.051 191.21 211.586 191.204L211.563 189.204ZM211.563 189.202H213.563C213.563 188.097 212.668 187.202 211.563 187.202V189.202ZM203.535 189.202L201.553 188.931C201.475 189.504 201.649 190.082 202.028 190.517C202.408 190.952 202.957 191.202 203.535 191.202V189.202ZM109.136 190.007L108.684 191.955C109.33 192.106 110.009 191.925 110.496 191.474C110.983 191.023 111.214 190.359 111.113 189.703L109.136 190.007ZM102.439 251.351L104.008 252.59C104.486 251.985 104.573 251.16 104.233 250.468C103.893 249.777 103.186 249.342 102.416 249.351L102.439 251.351ZM102.437 251.353L100.867 250.114C100.392 250.715 100.303 251.535 100.637 252.225C100.971 252.915 101.67 253.353 102.437 253.353V251.353ZM211.563 251.353V253.353C212.668 253.353 213.563 252.458 213.563 251.353H211.563ZM211.54 253.351C211.668 253.352 211.796 253.353 211.924 253.353V249.353C211.811 249.353 211.699 249.352 211.586 249.351L211.54 253.351ZM211.924 253.353C230.192 253.353 245 238.544 245 220.277H241C241 236.335 227.982 249.353 211.924 249.353V253.353ZM245 220.277C245 202.01 230.192 187.202 211.924 187.202V191.202C227.982 191.202 241 204.219 241 220.277H245ZM211.924 187.202C211.796 187.202 211.668 187.202 211.54 187.204L211.586 191.204C211.698 191.202 211.811 191.202 211.924 191.202V187.202ZM209.563 189.202V189.204H213.563V189.202H209.563ZM203.535 191.202H211.563V187.202H203.535V191.202ZM205.517 189.472C205.819 187.256 205.975 184.994 205.975 182.697H201.975C201.975 184.813 201.831 186.894 201.553 188.931L205.517 189.472ZM205.975 182.697C205.975 155.25 183.724 133 156.277 133V137C181.515 137 201.975 157.459 201.975 182.697H205.975ZM156.277 133C128.83 133 106.58 155.25 106.58 182.697H110.58C110.58 157.459 131.039 137 156.277 137V133ZM106.58 182.697C106.58 185.285 106.778 187.828 107.16 190.311L111.113 189.703C110.762 187.421 110.58 185.081 110.58 182.697H106.58ZM109.589 188.059C107.173 187.498 104.658 187.202 102.076 187.202V191.202C104.351 191.202 106.563 191.463 108.684 191.955L109.589 188.059ZM102.076 187.202C83.8085 187.202 69 202.01 69 220.277H73C73 204.219 86.0176 191.202 102.076 191.202V187.202ZM69 220.277C69 238.544 83.8085 253.353 102.076 253.353V249.353C86.0176 249.353 73 236.335 73 220.277H69ZM102.076 253.353C102.204 253.353 102.333 253.352 102.461 253.351L102.416 249.351C102.303 249.352 102.189 249.353 102.076 249.353V253.353ZM104.007 252.592L104.008 252.59L100.869 250.112L100.867 250.114L104.007 252.592ZM211.563 249.353H102.437V253.353H211.563V249.353ZM209.563 251.351V251.353H213.563V251.351H209.563Z" fill="url(#paint3_linear_108_2047)" mask="url(#path-3-inside-2_108_2047)"/>
</g>
<g filter="url(#filter2_bd_108_2047)">
<mask id="path-5-inside-3_108_2047" fill="white">
<path fill-rule="evenodd" clip-rule="evenodd" d="M305.5 330.997C305.666 330.999 305.833 331 306 331C329.748 331 349 311.748 349 288C349 264.252 329.748 245 306 245C305.833 245 305.666 245.001 305.5 245.003V245H294.391C294.793 242.057 295 239.053 295 236C295 199.549 265.451 170 229 170C192.549 170 163 199.549 163 236C163 239.439 163.263 242.817 163.77 246.115C160.631 245.386 157.361 245 154 245C130.252 245 111 264.252 111 288C111 311.748 130.252 331 154 331C154.168 331 154.335 330.999 154.502 330.997L154.5 331H305.5V330.997Z"/>
</mask>
<path fill-rule="evenodd" clip-rule="evenodd" d="M305.5 330.997C305.666 330.999 305.833 331 306 331C329.748 331 349 311.748 349 288C349 264.252 329.748 245 306 245C305.833 245 305.666 245.001 305.5 245.003V245H294.391C294.793 242.057 295 239.053 295 236C295 199.549 265.451 170 229 170C192.549 170 163 199.549 163 236C163 239.439 163.263 242.817 163.77 246.115C160.631 245.386 157.361 245 154 245C130.252 245 111 264.252 111 288C111 311.748 130.252 331 154 331C154.168 331 154.335 330.999 154.502 330.997L154.5 331H305.5V330.997Z" fill="url(#paint4_linear_108_2047)" shape-rendering="crispEdges"/>
<path d="M305.5 330.997L305.523 328.997C304.988 328.991 304.474 329.199 304.094 329.575C303.714 329.951 303.5 330.463 303.5 330.997H305.5ZM305.5 245.003H303.5C303.5 245.537 303.714 246.049 304.094 246.425C304.474 246.801 304.988 247.009 305.523 247.003L305.5 245.003ZM305.5 245H307.5C307.5 243.895 306.605 243 305.5 243V245ZM294.391 245L292.41 244.73C292.332 245.302 292.505 245.88 292.885 246.315C293.265 246.75 293.814 247 294.391 247V245ZM163.77 246.115L163.318 248.063C163.964 248.213 164.643 248.033 165.13 247.582C165.617 247.13 165.848 246.467 165.747 245.811L163.77 246.115ZM154.502 330.997L156.072 332.237C156.549 331.632 156.637 330.807 156.297 330.115C155.957 329.423 155.25 328.988 154.479 328.997L154.502 330.997ZM154.5 331L152.931 329.76C152.455 330.362 152.366 331.182 152.7 331.872C153.034 332.562 153.733 333 154.5 333V331ZM305.5 331V333C306.605 333 307.5 332.105 307.5 331H305.5ZM305.477 332.997C305.651 332.999 305.825 333 306 333V329C305.841 329 305.682 328.999 305.523 328.997L305.477 332.997ZM306 333C330.853 333 351 312.853 351 288H347C347 310.644 328.644 329 306 329V333ZM351 288C351 263.147 330.853 243 306 243V247C328.644 247 347 265.356 347 288H351ZM306 243C305.826 243 305.651 243.001 305.477 243.003L305.523 247.003C305.682 247.001 305.841 247 306 247V243ZM303.5 245V245.003H307.5V245H303.5ZM294.391 247H305.5V243H294.391V247ZM296.373 245.27C296.787 242.238 297 239.143 297 236H293C293 238.962 292.799 241.876 292.41 244.73L296.373 245.27ZM297 236C297 198.445 266.555 168 229 168V172C264.346 172 293 200.654 293 236H297ZM229 168C191.445 168 161 198.445 161 236H165C165 200.654 193.654 172 229 172V168ZM161 236C161 239.542 161.271 243.021 161.793 246.419L165.747 245.811C165.255 242.614 165 239.337 165 236H161ZM164.223 244.167C160.937 243.403 157.514 243 154 243V247C157.207 247 160.326 247.368 163.318 248.063L164.223 244.167ZM154 243C129.147 243 109 263.147 109 288H113C113 265.356 131.356 247 154 247V243ZM109 288C109 312.853 129.147 333 154 333V329C131.356 329 113 310.644 113 288H109ZM154 333C154.175 333 154.35 332.999 154.525 332.997L154.479 328.997C154.32 328.999 154.16 329 154 329V333ZM156.069 332.24L156.072 332.237L152.933 329.757L152.931 329.76L156.069 332.24ZM305.5 329H154.5V333H305.5V329ZM303.5 330.997V331H307.5V330.997H303.5Z" fill="url(#paint5_linear_108_2047)" mask="url(#path-5-inside-3_108_2047)"/>
</g>
<g filter="url(#filter3_bd_108_2047)">
<mask id="path-7-inside-4_108_2047" fill="white">
<path fill-rule="evenodd" clip-rule="evenodd" d="M383.563 286.351C383.683 286.352 383.804 286.353 383.924 286.353C401.087 286.353 415 272.44 415 255.277C415 238.115 401.087 224.202 383.924 224.202C383.804 224.202 383.683 224.202 383.563 224.204V224.202H375.535C375.825 222.075 375.975 219.904 375.975 217.697C375.975 191.355 354.62 170 328.277 170C301.935 170 280.58 191.355 280.58 217.697C280.58 220.183 280.77 222.624 281.136 225.007C278.868 224.48 276.504 224.202 274.076 224.202C256.913 224.202 243 238.115 243 255.277C243 272.44 256.913 286.353 274.076 286.353C274.197 286.353 274.318 286.352 274.439 286.351L274.437 286.353H383.563V286.351Z"/>
</mask>
<path fill-rule="evenodd" clip-rule="evenodd" d="M383.563 286.351C383.683 286.352 383.804 286.353 383.924 286.353C401.087 286.353 415 272.44 415 255.277C415 238.115 401.087 224.202 383.924 224.202C383.804 224.202 383.683 224.202 383.563 224.204V224.202H375.535C375.825 222.075 375.975 219.904 375.975 217.697C375.975 191.355 354.62 170 328.277 170C301.935 170 280.58 191.355 280.58 217.697C280.58 220.183 280.77 222.624 281.136 225.007C278.868 224.48 276.504 224.202 274.076 224.202C256.913 224.202 243 238.115 243 255.277C243 272.44 256.913 286.353 274.076 286.353C274.197 286.353 274.318 286.352 274.439 286.351L274.437 286.353H383.563V286.351Z" fill="url(#paint6_linear_108_2047)" shape-rendering="crispEdges"/>
<path d="M383.563 286.351L383.586 284.351C383.052 284.345 382.537 284.553 382.157 284.929C381.777 285.304 381.563 285.816 381.563 286.351H383.563ZM383.563 224.204H381.563C381.563 224.738 381.777 225.25 382.157 225.626C382.537 226.002 383.051 226.21 383.586 226.204L383.563 224.204ZM383.563 224.202H385.563C385.563 223.097 384.668 222.202 383.563 222.202V224.202ZM375.535 224.202L373.553 223.931C373.475 224.504 373.649 225.082 374.028 225.517C374.408 225.952 374.957 226.202 375.535 226.202V224.202ZM281.136 225.007L280.684 226.955C281.33 227.106 282.009 226.925 282.496 226.474C282.983 226.023 283.214 225.359 283.113 224.703L281.136 225.007ZM274.439 286.351L276.008 287.59C276.486 286.985 276.573 286.16 276.233 285.468C275.893 284.777 275.186 284.342 274.416 284.351L274.439 286.351ZM274.437 286.353L272.867 285.114C272.392 285.715 272.303 286.535 272.637 287.225C272.971 287.915 273.67 288.353 274.437 288.353V286.353ZM383.563 286.353V288.353C384.668 288.353 385.563 287.458 385.563 286.353H383.563ZM383.54 288.351C383.668 288.352 383.796 288.353 383.924 288.353V284.353C383.811 284.353 383.699 284.352 383.586 284.351L383.54 288.351ZM383.924 288.353C402.192 288.353 417 273.544 417 255.277H413C413 271.335 399.982 284.353 383.924 284.353V288.353ZM417 255.277C417 237.01 402.192 222.202 383.924 222.202V226.202C399.982 226.202 413 239.219 413 255.277H417ZM383.924 222.202C383.796 222.202 383.668 222.202 383.54 222.204L383.586 226.204C383.698 226.202 383.811 226.202 383.924 226.202V222.202ZM381.563 224.202V224.204H385.563V224.202H381.563ZM375.535 226.202H383.563V222.202H375.535V226.202ZM377.517 224.472C377.819 222.256 377.975 219.994 377.975 217.697H373.975C373.975 219.813 373.831 221.894 373.553 223.931L377.517 224.472ZM377.975 217.697C377.975 190.25 355.724 168 328.277 168V172C353.515 172 373.975 192.459 373.975 217.697H377.975ZM328.277 168C300.83 168 278.58 190.25 278.58 217.697H282.58C282.58 192.459 303.039 172 328.277 172V168ZM278.58 217.697C278.58 220.285 278.778 222.828 279.16 225.311L283.113 224.703C282.762 222.421 282.58 220.081 282.58 217.697H278.58ZM281.589 223.059C279.173 222.498 276.658 222.202 274.076 222.202V226.202C276.351 226.202 278.563 226.463 280.684 226.955L281.589 223.059ZM274.076 222.202C255.808 222.202 241 237.01 241 255.277H245C245 239.219 258.018 226.202 274.076 226.202V222.202ZM241 255.277C241 273.544 255.808 288.353 274.076 288.353V284.353C258.018 284.353 245 271.335 245 255.277H241ZM274.076 288.353C274.204 288.353 274.333 288.352 274.461 288.351L274.416 284.351C274.303 284.352 274.189 284.353 274.076 284.353V288.353ZM276.007 287.592L276.008 287.59L272.869 285.112L272.867 285.114L276.007 287.592ZM383.563 284.353H274.437V288.353H383.563V284.353ZM381.563 286.351V286.353H385.563V286.351H381.563Z" fill="url(#paint7_linear_108_2047)" mask="url(#path-7-inside-4_108_2047)"/>
</g>
<g filter="url(#filter4_bdd_108_2047)">
<path d="M189.682 317.521L190.856 333.955C191.44 342.133 183.64 348.355 175.796 345.969C167.951 343.583 164.938 334.072 169.977 327.604L180.103 314.607C183.123 310.731 189.332 312.62 189.682 317.521Z" fill="url(#paint8_linear_108_2047)" stroke="url(#paint9_linear_108_2047)" stroke-width="3"/>
<path d="M247.19 317.521L248.363 333.955C248.947 342.133 241.148 348.355 233.303 345.969C225.459 343.583 222.445 334.072 227.485 327.604L237.61 314.607C240.63 310.731 246.84 312.62 247.19 317.521Z" fill="url(#paint10_linear_108_2047)" stroke="url(#paint11_linear_108_2047)" stroke-width="3"/>
<path d="M304.697 317.521L305.87 333.955C306.454 342.133 298.655 348.355 290.811 345.969C282.966 343.583 279.953 334.072 284.992 327.604L295.117 314.607C298.137 310.731 304.347 312.62 304.697 317.521Z" fill="url(#paint12_linear_108_2047)" stroke="url(#paint13_linear_108_2047)" stroke-width="3"/>
</g>
<g filter="url(#filter5_bdd_108_2047)">
<path d="M204.856 363.042L206.029 379.475C206.613 387.653 198.814 393.876 190.969 391.49C183.125 389.103 180.111 379.592 185.151 373.124L195.276 360.128C198.296 356.251 204.506 358.14 204.856 363.042Z" fill="url(#paint14_linear_108_2047)" stroke="url(#paint15_linear_108_2047)" stroke-width="3"/>
<path d="M253.443 363.042L254.616 379.475C255.2 387.653 247.401 393.876 239.556 391.49C231.712 389.103 228.698 379.592 233.737 373.124L243.863 360.128C246.883 356.251 253.093 358.14 253.443 363.042Z" fill="url(#paint16_linear_108_2047)" stroke="url(#paint17_linear_108_2047)" stroke-width="3"/>
</g>
<defs>
<filter id="filter0_bdd_108_2047" x="91.0977" y="0.411877" width="264.22" height="264.41" filterUnits="userSpaceOnUse" color-interpolation-filters="sRGB">
<feFlood flood-opacity="0" result="BackgroundImageFix"/>
<feGaussianBlur in="BackgroundImageFix" stdDeviation="7"/>
<feComposite in2="SourceAlpha" operator="in" result="effect1_backgroundBlur_108_2047"/>
<feColorMatrix in="SourceAlpha" type="matrix" values="0 0 0 0 0 0 0 0 0 0 0 0 0 0 0 0 0 0 127 0" result="hardAlpha"/>
<feOffset dx="-21" dy="15"/>
<feGaussianBlur stdDeviation="25"/>
<feComposite in2="hardAlpha" operator="out"/>
<feColorMatrix type="matrix" values="0 0 0 0 0.113438 0 0 0 0 0.148981 0 0 0 0 0.275 0 0 0 0.25 0"/>
<feBlend mode="normal" in2="effect1_backgroundBlur_108_2047" result="effect2_dropShadow_108_2047"/>
<feColorMatrix in="SourceAlpha" type="matrix" values="0 0 0 0 0 0 0 0 0 0 0 0 0 0 0 0 0 0 127 0" result="hardAlpha"/>
<feOffset/>
<feGaussianBlur stdDeviation="19"/>
<feComposite in2="hardAlpha" operator="out"/>
<feColorMatrix type="matrix" values="0 0 0 0 0.619608 0 0 0 0 0.423529 0 0 0 0 1 0 0 0 0.4 0"/>
<feBlend mode="normal" in2="effect2_dropShadow_108_2047" result="effect3_dropShadow_108_2047"/>
<feBlend mode="normal" in="SourceGraphic" in2="effect3_dropShadow_108_2047" result="shape"/>
</filter>
<filter id="filter1_bd_108_2047" x="0" y="100" width="272" height="216.353" filterUnits="userSpaceOnUse" color-interpolation-filters="sRGB">
<feFlood flood-opacity="0" result="BackgroundImageFix"/>
<feGaussianBlur in="BackgroundImageFix" stdDeviation="7"/>
<feComposite in2="SourceAlpha" operator="in" result="effect1_backgroundBlur_108_2047"/>
<feColorMatrix in="SourceAlpha" type="matrix" values="0 0 0 0 0 0 0 0 0 0 0 0 0 0 0 0 0 0 127 0" result="hardAlpha"/>
<feOffset dx="-21" dy="15"/>
<feGaussianBlur stdDeviation="25"/>
<feComposite in2="hardAlpha" operator="out"/>
<feColorMatrix type="matrix" values="0 0 0 0 0.113438 0 0 0 0 0.148981 0 0 0 0 0.275 0 0 0 0.25 0"/>
<feBlend mode="normal" in2="effect1_backgroundBlur_108_2047" result="effect2_dropShadow_108_2047"/>
<feBlend mode="normal" in="SourceGraphic" in2="effect2_dropShadow_108_2047" result="shape"/>
</filter>
<filter id="filter2_bd_108_2047" x="40" y="135" width="338" height="261" filterUnits="userSpaceOnUse" color-interpolation-filters="sRGB">
<feFlood flood-opacity="0" result="BackgroundImageFix"/>
<feGaussianBlur in="BackgroundImageFix" stdDeviation="7"/>
<feComposite in2="SourceAlpha" operator="in" result="effect1_backgroundBlur_108_2047"/>
<feColorMatrix in="SourceAlpha" type="matrix" values="0 0 0 0 0 0 0 0 0 0 0 0 0 0 0 0 0 0 127 0" result="hardAlpha"/>
<feOffset dx="-21" dy="15"/>
<feGaussianBlur stdDeviation="25"/>
<feComposite in2="hardAlpha" operator="out"/>
<feColorMatrix type="matrix" values="0 0 0 0 0.113725 0 0 0 0 0.14902 0 0 0 0 0.27451 0 0 0 0.25 0"/>
<feBlend mode="normal" in2="effect1_backgroundBlur_108_2047" result="effect2_dropShadow_108_2047"/>
<feBlend mode="normal" in="SourceGraphic" in2="effect2_dropShadow_108_2047" result="shape"/>
</filter>
<filter id="filter3_bd_108_2047" x="172" y="135" width="272" height="216.353" filterUnits="userSpaceOnUse" color-interpolation-filters="sRGB">
<feFlood flood-opacity="0" result="BackgroundImageFix"/>
<feGaussianBlur in="BackgroundImageFix" stdDeviation="7"/>
<feComposite in2="SourceAlpha" operator="in" result="effect1_backgroundBlur_108_2047"/>
<feColorMatrix in="SourceAlpha" type="matrix" values="0 0 0 0 0 0 0 0 0 0 0 0 0 0 0 0 0 0 127 0" result="hardAlpha"/>
<feOffset dx="-21" dy="15"/>
<feGaussianBlur stdDeviation="25"/>
<feComposite in2="hardAlpha" operator="out"/>
<feColorMatrix type="matrix" values="0 0 0 0 0.113438 0 0 0 0 0.148981 0 0 0 0 0.275 0 0 0 0.25 0"/>
<feBlend mode="normal" in2="effect1_backgroundBlur_108_2047" result="effect2_dropShadow_108_2047"/>
<feBlend mode="normal" in="SourceGraphic" in2="effect2_dropShadow_108_2047" result="shape"/>
</filter>
<filter id="filter4_bdd_108_2047" x="95.002" y="263.031" width="253.399" height="149.955" filterUnits="userSpaceOnUse" color-interpolation-filters="sRGB">
<feFlood flood-opacity="0" result="BackgroundImageFix"/>
<feGaussianBlur in="BackgroundImageFix" stdDeviation="7"/>
<feComposite in2="SourceAlpha" operator="in" result="effect1_backgroundBlur_108_2047"/>
<feColorMatrix in="SourceAlpha" type="matrix" values="0 0 0 0 0 0 0 0 0 0 0 0 0 0 0 0 0 0 127 0" result="hardAlpha"/>
<feOffset dx="-21" dy="15"/>
<feGaussianBlur stdDeviation="25"/>
<feComposite in2="hardAlpha" operator="out"/>
<feColorMatrix type="matrix" values="0 0 0 0 0.113438 0 0 0 0 0.148981 0 0 0 0 0.275 0 0 0 0.25 0"/>
<feBlend mode="normal" in2="effect1_backgroundBlur_108_2047" result="effect2_dropShadow_108_2047"/>
<feColorMatrix in="SourceAlpha" type="matrix" values="0 0 0 0 0 0 0 0 0 0 0 0 0 0 0 0 0 0 127 0" result="hardAlpha"/>
<feOffset dy="-7"/>
<feGaussianBlur stdDeviation="20.5"/>
<feComposite in2="hardAlpha" operator="out"/>
<feColorMatrix type="matrix" values="0 0 0 0 0.1375 0 0 0 0 0.74125 0 0 0 0 1 0 0 0 0.3 0"/>
<feBlend mode="normal" in2="effect2_dropShadow_108_2047" result="effect3_dropShadow_108_2047"/>
<feBlend mode="normal" in="SourceGraphic" in2="effect3_dropShadow_108_2047" result="shape"/>
</filter>
<filter id="filter5_bdd_108_2047" x="110.175" y="308.551" width="186.972" height="149.955" filterUnits="userSpaceOnUse" color-interpolation-filters="sRGB">
<feFlood flood-opacity="0" result="BackgroundImageFix"/>
<feGaussianBlur in="BackgroundImageFix" stdDeviation="7"/>
<feComposite in2="SourceAlpha" operator="in" result="effect1_backgroundBlur_108_2047"/>
<feColorMatrix in="SourceAlpha" type="matrix" values="0 0 0 0 0 0 0 0 0 0 0 0 0 0 0 0 0 0 127 0" result="hardAlpha"/>
<feOffset dx="-21" dy="15"/>
<feGaussianBlur stdDeviation="25"/>
<feComposite in2="hardAlpha" operator="out"/>
<feColorMatrix type="matrix" values="0 0 0 0 0.113438 0 0 0 0 0.148981 0 0 0 0 0.275 0 0 0 0.25 0"/>
<feBlend mode="normal" in2="effect1_backgroundBlur_108_2047" result="effect2_dropShadow_108_2047"/>
<feColorMatrix in="SourceAlpha" type="matrix" values="0 0 0 0 0 0 0 0 0 0 0 0 0 0 0 0 0 0 127 0" result="hardAlpha"/>
<feOffset dy="-7"/>
<feGaussianBlur stdDeviation="20.5"/>
<feComposite in2="hardAlpha" operator="out"/>
<feColorMatrix type="matrix" values="0 0 0 0 0.1375 0 0 0 0 0.74125 0 0 0 0 1 0 0 0 0.3 0"/>
<feBlend mode="normal" in2="effect2_dropShadow_108_2047" result="effect3_dropShadow_108_2047"/>
<feBlend mode="normal" in="SourceGraphic" in2="effect3_dropShadow_108_2047" result="shape"/>
</filter>
<linearGradient id="paint0_linear_108_2047" x1="190.961" y1="55.9887" x2="265.152" y2="200.227" gradientUnits="userSpaceOnUse">
<stop offset="0.0001" stop-color="#D4C0FF"/>
<stop offset="1" stop-color="#7E2FFF"/>
</linearGradient>
<linearGradient id="paint1_linear_108_2047" x1="199.038" y1="-23.3229" x2="245.183" y2="165.979" gradientUnits="userSpaceOnUse">
<stop stop-color="white"/>
<stop offset="1" stop-color="white" stop-opacity="0"/>
</linearGradient>
<linearGradient id="paint2_linear_108_2047" x1="165" y1="138.5" x2="165" y2="264.5" gradientUnits="userSpaceOnUse">
<stop stop-color="white"/>
<stop offset="1" stop-color="white" stop-opacity="0"/>
</linearGradient>
<linearGradient id="paint3_linear_108_2047" x1="157" y1="135" x2="157" y2="251.353" gradientUnits="userSpaceOnUse">
<stop stop-color="white"/>
<stop offset="1" stop-color="white" stop-opacity="0"/>
</linearGradient>
<linearGradient id="paint4_linear_108_2047" x1="230" y1="118.5" x2="230" y2="353.5" gradientUnits="userSpaceOnUse">
<stop stop-color="white"/>
<stop offset="1" stop-color="white" stop-opacity="0"/>
</linearGradient>
<linearGradient id="paint5_linear_108_2047" x1="230" y1="170" x2="230" y2="331" gradientUnits="userSpaceOnUse">
<stop stop-color="white"/>
<stop offset="1" stop-color="white" stop-opacity="0"/>
</linearGradient>
<linearGradient id="paint6_linear_108_2047" x1="337" y1="173.5" x2="337" y2="299.5" gradientUnits="userSpaceOnUse">
<stop stop-color="white"/>
<stop offset="1" stop-color="white" stop-opacity="0"/>
</linearGradient>
<linearGradient id="paint7_linear_108_2047" x1="329" y1="170" x2="329" y2="286.353" gradientUnits="userSpaceOnUse">
<stop stop-color="white"/>
<stop offset="1" stop-color="white" stop-opacity="0"/>
</linearGradient>
<linearGradient id="paint8_linear_108_2047" x1="189.905" y1="299.585" x2="175.359" y2="347.404" gradientUnits="userSpaceOnUse">
<stop stop-color="#138EFF"/>
<stop offset="1" stop-color="#00E0FF"/>
</linearGradient>
<linearGradient id="paint9_linear_108_2047" x1="189.905" y1="299.585" x2="175.359" y2="347.404" gradientUnits="userSpaceOnUse">
<stop stop-color="white"/>
<stop offset="1" stop-color="white" stop-opacity="0"/>
</linearGradient>
<linearGradient id="paint10_linear_108_2047" x1="247.413" y1="299.585" x2="232.867" y2="347.404" gradientUnits="userSpaceOnUse">
<stop stop-color="#138EFF"/>
<stop offset="1" stop-color="#00E0FF"/>
</linearGradient>
<linearGradient id="paint11_linear_108_2047" x1="247.413" y1="299.585" x2="232.867" y2="347.404" gradientUnits="userSpaceOnUse">
<stop stop-color="white"/>
<stop offset="1" stop-color="white" stop-opacity="0"/>
</linearGradient>
<linearGradient id="paint12_linear_108_2047" x1="304.92" y1="299.585" x2="290.374" y2="347.404" gradientUnits="userSpaceOnUse">
<stop stop-color="#138EFF"/>
<stop offset="1" stop-color="#00E0FF"/>
</linearGradient>
<linearGradient id="paint13_linear_108_2047" x1="304.92" y1="299.585" x2="290.374" y2="347.404" gradientUnits="userSpaceOnUse">
<stop stop-color="white"/>
<stop offset="1" stop-color="white" stop-opacity="0"/>
</linearGradient>
<linearGradient id="paint14_linear_108_2047" x1="205.079" y1="345.105" x2="190.533" y2="392.925" gradientUnits="userSpaceOnUse">
<stop stop-color="#138EFF"/>
<stop offset="1" stop-color="#00E0FF"/>
</linearGradient>
<linearGradient id="paint15_linear_108_2047" x1="205.079" y1="345.105" x2="190.533" y2="392.925" gradientUnits="userSpaceOnUse">
<stop stop-color="white"/>
<stop offset="1" stop-color="white" stop-opacity="0"/>
</linearGradient>
<linearGradient id="paint16_linear_108_2047" x1="253.666" y1="345.105" x2="239.12" y2="392.925" gradientUnits="userSpaceOnUse">
<stop stop-color="#138EFF"/>
<stop offset="1" stop-color="#00E0FF"/>
</linearGradient>
<linearGradient id="paint17_linear_108_2047" x1="253.666" y1="345.105" x2="239.12" y2="392.925" gradientUnits="userSpaceOnUse">
<stop stop-color="white"/>
<stop offset="1" stop-color="white" stop-opacity="0"/>
</linearGradient>
</defs>
</svg>
