<svg width="444" height="421" viewBox="0 0 444 421" fill="none" xmlns="http://www.w3.org/2000/svg">
<g filter="url(#filter0_f_104_1421)">
<circle cx="262.62" cy="176.62" r="76.6203" fill="#FFC701" fill-opacity="0.35"/>
</g>
<circle cx="262.62" cy="179.132" r="73.1083" fill="url(#paint0_linear_104_1421)" stroke="url(#paint1_linear_104_1421)" stroke-width="2"/>
<mask id="mask0_104_1421" style="mask-type:alpha" maskUnits="userSpaceOnUse" x="188" y="146" width="149" height="108">
<path d="M336.729 179.133C336.729 220.061 303.549 253.241 262.62 253.241C221.691 253.241 188.512 220.061 188.512 179.133C188.512 138.204 216.039 147.731 256.968 147.731C297.897 147.731 336.729 138.204 336.729 179.133Z" fill="url(#paint2_linear_104_1421)"/>
</mask>
<g mask="url(#mask0_104_1421)">
<g filter="url(#filter1_f_104_1421)">
<path fill-rule="evenodd" clip-rule="evenodd" d="M375.667 314.788C375.667 344.618 351.485 368.799 321.656 368.799C321.446 368.799 321.237 368.798 321.028 368.796V368.799H131.361L131.363 368.796C131.153 368.799 130.943 368.8 130.733 368.8C100.903 368.8 76.7217 344.618 76.7217 314.789C76.7217 284.959 100.903 260.778 130.733 260.778C156.445 260.778 177.961 278.744 183.41 302.808L201.701 279.618L258.852 260.777H321.028V260.781C321.237 260.778 321.446 260.777 321.656 260.777C351.485 260.777 375.667 284.959 375.667 314.788Z" fill="#E18700"/>
</g>
</g>
<g filter="url(#filter2_bd_104_1421)">
<mask id="path-5-inside-1_104_1421" fill="white">
<path fill-rule="evenodd" clip-rule="evenodd" d="M211.563 276.351C211.683 276.352 211.804 276.353 211.924 276.353C229.087 276.353 243 262.44 243 245.277C243 228.115 229.087 214.202 211.924 214.202C211.804 214.202 211.683 214.202 211.563 214.204V214.202H203.535C203.825 212.075 203.975 209.904 203.975 207.697C203.975 181.355 182.62 160 156.277 160C129.935 160 108.58 181.355 108.58 207.697C108.58 210.183 108.77 212.624 109.136 215.007C106.868 214.48 104.504 214.202 102.076 214.202C84.913 214.202 71 228.115 71 245.277C71 262.44 84.913 276.353 102.076 276.353C102.197 276.353 102.318 276.352 102.439 276.351L102.437 276.353H211.563V276.351Z"/>
</mask>
<path fill-rule="evenodd" clip-rule="evenodd" d="M211.563 276.351C211.683 276.352 211.804 276.353 211.924 276.353C229.087 276.353 243 262.44 243 245.277C243 228.115 229.087 214.202 211.924 214.202C211.804 214.202 211.683 214.202 211.563 214.204V214.202H203.535C203.825 212.075 203.975 209.904 203.975 207.697C203.975 181.355 182.62 160 156.277 160C129.935 160 108.58 181.355 108.58 207.697C108.58 210.183 108.77 212.624 109.136 215.007C106.868 214.48 104.504 214.202 102.076 214.202C84.913 214.202 71 228.115 71 245.277C71 262.44 84.913 276.353 102.076 276.353C102.197 276.353 102.318 276.352 102.439 276.351L102.437 276.353H211.563V276.351Z" fill="url(#paint3_linear_104_1421)" shape-rendering="crispEdges"/>
<path d="M211.563 276.351L211.586 274.351C211.052 274.345 210.537 274.553 210.157 274.929C209.777 275.304 209.563 275.816 209.563 276.351H211.563ZM211.563 214.204H209.563C209.563 214.738 209.777 215.25 210.157 215.626C210.537 216.002 211.051 216.21 211.586 216.204L211.563 214.204ZM211.563 214.202H213.563C213.563 213.097 212.668 212.202 211.563 212.202V214.202ZM203.535 214.202L201.553 213.931C201.475 214.504 201.649 215.082 202.028 215.517C202.408 215.952 202.957 216.202 203.535 216.202V214.202ZM109.136 215.007L108.684 216.955C109.33 217.106 110.009 216.925 110.496 216.474C110.983 216.023 111.214 215.359 111.113 214.703L109.136 215.007ZM102.439 276.351L104.008 277.59C104.486 276.985 104.573 276.16 104.233 275.468C103.893 274.777 103.186 274.342 102.416 274.351L102.439 276.351ZM102.437 276.353L100.867 275.114C100.392 275.715 100.303 276.535 100.637 277.225C100.971 277.915 101.67 278.353 102.437 278.353V276.353ZM211.563 276.353V278.353C212.668 278.353 213.563 277.458 213.563 276.353H211.563ZM211.54 278.351C211.668 278.352 211.796 278.353 211.924 278.353V274.353C211.811 274.353 211.699 274.352 211.586 274.351L211.54 278.351ZM211.924 278.353C230.192 278.353 245 263.544 245 245.277H241C241 261.335 227.982 274.353 211.924 274.353V278.353ZM245 245.277C245 227.01 230.192 212.202 211.924 212.202V216.202C227.982 216.202 241 229.219 241 245.277H245ZM211.924 212.202C211.796 212.202 211.668 212.202 211.54 212.204L211.586 216.204C211.699 216.202 211.811 216.202 211.924 216.202V212.202ZM209.563 214.202V214.204H213.563V214.202H209.563ZM203.535 216.202H211.563V212.202H203.535V216.202ZM205.517 214.472C205.819 212.256 205.975 209.994 205.975 207.697H201.975C201.975 209.813 201.831 211.894 201.553 213.931L205.517 214.472ZM205.975 207.697C205.975 180.25 183.724 158 156.277 158V162C181.515 162 201.975 182.459 201.975 207.697H205.975ZM156.277 158C128.83 158 106.58 180.25 106.58 207.697H110.58C110.58 182.459 131.039 162 156.277 162V158ZM106.58 207.697C106.58 210.285 106.778 212.828 107.16 215.311L111.113 214.703C110.762 212.421 110.58 210.081 110.58 207.697H106.58ZM109.589 213.059C107.173 212.498 104.658 212.202 102.076 212.202V216.202C104.351 216.202 106.563 216.463 108.684 216.955L109.589 213.059ZM102.076 212.202C83.8085 212.202 69 227.01 69 245.277H73C73 229.219 86.0176 216.202 102.076 216.202V212.202ZM69 245.277C69 263.544 83.8085 278.353 102.076 278.353V274.353C86.0176 274.353 73 261.335 73 245.277H69ZM102.076 278.353C102.204 278.353 102.333 278.352 102.461 278.351L102.416 274.351C102.303 274.352 102.189 274.353 102.076 274.353V278.353ZM104.007 277.592L104.008 277.59L100.869 275.112L100.867 275.114L104.007 277.592ZM211.563 274.353H102.437V278.353H211.563V274.353ZM209.563 276.351V276.353H213.563V276.351H209.563Z" fill="url(#paint4_linear_104_1421)" mask="url(#path-5-inside-1_104_1421)"/>
</g>
<g filter="url(#filter3_bd_104_1421)">
<mask id="path-7-inside-2_104_1421" fill="white">
<path fill-rule="evenodd" clip-rule="evenodd" d="M305.5 355.997C305.666 355.999 305.833 356 306 356C329.748 356 349 336.748 349 313C349 289.252 329.748 270 306 270C305.833 270 305.666 270.001 305.5 270.003V270H294.391C294.793 267.057 295 264.053 295 261C295 224.549 265.451 195 229 195C192.549 195 163 224.549 163 261C163 264.439 163.263 267.817 163.77 271.115C160.631 270.386 157.361 270 154 270C130.252 270 111 289.252 111 313C111 336.748 130.252 356 154 356C154.168 356 154.335 355.999 154.502 355.997L154.5 356H305.5V355.997Z"/>
</mask>
<path fill-rule="evenodd" clip-rule="evenodd" d="M305.5 355.997C305.666 355.999 305.833 356 306 356C329.748 356 349 336.748 349 313C349 289.252 329.748 270 306 270C305.833 270 305.666 270.001 305.5 270.003V270H294.391C294.793 267.057 295 264.053 295 261C295 224.549 265.451 195 229 195C192.549 195 163 224.549 163 261C163 264.439 163.263 267.817 163.77 271.115C160.631 270.386 157.361 270 154 270C130.252 270 111 289.252 111 313C111 336.748 130.252 356 154 356C154.168 356 154.335 355.999 154.502 355.997L154.5 356H305.5V355.997Z" fill="url(#paint5_linear_104_1421)" shape-rendering="crispEdges"/>
<path d="M305.5 355.997L305.523 353.997C304.988 353.991 304.474 354.199 304.094 354.575C303.714 354.951 303.5 355.463 303.5 355.997H305.5ZM305.5 270.003H303.5C303.5 270.537 303.714 271.049 304.094 271.425C304.474 271.801 304.988 272.009 305.523 272.003L305.5 270.003ZM305.5 270H307.5C307.5 268.895 306.605 268 305.5 268V270ZM294.391 270L292.41 269.73C292.332 270.302 292.505 270.88 292.885 271.315C293.265 271.75 293.814 272 294.391 272V270ZM163.77 271.115L163.318 273.063C163.964 273.213 164.643 273.033 165.13 272.582C165.617 272.13 165.848 271.467 165.747 270.811L163.77 271.115ZM154.502 355.997L156.072 357.237C156.549 356.632 156.637 355.807 156.297 355.115C155.957 354.423 155.25 353.988 154.479 353.997L154.502 355.997ZM154.5 356L152.931 354.76C152.455 355.362 152.366 356.182 152.7 356.872C153.034 357.562 153.733 358 154.5 358V356ZM305.5 356V358C306.605 358 307.5 357.105 307.5 356H305.5ZM305.477 357.997C305.651 357.999 305.825 358 306 358V354C305.841 354 305.682 353.999 305.523 353.997L305.477 357.997ZM306 358C330.853 358 351 337.853 351 313H347C347 335.644 328.644 354 306 354V358ZM351 313C351 288.147 330.853 268 306 268V272C328.644 272 347 290.356 347 313H351ZM306 268C305.826 268 305.651 268.001 305.477 268.003L305.523 272.003C305.682 272.001 305.841 272 306 272V268ZM303.5 270V270.003H307.5V270H303.5ZM294.391 272H305.5V268H294.391V272ZM296.373 270.27C296.787 267.238 297 264.143 297 261H293C293 263.962 292.799 266.876 292.41 269.73L296.373 270.27ZM297 261C297 223.445 266.555 193 229 193V197C264.346 197 293 225.654 293 261H297ZM229 193C191.445 193 161 223.445 161 261H165C165 225.654 193.654 197 229 197V193ZM161 261C161 264.542 161.271 268.021 161.793 271.419L165.747 270.811C165.255 267.614 165 264.337 165 261H161ZM164.223 269.167C160.937 268.403 157.514 268 154 268V272C157.207 272 160.326 272.368 163.318 273.063L164.223 269.167ZM154 268C129.147 268 109 288.147 109 313H113C113 290.356 131.356 272 154 272V268ZM109 313C109 337.853 129.147 358 154 358V354C131.356 354 113 335.644 113 313H109ZM154 358C154.175 358 154.35 357.999 154.525 357.997L154.479 353.997C154.32 353.999 154.16 354 154 354V358ZM156.069 357.24L156.072 357.237L152.933 354.757L152.931 354.76L156.069 357.24ZM305.5 354H154.5V358H305.5V354ZM303.5 355.997V356H307.5V355.997H303.5Z" fill="url(#paint6_linear_104_1421)" mask="url(#path-7-inside-2_104_1421)"/>
</g>
<g filter="url(#filter4_bd_104_1421)">
<mask id="path-9-inside-3_104_1421" fill="white">
<path fill-rule="evenodd" clip-rule="evenodd" d="M383.563 311.351C383.683 311.352 383.804 311.353 383.924 311.353C401.087 311.353 415 297.44 415 280.277C415 263.115 401.087 249.202 383.924 249.202C383.804 249.202 383.683 249.202 383.563 249.204V249.202H375.535C375.825 247.075 375.975 244.904 375.975 242.697C375.975 216.355 354.62 195 328.277 195C301.935 195 280.58 216.355 280.58 242.697C280.58 245.183 280.77 247.624 281.136 250.007C278.868 249.48 276.504 249.202 274.076 249.202C256.913 249.202 243 263.115 243 280.277C243 297.44 256.913 311.353 274.076 311.353C274.197 311.353 274.318 311.352 274.439 311.351L274.437 311.353H383.563V311.351Z"/>
</mask>
<path fill-rule="evenodd" clip-rule="evenodd" d="M383.563 311.351C383.683 311.352 383.804 311.353 383.924 311.353C401.087 311.353 415 297.44 415 280.277C415 263.115 401.087 249.202 383.924 249.202C383.804 249.202 383.683 249.202 383.563 249.204V249.202H375.535C375.825 247.075 375.975 244.904 375.975 242.697C375.975 216.355 354.62 195 328.277 195C301.935 195 280.58 216.355 280.58 242.697C280.58 245.183 280.77 247.624 281.136 250.007C278.868 249.48 276.504 249.202 274.076 249.202C256.913 249.202 243 263.115 243 280.277C243 297.44 256.913 311.353 274.076 311.353C274.197 311.353 274.318 311.352 274.439 311.351L274.437 311.353H383.563V311.351Z" fill="url(#paint7_linear_104_1421)" shape-rendering="crispEdges"/>
<path d="M383.563 311.351L383.586 309.351C383.052 309.345 382.537 309.553 382.157 309.929C381.777 310.304 381.563 310.816 381.563 311.351H383.563ZM383.563 249.204H381.563C381.563 249.738 381.777 250.25 382.157 250.626C382.537 251.002 383.051 251.21 383.586 251.204L383.563 249.204ZM383.563 249.202H385.563C385.563 248.097 384.668 247.202 383.563 247.202V249.202ZM375.535 249.202L373.553 248.931C373.475 249.504 373.649 250.082 374.028 250.517C374.408 250.952 374.957 251.202 375.535 251.202V249.202ZM281.136 250.007L280.684 251.955C281.33 252.106 282.009 251.925 282.496 251.474C282.983 251.023 283.214 250.359 283.113 249.703L281.136 250.007ZM274.439 311.351L276.008 312.59C276.486 311.985 276.573 311.16 276.233 310.468C275.893 309.777 275.186 309.342 274.416 309.351L274.439 311.351ZM274.437 311.353L272.867 310.114C272.392 310.715 272.303 311.535 272.637 312.225C272.971 312.915 273.67 313.353 274.437 313.353V311.353ZM383.563 311.353V313.353C384.668 313.353 385.563 312.458 385.563 311.353H383.563ZM383.54 313.351C383.668 313.352 383.796 313.353 383.924 313.353V309.353C383.811 309.353 383.699 309.352 383.586 309.351L383.54 313.351ZM383.924 313.353C402.192 313.353 417 298.544 417 280.277H413C413 296.335 399.982 309.353 383.924 309.353V313.353ZM417 280.277C417 262.01 402.192 247.202 383.924 247.202V251.202C399.982 251.202 413 264.219 413 280.277H417ZM383.924 247.202C383.796 247.202 383.668 247.202 383.54 247.204L383.586 251.204C383.699 251.202 383.811 251.202 383.924 251.202V247.202ZM381.563 249.202V249.204H385.563V249.202H381.563ZM375.535 251.202H383.563V247.202H375.535V251.202ZM377.517 249.472C377.819 247.256 377.975 244.994 377.975 242.697H373.975C373.975 244.813 373.831 246.894 373.553 248.931L377.517 249.472ZM377.975 242.697C377.975 215.25 355.724 193 328.277 193V197C353.515 197 373.975 217.459 373.975 242.697H377.975ZM328.277 193C300.83 193 278.58 215.25 278.58 242.697H282.58C282.58 217.459 303.039 197 328.277 197V193ZM278.58 242.697C278.58 245.285 278.778 247.828 279.16 250.311L283.113 249.703C282.762 247.421 282.58 245.081 282.58 242.697H278.58ZM281.589 248.059C279.173 247.498 276.658 247.202 274.076 247.202V251.202C276.351 251.202 278.563 251.463 280.684 251.955L281.589 248.059ZM274.076 247.202C255.808 247.202 241 262.01 241 280.277H245C245 264.219 258.018 251.202 274.076 251.202V247.202ZM241 280.277C241 298.544 255.808 313.353 274.076 313.353V309.353C258.018 309.353 245 296.335 245 280.277H241ZM274.076 313.353C274.204 313.353 274.333 313.352 274.461 313.351L274.416 309.351C274.303 309.352 274.189 309.353 274.076 309.353V313.353ZM276.007 312.592L276.008 312.59L272.869 310.112L272.867 310.114L276.007 312.592ZM383.563 309.353H274.437V313.353H383.563V309.353ZM381.563 311.351V311.353H385.563V311.351H381.563Z" fill="url(#paint8_linear_104_1421)" mask="url(#path-9-inside-3_104_1421)"/>
</g>
<defs>
<filter id="filter0_f_104_1421" x="86" y="0" width="353.241" height="353.241" filterUnits="userSpaceOnUse" color-interpolation-filters="sRGB">
<feFlood flood-opacity="0" result="BackgroundImageFix"/>
<feBlend mode="normal" in="SourceGraphic" in2="BackgroundImageFix" result="shape"/>
<feGaussianBlur stdDeviation="50" result="effect1_foregroundBlur_104_1421"/>
</filter>
<filter id="filter1_f_104_1421" x="62.7217" y="246.777" width="326.945" height="136.023" filterUnits="userSpaceOnUse" color-interpolation-filters="sRGB">
<feFlood flood-opacity="0" result="BackgroundImageFix"/>
<feBlend mode="normal" in="SourceGraphic" in2="BackgroundImageFix" result="shape"/>
<feGaussianBlur stdDeviation="7" result="effect1_foregroundBlur_104_1421"/>
</filter>
<filter id="filter2_bd_104_1421" x="0" y="125" width="272" height="216.353" filterUnits="userSpaceOnUse" color-interpolation-filters="sRGB">
<feFlood flood-opacity="0" result="BackgroundImageFix"/>
<feGaussianBlur in="BackgroundImageFix" stdDeviation="7"/>
<feComposite in2="SourceAlpha" operator="in" result="effect1_backgroundBlur_104_1421"/>
<feColorMatrix in="SourceAlpha" type="matrix" values="0 0 0 0 0 0 0 0 0 0 0 0 0 0 0 0 0 0 127 0" result="hardAlpha"/>
<feOffset dx="-21" dy="15"/>
<feGaussianBlur stdDeviation="25"/>
<feComposite in2="hardAlpha" operator="out"/>
<feColorMatrix type="matrix" values="0 0 0 0 0.113438 0 0 0 0 0.148981 0 0 0 0 0.275 0 0 0 0.25 0"/>
<feBlend mode="normal" in2="effect1_backgroundBlur_104_1421" result="effect2_dropShadow_104_1421"/>
<feBlend mode="normal" in="SourceGraphic" in2="effect2_dropShadow_104_1421" result="shape"/>
</filter>
<filter id="filter3_bd_104_1421" x="40" y="160" width="338" height="261" filterUnits="userSpaceOnUse" color-interpolation-filters="sRGB">
<feFlood flood-opacity="0" result="BackgroundImageFix"/>
<feGaussianBlur in="BackgroundImageFix" stdDeviation="7"/>
<feComposite in2="SourceAlpha" operator="in" result="effect1_backgroundBlur_104_1421"/>
<feColorMatrix in="SourceAlpha" type="matrix" values="0 0 0 0 0 0 0 0 0 0 0 0 0 0 0 0 0 0 127 0" result="hardAlpha"/>
<feOffset dx="-21" dy="15"/>
<feGaussianBlur stdDeviation="25"/>
<feComposite in2="hardAlpha" operator="out"/>
<feColorMatrix type="matrix" values="0 0 0 0 0.113725 0 0 0 0 0.14902 0 0 0 0 0.27451 0 0 0 0.25 0"/>
<feBlend mode="normal" in2="effect1_backgroundBlur_104_1421" result="effect2_dropShadow_104_1421"/>
<feBlend mode="normal" in="SourceGraphic" in2="effect2_dropShadow_104_1421" result="shape"/>
</filter>
<filter id="filter4_bd_104_1421" x="172" y="160" width="272" height="216.353" filterUnits="userSpaceOnUse" color-interpolation-filters="sRGB">
<feFlood flood-opacity="0" result="BackgroundImageFix"/>
<feGaussianBlur in="BackgroundImageFix" stdDeviation="7"/>
<feComposite in2="SourceAlpha" operator="in" result="effect1_backgroundBlur_104_1421"/>
<feColorMatrix in="SourceAlpha" type="matrix" values="0 0 0 0 0 0 0 0 0 0 0 0 0 0 0 0 0 0 127 0" result="hardAlpha"/>
<feOffset dx="-21" dy="15"/>
<feGaussianBlur stdDeviation="25"/>
<feComposite in2="hardAlpha" operator="out"/>
<feColorMatrix type="matrix" values="0 0 0 0 0.113438 0 0 0 0 0.148981 0 0 0 0 0.275 0 0 0 0.25 0"/>
<feBlend mode="normal" in2="effect1_backgroundBlur_104_1421" result="effect2_dropShadow_104_1421"/>
<feBlend mode="normal" in="SourceGraphic" in2="effect2_dropShadow_104_1421" result="shape"/>
</filter>
<linearGradient id="paint0_linear_104_1421" x1="262.62" y1="105.024" x2="262.62" y2="253.241" gradientUnits="userSpaceOnUse">
<stop stop-color="#FFE600"/>
<stop offset="1" stop-color="#FF7A00"/>
</linearGradient>
<linearGradient id="paint1_linear_104_1421" x1="262.62" y1="105.024" x2="262.62" y2="253.241" gradientUnits="userSpaceOnUse">
<stop stop-color="white"/>
<stop offset="1" stop-color="white" stop-opacity="0"/>
</linearGradient>
<linearGradient id="paint2_linear_104_1421" x1="262.62" y1="105.024" x2="262.62" y2="253.241" gradientUnits="userSpaceOnUse">
<stop stop-color="#FFD600"/>
<stop offset="1" stop-color="#FF7A00"/>
</linearGradient>
<linearGradient id="paint3_linear_104_1421" x1="165" y1="163.5" x2="165" y2="289.5" gradientUnits="userSpaceOnUse">
<stop stop-color="white"/>
<stop offset="1" stop-color="white" stop-opacity="0"/>
</linearGradient>
<linearGradient id="paint4_linear_104_1421" x1="157" y1="160" x2="157" y2="276.353" gradientUnits="userSpaceOnUse">
<stop stop-color="white"/>
<stop offset="1" stop-color="white" stop-opacity="0"/>
</linearGradient>
<linearGradient id="paint5_linear_104_1421" x1="230" y1="143.5" x2="230" y2="378.5" gradientUnits="userSpaceOnUse">
<stop stop-color="white"/>
<stop offset="1" stop-color="white" stop-opacity="0"/>
</linearGradient>
<linearGradient id="paint6_linear_104_1421" x1="230" y1="195" x2="230" y2="356" gradientUnits="userSpaceOnUse">
<stop stop-color="white"/>
<stop offset="1" stop-color="white" stop-opacity="0"/>
</linearGradient>
<linearGradient id="paint7_linear_104_1421" x1="337" y1="198.5" x2="337" y2="324.5" gradientUnits="userSpaceOnUse">
<stop stop-color="white"/>
<stop offset="1" stop-color="white" stop-opacity="0"/>
</linearGradient>
<linearGradient id="paint8_linear_104_1421" x1="329" y1="195" x2="329" y2="311.353" gradientUnits="userSpaceOnUse">
<stop stop-color="white"/>
<stop offset="1" stop-color="white" stop-opacity="0"/>
</linearGradient>
</defs>
</svg>
