<svg width="444" height="493" viewBox="0 0 444 493" fill="none" xmlns="http://www.w3.org/2000/svg">
<g filter="url(#filter0_bdd_108_2067)">
<mask id="path-1-inside-1_108_2067" fill="white">
<path fill-rule="evenodd" clip-rule="evenodd" d="M217.339 38.4558C220.792 37.9443 222.853 42.0181 220.943 44.9404C208.004 64.7381 205.781 90.7363 217.373 113.271C232.668 143.007 266.856 156.682 297.736 147.177C301.075 146.149 304.421 149.261 302.97 152.44C295.671 168.424 283.149 182.162 266.311 190.823C226.481 211.311 177.583 195.63 157.096 155.8C136.608 115.97 152.289 67.0725 192.119 46.585C200.254 42.4008 208.767 39.7251 217.339 38.4558Z"/>
</mask>
<path fill-rule="evenodd" clip-rule="evenodd" d="M217.339 38.4558C220.792 37.9443 222.853 42.0181 220.943 44.9404C208.004 64.7381 205.781 90.7363 217.373 113.271C232.668 143.007 266.856 156.682 297.736 147.177C301.075 146.149 304.421 149.261 302.97 152.44C295.671 168.424 283.149 182.162 266.311 190.823C226.481 211.311 177.583 195.63 157.096 155.8C136.608 115.97 152.289 67.0725 192.119 46.585C200.254 42.4008 208.767 39.7251 217.339 38.4558Z" fill="url(#paint0_linear_108_2067)"/>
<path d="M302.97 152.44L301.15 151.609L302.97 152.44ZM220.943 44.9404L222.617 46.0346L220.943 44.9404ZM217.339 38.4558L217.632 40.4342L217.339 38.4558ZM219.151 112.357C207.902 90.4869 210.056 65.2547 222.617 46.0346L219.269 43.8463C205.953 64.2216 203.66 90.9857 215.594 114.186L219.151 112.357ZM297.148 145.265C267.178 154.49 233.995 141.215 219.151 112.357L215.594 114.186C231.34 144.798 266.534 158.873 298.324 149.088L297.148 145.265ZM301.15 151.609C294.032 167.199 281.821 180.596 265.396 189.045L267.226 192.602C284.477 183.728 297.311 169.648 304.789 153.27L301.15 151.609ZM265.396 189.045C226.548 209.027 178.857 193.733 158.874 154.885L155.317 156.715C176.31 197.527 226.413 213.595 267.226 192.602L265.396 189.045ZM158.874 154.885C138.892 116.037 154.186 68.3458 193.034 48.3635L191.204 44.8065C150.392 65.7992 134.325 115.902 155.317 156.715L158.874 154.885ZM193.034 48.3635C200.971 44.2808 209.274 41.6719 217.632 40.4342L217.046 36.4773C208.26 37.7784 199.537 40.5207 191.204 44.8065L193.034 48.3635ZM298.324 149.088C299.247 148.804 300.168 149.091 300.752 149.662C301.306 150.203 301.478 150.89 301.15 151.609L304.789 153.27C305.912 150.811 305.137 148.353 303.546 146.8C301.986 145.276 299.564 144.521 297.148 145.265L298.324 149.088ZM222.617 46.0346C223.999 43.92 223.945 41.3854 222.915 39.4648C221.864 37.5068 219.719 36.0815 217.046 36.4773L217.632 40.4342C218.412 40.3186 219.024 40.6745 219.39 41.356C219.776 42.0751 219.797 43.0385 219.269 43.8463L222.617 46.0346Z" fill="url(#paint1_linear_108_2067)" mask="url(#path-1-inside-1_108_2067)"/>
</g>
<g filter="url(#filter1_bd_108_2067)">
<mask id="path-3-inside-2_108_2067" fill="white">
<path fill-rule="evenodd" clip-rule="evenodd" d="M211.563 241.351C211.683 241.352 211.804 241.353 211.924 241.353C229.087 241.353 243 227.44 243 210.277C243 193.115 229.087 179.202 211.924 179.202C211.804 179.202 211.683 179.202 211.563 179.204V179.202H203.535C203.825 177.075 203.975 174.904 203.975 172.697C203.975 146.355 182.62 125 156.277 125C129.935 125 108.58 146.355 108.58 172.697C108.58 175.183 108.77 177.624 109.136 180.007C106.868 179.48 104.504 179.202 102.076 179.202C84.913 179.202 71 193.115 71 210.277C71 227.44 84.913 241.353 102.076 241.353C102.197 241.353 102.318 241.352 102.439 241.351L102.437 241.353H211.563V241.351Z"/>
</mask>
<path fill-rule="evenodd" clip-rule="evenodd" d="M211.563 241.351C211.683 241.352 211.804 241.353 211.924 241.353C229.087 241.353 243 227.44 243 210.277C243 193.115 229.087 179.202 211.924 179.202C211.804 179.202 211.683 179.202 211.563 179.204V179.202H203.535C203.825 177.075 203.975 174.904 203.975 172.697C203.975 146.355 182.62 125 156.277 125C129.935 125 108.58 146.355 108.58 172.697C108.58 175.183 108.77 177.624 109.136 180.007C106.868 179.48 104.504 179.202 102.076 179.202C84.913 179.202 71 193.115 71 210.277C71 227.44 84.913 241.353 102.076 241.353C102.197 241.353 102.318 241.352 102.439 241.351L102.437 241.353H211.563V241.351Z" fill="url(#paint2_linear_108_2067)" shape-rendering="crispEdges"/>
<path d="M211.563 241.351L211.586 239.351C211.052 239.345 210.537 239.553 210.157 239.929C209.777 240.304 209.563 240.816 209.563 241.351H211.563ZM211.563 179.204H209.563C209.563 179.738 209.777 180.25 210.157 180.626C210.537 181.002 211.051 181.21 211.586 181.204L211.563 179.204ZM211.563 179.202H213.563C213.563 178.097 212.668 177.202 211.563 177.202V179.202ZM203.535 179.202L201.553 178.931C201.475 179.504 201.649 180.082 202.028 180.517C202.408 180.952 202.957 181.202 203.535 181.202V179.202ZM109.136 180.007L108.684 181.955C109.33 182.106 110.009 181.925 110.496 181.474C110.983 181.023 111.214 180.359 111.113 179.703L109.136 180.007ZM102.439 241.351L104.008 242.59C104.486 241.985 104.573 241.16 104.233 240.468C103.893 239.777 103.186 239.342 102.416 239.351L102.439 241.351ZM102.437 241.353L100.867 240.114C100.392 240.715 100.303 241.535 100.637 242.225C100.971 242.915 101.67 243.353 102.437 243.353V241.353ZM211.563 241.353V243.353C212.668 243.353 213.563 242.458 213.563 241.353H211.563ZM211.54 243.351C211.668 243.352 211.796 243.353 211.924 243.353V239.353C211.811 239.353 211.699 239.352 211.586 239.351L211.54 243.351ZM211.924 243.353C230.192 243.353 245 228.544 245 210.277H241C241 226.335 227.982 239.353 211.924 239.353V243.353ZM245 210.277C245 192.01 230.192 177.202 211.924 177.202V181.202C227.982 181.202 241 194.219 241 210.277H245ZM211.924 177.202C211.796 177.202 211.668 177.202 211.54 177.204L211.586 181.204C211.699 181.202 211.811 181.202 211.924 181.202V177.202ZM209.563 179.202V179.204H213.563V179.202H209.563ZM203.535 181.202H211.563V177.202H203.535V181.202ZM205.517 179.472C205.819 177.256 205.975 174.994 205.975 172.697H201.975C201.975 174.813 201.831 176.894 201.553 178.931L205.517 179.472ZM205.975 172.697C205.975 145.25 183.724 123 156.277 123V127C181.515 127 201.975 147.459 201.975 172.697H205.975ZM156.277 123C128.83 123 106.58 145.25 106.58 172.697H110.58C110.58 147.459 131.039 127 156.277 127V123ZM106.58 172.697C106.58 175.285 106.778 177.828 107.16 180.311L111.113 179.703C110.762 177.421 110.58 175.081 110.58 172.697H106.58ZM109.589 178.059C107.173 177.498 104.658 177.202 102.076 177.202V181.202C104.351 181.202 106.563 181.463 108.684 181.955L109.589 178.059ZM102.076 177.202C83.8085 177.202 69 192.01 69 210.277H73C73 194.219 86.0176 181.202 102.076 181.202V177.202ZM69 210.277C69 228.544 83.8085 243.353 102.076 243.353V239.353C86.0176 239.353 73 226.335 73 210.277H69ZM102.076 243.353C102.204 243.353 102.333 243.352 102.461 243.351L102.416 239.351C102.303 239.352 102.189 239.353 102.076 239.353V243.353ZM104.007 242.592L104.008 242.59L100.869 240.112L100.867 240.114L104.007 242.592ZM211.563 239.353H102.437V243.353H211.563V239.353ZM209.563 241.351V241.353H213.563V241.351H209.563Z" fill="url(#paint3_linear_108_2067)" mask="url(#path-3-inside-2_108_2067)"/>
</g>
<g filter="url(#filter2_bd_108_2067)">
<mask id="path-5-inside-3_108_2067" fill="white">
<path fill-rule="evenodd" clip-rule="evenodd" d="M305.5 320.997C305.666 320.999 305.833 321 306 321C329.748 321 349 301.748 349 278C349 254.252 329.748 235 306 235C305.833 235 305.666 235.001 305.5 235.003V235H294.391C294.793 232.057 295 229.053 295 226C295 189.549 265.451 160 229 160C192.549 160 163 189.549 163 226C163 229.439 163.263 232.817 163.77 236.115C160.631 235.386 157.361 235 154 235C130.252 235 111 254.252 111 278C111 301.748 130.252 321 154 321C154.168 321 154.335 320.999 154.502 320.997L154.5 321H305.5V320.997Z"/>
</mask>
<path fill-rule="evenodd" clip-rule="evenodd" d="M305.5 320.997C305.666 320.999 305.833 321 306 321C329.748 321 349 301.748 349 278C349 254.252 329.748 235 306 235C305.833 235 305.666 235.001 305.5 235.003V235H294.391C294.793 232.057 295 229.053 295 226C295 189.549 265.451 160 229 160C192.549 160 163 189.549 163 226C163 229.439 163.263 232.817 163.77 236.115C160.631 235.386 157.361 235 154 235C130.252 235 111 254.252 111 278C111 301.748 130.252 321 154 321C154.168 321 154.335 320.999 154.502 320.997L154.5 321H305.5V320.997Z" fill="url(#paint4_linear_108_2067)" shape-rendering="crispEdges"/>
<path d="M305.5 320.997L305.523 318.997C304.988 318.991 304.474 319.199 304.094 319.575C303.714 319.951 303.5 320.463 303.5 320.997H305.5ZM305.5 235.003H303.5C303.5 235.537 303.714 236.049 304.094 236.425C304.474 236.801 304.988 237.009 305.523 237.003L305.5 235.003ZM305.5 235H307.5C307.5 233.895 306.605 233 305.5 233V235ZM294.391 235L292.41 234.73C292.332 235.302 292.505 235.88 292.885 236.315C293.265 236.75 293.814 237 294.391 237V235ZM163.77 236.115L163.318 238.063C163.964 238.213 164.643 238.033 165.13 237.582C165.617 237.13 165.848 236.467 165.747 235.811L163.77 236.115ZM154.502 320.997L156.072 322.237C156.549 321.632 156.637 320.807 156.297 320.115C155.957 319.423 155.25 318.988 154.479 318.997L154.502 320.997ZM154.5 321L152.931 319.76C152.455 320.362 152.366 321.182 152.7 321.872C153.034 322.562 153.733 323 154.5 323V321ZM305.5 321V323C306.605 323 307.5 322.105 307.5 321H305.5ZM305.477 322.997C305.651 322.999 305.825 323 306 323V319C305.841 319 305.682 318.999 305.523 318.997L305.477 322.997ZM306 323C330.853 323 351 302.853 351 278H347C347 300.644 328.644 319 306 319V323ZM351 278C351 253.147 330.853 233 306 233V237C328.644 237 347 255.356 347 278H351ZM306 233C305.826 233 305.651 233.001 305.477 233.003L305.523 237.003C305.682 237.001 305.841 237 306 237V233ZM303.5 235V235.003H307.5V235H303.5ZM294.391 237H305.5V233H294.391V237ZM296.373 235.27C296.787 232.238 297 229.143 297 226H293C293 228.962 292.799 231.876 292.41 234.73L296.373 235.27ZM297 226C297 188.445 266.555 158 229 158V162C264.346 162 293 190.654 293 226H297ZM229 158C191.445 158 161 188.445 161 226H165C165 190.654 193.654 162 229 162V158ZM161 226C161 229.542 161.271 233.021 161.793 236.419L165.747 235.811C165.255 232.614 165 229.337 165 226H161ZM164.223 234.167C160.937 233.403 157.514 233 154 233V237C157.207 237 160.326 237.368 163.318 238.063L164.223 234.167ZM154 233C129.147 233 109 253.147 109 278H113C113 255.356 131.356 237 154 237V233ZM109 278C109 302.853 129.147 323 154 323V319C131.356 319 113 300.644 113 278H109ZM154 323C154.175 323 154.35 322.999 154.525 322.997L154.479 318.997C154.32 318.999 154.16 319 154 319V323ZM156.069 322.24L156.072 322.237L152.933 319.757L152.931 319.76L156.069 322.24ZM305.5 319H154.5V323H305.5V319ZM303.5 320.997V321H307.5V320.997H303.5Z" fill="url(#paint5_linear_108_2067)" mask="url(#path-5-inside-3_108_2067)"/>
</g>
<g filter="url(#filter3_bdd_108_2067)">
<path d="M273.617 336.541L321.431 249.041C321.782 248.399 322.455 248 323.186 248H370.195C371.698 248 372.664 249.596 371.966 250.928L342.034 308.072C341.336 309.404 342.302 311 343.805 311H380.527C382.256 311 383.17 313.045 382.017 314.334L281.581 426.585C280.107 428.233 277.443 426.623 278.217 424.552L308.991 342.2C309.479 340.893 308.513 339.5 307.118 339.5H275.372C273.853 339.5 272.889 337.874 273.617 336.541Z" fill="url(#paint6_linear_108_2067)"/>
<path d="M274.494 337.02L322.309 249.52C322.484 249.2 322.821 249 323.186 249H370.195C370.946 249 371.429 249.798 371.08 250.464L341.148 307.608C340.102 309.605 341.55 312 343.805 312H380.527C381.391 312 381.848 313.023 381.272 313.667L280.836 425.919C280.099 426.743 278.767 425.938 279.154 424.902L309.928 342.55C310.66 340.589 309.211 338.5 307.118 338.5H275.372C274.613 338.5 274.13 337.687 274.494 337.02Z" stroke="url(#paint7_linear_108_2067)" stroke-width="2"/>
</g>
<g filter="url(#filter4_bd_108_2067)">
<mask id="path-9-inside-4_108_2067" fill="white">
<path fill-rule="evenodd" clip-rule="evenodd" d="M383.563 276.351C383.683 276.352 383.804 276.353 383.924 276.353C401.087 276.353 415 262.44 415 245.277C415 228.115 401.087 214.202 383.924 214.202C383.804 214.202 383.683 214.202 383.563 214.204V214.202H375.535C375.825 212.075 375.975 209.904 375.975 207.697C375.975 181.355 354.62 160 328.277 160C301.935 160 280.58 181.355 280.58 207.697C280.58 210.183 280.77 212.624 281.136 215.007C278.868 214.48 276.504 214.202 274.076 214.202C256.913 214.202 243 228.115 243 245.277C243 262.44 256.913 276.353 274.076 276.353C274.197 276.353 274.318 276.352 274.439 276.351L274.437 276.353H383.563V276.351Z"/>
</mask>
<path fill-rule="evenodd" clip-rule="evenodd" d="M383.563 276.351C383.683 276.352 383.804 276.353 383.924 276.353C401.087 276.353 415 262.44 415 245.277C415 228.115 401.087 214.202 383.924 214.202C383.804 214.202 383.683 214.202 383.563 214.204V214.202H375.535C375.825 212.075 375.975 209.904 375.975 207.697C375.975 181.355 354.62 160 328.277 160C301.935 160 280.58 181.355 280.58 207.697C280.58 210.183 280.77 212.624 281.136 215.007C278.868 214.48 276.504 214.202 274.076 214.202C256.913 214.202 243 228.115 243 245.277C243 262.44 256.913 276.353 274.076 276.353C274.197 276.353 274.318 276.352 274.439 276.351L274.437 276.353H383.563V276.351Z" fill="url(#paint8_linear_108_2067)" shape-rendering="crispEdges"/>
<path d="M383.563 276.351L383.586 274.351C383.052 274.345 382.537 274.553 382.157 274.929C381.777 275.304 381.563 275.816 381.563 276.351H383.563ZM383.563 214.204H381.563C381.563 214.738 381.777 215.25 382.157 215.626C382.537 216.002 383.051 216.21 383.586 216.204L383.563 214.204ZM383.563 214.202H385.563C385.563 213.097 384.668 212.202 383.563 212.202V214.202ZM375.535 214.202L373.553 213.931C373.475 214.504 373.649 215.082 374.028 215.517C374.408 215.952 374.957 216.202 375.535 216.202V214.202ZM281.136 215.007L280.684 216.955C281.33 217.106 282.009 216.925 282.496 216.474C282.983 216.023 283.214 215.359 283.113 214.703L281.136 215.007ZM274.439 276.351L276.008 277.59C276.486 276.985 276.573 276.16 276.233 275.468C275.893 274.777 275.186 274.342 274.416 274.351L274.439 276.351ZM274.437 276.353L272.867 275.114C272.392 275.715 272.303 276.535 272.637 277.225C272.971 277.915 273.67 278.353 274.437 278.353V276.353ZM383.563 276.353V278.353C384.668 278.353 385.563 277.458 385.563 276.353H383.563ZM383.54 278.351C383.668 278.352 383.796 278.353 383.924 278.353V274.353C383.811 274.353 383.699 274.352 383.586 274.351L383.54 278.351ZM383.924 278.353C402.192 278.353 417 263.544 417 245.277H413C413 261.335 399.982 274.353 383.924 274.353V278.353ZM417 245.277C417 227.01 402.192 212.202 383.924 212.202V216.202C399.982 216.202 413 229.219 413 245.277H417ZM383.924 212.202C383.796 212.202 383.668 212.202 383.54 212.204L383.586 216.204C383.699 216.202 383.811 216.202 383.924 216.202V212.202ZM381.563 214.202V214.204H385.563V214.202H381.563ZM375.535 216.202H383.563V212.202H375.535V216.202ZM377.517 214.472C377.819 212.256 377.975 209.994 377.975 207.697H373.975C373.975 209.813 373.831 211.894 373.553 213.931L377.517 214.472ZM377.975 207.697C377.975 180.25 355.724 158 328.277 158V162C353.515 162 373.975 182.459 373.975 207.697H377.975ZM328.277 158C300.83 158 278.58 180.25 278.58 207.697H282.58C282.58 182.459 303.039 162 328.277 162V158ZM278.58 207.697C278.58 210.285 278.778 212.828 279.16 215.311L283.113 214.703C282.762 212.421 282.58 210.081 282.58 207.697H278.58ZM281.589 213.059C279.173 212.498 276.658 212.202 274.076 212.202V216.202C276.351 216.202 278.563 216.463 280.684 216.955L281.589 213.059ZM274.076 212.202C255.808 212.202 241 227.01 241 245.277H245C245 229.219 258.018 216.202 274.076 216.202V212.202ZM241 245.277C241 263.544 255.808 278.353 274.076 278.353V274.353C258.018 274.353 245 261.335 245 245.277H241ZM274.076 278.353C274.204 278.353 274.333 278.352 274.461 278.351L274.416 274.351C274.303 274.352 274.189 274.353 274.076 274.353V278.353ZM276.007 277.592L276.008 277.59L272.869 275.112L272.867 275.114L276.007 277.592ZM383.563 274.353H274.437V278.353H383.563V274.353ZM381.563 276.351V276.353H385.563V276.351H381.563Z" fill="url(#paint9_linear_108_2067)" mask="url(#path-9-inside-4_108_2067)"/>
</g>
<g filter="url(#filter5_bdd_108_2067)">
<path d="M126.682 337.521L127.856 353.955C128.44 362.133 120.64 368.355 112.796 365.969C104.951 363.583 101.938 354.072 106.977 347.604L117.103 334.607C120.123 330.731 126.332 332.62 126.682 337.521Z" fill="url(#paint10_linear_108_2067)" stroke="url(#paint11_linear_108_2067)" stroke-width="3"/>
<path d="M184.19 337.521L185.363 353.955C185.947 362.133 178.148 368.355 170.303 365.969C162.459 363.583 159.445 354.072 164.485 347.604L174.61 334.607C177.63 330.731 183.84 332.62 184.19 337.521Z" fill="url(#paint12_linear_108_2067)" stroke="url(#paint13_linear_108_2067)" stroke-width="3"/>
<path d="M241.697 337.521L242.87 353.955C243.454 362.133 235.655 368.355 227.811 365.969C219.966 363.583 216.953 354.072 221.992 347.604L232.117 334.607C235.137 330.731 241.347 332.62 241.697 337.521Z" fill="url(#paint14_linear_108_2067)" stroke="url(#paint15_linear_108_2067)" stroke-width="3"/>
</g>
<g filter="url(#filter6_bdd_108_2067)">
<path d="M148.682 383.042L149.856 399.475C150.44 407.653 142.64 413.876 134.796 411.489C126.951 409.103 123.938 399.592 128.977 393.124L139.103 380.128C142.123 376.251 148.332 378.14 148.682 383.042Z" fill="url(#paint16_linear_108_2067)" stroke="url(#paint17_linear_108_2067)" stroke-width="3"/>
<path d="M206.682 383.042L207.856 399.475C208.44 407.653 200.64 413.876 192.796 411.489C184.951 409.103 181.938 399.592 186.977 393.124L197.103 380.128C200.123 376.251 206.332 378.14 206.682 383.042Z" fill="url(#paint18_linear_108_2067)" stroke="url(#paint19_linear_108_2067)" stroke-width="3"/>
</g>
<defs>
<filter id="filter0_bdd_108_2067" x="77.0977" y="0.411865" width="264.22" height="264.41" filterUnits="userSpaceOnUse" color-interpolation-filters="sRGB">
<feFlood flood-opacity="0" result="BackgroundImageFix"/>
<feGaussianBlur in="BackgroundImageFix" stdDeviation="7"/>
<feComposite in2="SourceAlpha" operator="in" result="effect1_backgroundBlur_108_2067"/>
<feColorMatrix in="SourceAlpha" type="matrix" values="0 0 0 0 0 0 0 0 0 0 0 0 0 0 0 0 0 0 127 0" result="hardAlpha"/>
<feOffset dx="-21" dy="15"/>
<feGaussianBlur stdDeviation="25"/>
<feComposite in2="hardAlpha" operator="out"/>
<feColorMatrix type="matrix" values="0 0 0 0 0.113438 0 0 0 0 0.148981 0 0 0 0 0.275 0 0 0 0.25 0"/>
<feBlend mode="normal" in2="effect1_backgroundBlur_108_2067" result="effect2_dropShadow_108_2067"/>
<feColorMatrix in="SourceAlpha" type="matrix" values="0 0 0 0 0 0 0 0 0 0 0 0 0 0 0 0 0 0 127 0" result="hardAlpha"/>
<feOffset/>
<feGaussianBlur stdDeviation="19"/>
<feComposite in2="hardAlpha" operator="out"/>
<feColorMatrix type="matrix" values="0 0 0 0 0.619608 0 0 0 0 0.423529 0 0 0 0 1 0 0 0 0.4 0"/>
<feBlend mode="normal" in2="effect2_dropShadow_108_2067" result="effect3_dropShadow_108_2067"/>
<feBlend mode="normal" in="SourceGraphic" in2="effect3_dropShadow_108_2067" result="shape"/>
</filter>
<filter id="filter1_bd_108_2067" x="0" y="90" width="272" height="216.353" filterUnits="userSpaceOnUse" color-interpolation-filters="sRGB">
<feFlood flood-opacity="0" result="BackgroundImageFix"/>
<feGaussianBlur in="BackgroundImageFix" stdDeviation="7"/>
<feComposite in2="SourceAlpha" operator="in" result="effect1_backgroundBlur_108_2067"/>
<feColorMatrix in="SourceAlpha" type="matrix" values="0 0 0 0 0 0 0 0 0 0 0 0 0 0 0 0 0 0 127 0" result="hardAlpha"/>
<feOffset dx="-21" dy="15"/>
<feGaussianBlur stdDeviation="25"/>
<feComposite in2="hardAlpha" operator="out"/>
<feColorMatrix type="matrix" values="0 0 0 0 0.113438 0 0 0 0 0.148981 0 0 0 0 0.275 0 0 0 0.25 0"/>
<feBlend mode="normal" in2="effect1_backgroundBlur_108_2067" result="effect2_dropShadow_108_2067"/>
<feBlend mode="normal" in="SourceGraphic" in2="effect2_dropShadow_108_2067" result="shape"/>
</filter>
<filter id="filter2_bd_108_2067" x="40" y="125" width="338" height="261" filterUnits="userSpaceOnUse" color-interpolation-filters="sRGB">
<feFlood flood-opacity="0" result="BackgroundImageFix"/>
<feGaussianBlur in="BackgroundImageFix" stdDeviation="7"/>
<feComposite in2="SourceAlpha" operator="in" result="effect1_backgroundBlur_108_2067"/>
<feColorMatrix in="SourceAlpha" type="matrix" values="0 0 0 0 0 0 0 0 0 0 0 0 0 0 0 0 0 0 127 0" result="hardAlpha"/>
<feOffset dx="-21" dy="15"/>
<feGaussianBlur stdDeviation="25"/>
<feComposite in2="hardAlpha" operator="out"/>
<feColorMatrix type="matrix" values="0 0 0 0 0.113725 0 0 0 0 0.14902 0 0 0 0 0.27451 0 0 0 0.25 0"/>
<feBlend mode="normal" in2="effect1_backgroundBlur_108_2067" result="effect2_dropShadow_108_2067"/>
<feBlend mode="normal" in="SourceGraphic" in2="effect2_dropShadow_108_2067" result="shape"/>
</filter>
<filter id="filter3_bdd_108_2067" x="202.369" y="187" width="241.162" height="305.265" filterUnits="userSpaceOnUse" color-interpolation-filters="sRGB">
<feFlood flood-opacity="0" result="BackgroundImageFix"/>
<feGaussianBlur in="BackgroundImageFix" stdDeviation="7"/>
<feComposite in2="SourceAlpha" operator="in" result="effect1_backgroundBlur_108_2067"/>
<feColorMatrix in="SourceAlpha" type="matrix" values="0 0 0 0 0 0 0 0 0 0 0 0 0 0 0 0 0 0 127 0" result="hardAlpha"/>
<feOffset dx="-21" dy="15"/>
<feGaussianBlur stdDeviation="25"/>
<feComposite in2="hardAlpha" operator="out"/>
<feColorMatrix type="matrix" values="0 0 0 0 0.113438 0 0 0 0 0.148981 0 0 0 0 0.275 0 0 0 0.25 0"/>
<feBlend mode="normal" in2="effect1_backgroundBlur_108_2067" result="effect2_dropShadow_108_2067"/>
<feColorMatrix in="SourceAlpha" type="matrix" values="0 0 0 0 0 0 0 0 0 0 0 0 0 0 0 0 0 0 127 0" result="hardAlpha"/>
<feOffset/>
<feGaussianBlur stdDeviation="30.5"/>
<feComposite in2="hardAlpha" operator="out"/>
<feColorMatrix type="matrix" values="0 0 0 0 1 0 0 0 0 0.721569 0 0 0 0 0.00392157 0 0 0 0.49 0"/>
<feBlend mode="normal" in2="effect2_dropShadow_108_2067" result="effect3_dropShadow_108_2067"/>
<feBlend mode="normal" in="SourceGraphic" in2="effect3_dropShadow_108_2067" result="shape"/>
</filter>
<filter id="filter4_bd_108_2067" x="172" y="125" width="272" height="216.353" filterUnits="userSpaceOnUse" color-interpolation-filters="sRGB">
<feFlood flood-opacity="0" result="BackgroundImageFix"/>
<feGaussianBlur in="BackgroundImageFix" stdDeviation="7"/>
<feComposite in2="SourceAlpha" operator="in" result="effect1_backgroundBlur_108_2067"/>
<feColorMatrix in="SourceAlpha" type="matrix" values="0 0 0 0 0 0 0 0 0 0 0 0 0 0 0 0 0 0 127 0" result="hardAlpha"/>
<feOffset dx="-21" dy="15"/>
<feGaussianBlur stdDeviation="25"/>
<feComposite in2="hardAlpha" operator="out"/>
<feColorMatrix type="matrix" values="0 0 0 0 0.113438 0 0 0 0 0.148981 0 0 0 0 0.275 0 0 0 0.25 0"/>
<feBlend mode="normal" in2="effect1_backgroundBlur_108_2067" result="effect2_dropShadow_108_2067"/>
<feBlend mode="normal" in="SourceGraphic" in2="effect2_dropShadow_108_2067" result="shape"/>
</filter>
<filter id="filter5_bdd_108_2067" x="32.002" y="283.031" width="253.399" height="149.955" filterUnits="userSpaceOnUse" color-interpolation-filters="sRGB">
<feFlood flood-opacity="0" result="BackgroundImageFix"/>
<feGaussianBlur in="BackgroundImageFix" stdDeviation="7"/>
<feComposite in2="SourceAlpha" operator="in" result="effect1_backgroundBlur_108_2067"/>
<feColorMatrix in="SourceAlpha" type="matrix" values="0 0 0 0 0 0 0 0 0 0 0 0 0 0 0 0 0 0 127 0" result="hardAlpha"/>
<feOffset dx="-21" dy="15"/>
<feGaussianBlur stdDeviation="25"/>
<feComposite in2="hardAlpha" operator="out"/>
<feColorMatrix type="matrix" values="0 0 0 0 0.113438 0 0 0 0 0.148981 0 0 0 0 0.275 0 0 0 0.25 0"/>
<feBlend mode="normal" in2="effect1_backgroundBlur_108_2067" result="effect2_dropShadow_108_2067"/>
<feColorMatrix in="SourceAlpha" type="matrix" values="0 0 0 0 0 0 0 0 0 0 0 0 0 0 0 0 0 0 127 0" result="hardAlpha"/>
<feOffset dy="-7"/>
<feGaussianBlur stdDeviation="20.5"/>
<feComposite in2="hardAlpha" operator="out"/>
<feColorMatrix type="matrix" values="0 0 0 0 0.1375 0 0 0 0 0.74125 0 0 0 0 1 0 0 0 0.3 0"/>
<feBlend mode="normal" in2="effect2_dropShadow_108_2067" result="effect3_dropShadow_108_2067"/>
<feBlend mode="normal" in="SourceGraphic" in2="effect3_dropShadow_108_2067" result="shape"/>
</filter>
<filter id="filter6_bdd_108_2067" x="54.002" y="328.551" width="196.385" height="149.955" filterUnits="userSpaceOnUse" color-interpolation-filters="sRGB">
<feFlood flood-opacity="0" result="BackgroundImageFix"/>
<feGaussianBlur in="BackgroundImageFix" stdDeviation="7"/>
<feComposite in2="SourceAlpha" operator="in" result="effect1_backgroundBlur_108_2067"/>
<feColorMatrix in="SourceAlpha" type="matrix" values="0 0 0 0 0 0 0 0 0 0 0 0 0 0 0 0 0 0 127 0" result="hardAlpha"/>
<feOffset dx="-21" dy="15"/>
<feGaussianBlur stdDeviation="25"/>
<feComposite in2="hardAlpha" operator="out"/>
<feColorMatrix type="matrix" values="0 0 0 0 0.113438 0 0 0 0 0.148981 0 0 0 0 0.275 0 0 0 0.25 0"/>
<feBlend mode="normal" in2="effect1_backgroundBlur_108_2067" result="effect2_dropShadow_108_2067"/>
<feColorMatrix in="SourceAlpha" type="matrix" values="0 0 0 0 0 0 0 0 0 0 0 0 0 0 0 0 0 0 127 0" result="hardAlpha"/>
<feOffset dy="-7"/>
<feGaussianBlur stdDeviation="20.5"/>
<feComposite in2="hardAlpha" operator="out"/>
<feColorMatrix type="matrix" values="0 0 0 0 0.1375 0 0 0 0 0.74125 0 0 0 0 1 0 0 0 0.3 0"/>
<feBlend mode="normal" in2="effect2_dropShadow_108_2067" result="effect3_dropShadow_108_2067"/>
<feBlend mode="normal" in="SourceGraphic" in2="effect3_dropShadow_108_2067" result="shape"/>
</filter>
<linearGradient id="paint0_linear_108_2067" x1="176.961" y1="55.9888" x2="251.152" y2="200.227" gradientUnits="userSpaceOnUse">
<stop offset="0.0001" stop-color="#D4C0FF"/>
<stop offset="1" stop-color="#7E2FFF"/>
</linearGradient>
<linearGradient id="paint1_linear_108_2067" x1="185.038" y1="-23.3228" x2="231.183" y2="165.979" gradientUnits="userSpaceOnUse">
<stop stop-color="white"/>
<stop offset="1" stop-color="white" stop-opacity="0"/>
</linearGradient>
<linearGradient id="paint2_linear_108_2067" x1="165" y1="128.5" x2="165" y2="254.5" gradientUnits="userSpaceOnUse">
<stop stop-color="white"/>
<stop offset="1" stop-color="white" stop-opacity="0"/>
</linearGradient>
<linearGradient id="paint3_linear_108_2067" x1="157" y1="125" x2="157" y2="241.353" gradientUnits="userSpaceOnUse">
<stop stop-color="white"/>
<stop offset="1" stop-color="white" stop-opacity="0"/>
</linearGradient>
<linearGradient id="paint4_linear_108_2067" x1="230" y1="108.5" x2="230" y2="343.5" gradientUnits="userSpaceOnUse">
<stop stop-color="white"/>
<stop offset="1" stop-color="white" stop-opacity="0"/>
</linearGradient>
<linearGradient id="paint5_linear_108_2067" x1="230" y1="160" x2="230" y2="321" gradientUnits="userSpaceOnUse">
<stop stop-color="white"/>
<stop offset="1" stop-color="white" stop-opacity="0"/>
</linearGradient>
<linearGradient id="paint6_linear_108_2067" x1="339.5" y1="259" x2="314.5" y2="367.5" gradientUnits="userSpaceOnUse">
<stop stop-color="#FF4D00"/>
<stop offset="1" stop-color="#FFB800"/>
</linearGradient>
<linearGradient id="paint7_linear_108_2067" x1="306" y1="366" x2="351.5" y2="268.5" gradientUnits="userSpaceOnUse">
<stop stop-color="white"/>
<stop offset="1" stop-color="white" stop-opacity="0"/>
</linearGradient>
<linearGradient id="paint8_linear_108_2067" x1="337" y1="163.5" x2="337" y2="289.5" gradientUnits="userSpaceOnUse">
<stop stop-color="white"/>
<stop offset="1" stop-color="white" stop-opacity="0"/>
</linearGradient>
<linearGradient id="paint9_linear_108_2067" x1="329" y1="160" x2="329" y2="276.353" gradientUnits="userSpaceOnUse">
<stop stop-color="white"/>
<stop offset="1" stop-color="white" stop-opacity="0"/>
</linearGradient>
<linearGradient id="paint10_linear_108_2067" x1="126.905" y1="319.585" x2="112.359" y2="367.404" gradientUnits="userSpaceOnUse">
<stop stop-color="#138EFF"/>
<stop offset="1" stop-color="#00E0FF"/>
</linearGradient>
<linearGradient id="paint11_linear_108_2067" x1="126.905" y1="319.585" x2="112.359" y2="367.404" gradientUnits="userSpaceOnUse">
<stop stop-color="white"/>
<stop offset="1" stop-color="white" stop-opacity="0"/>
</linearGradient>
<linearGradient id="paint12_linear_108_2067" x1="184.413" y1="319.585" x2="169.867" y2="367.404" gradientUnits="userSpaceOnUse">
<stop stop-color="#138EFF"/>
<stop offset="1" stop-color="#00E0FF"/>
</linearGradient>
<linearGradient id="paint13_linear_108_2067" x1="184.413" y1="319.585" x2="169.867" y2="367.404" gradientUnits="userSpaceOnUse">
<stop stop-color="white"/>
<stop offset="1" stop-color="white" stop-opacity="0"/>
</linearGradient>
<linearGradient id="paint14_linear_108_2067" x1="241.92" y1="319.585" x2="227.374" y2="367.404" gradientUnits="userSpaceOnUse">
<stop stop-color="#138EFF"/>
<stop offset="1" stop-color="#00E0FF"/>
</linearGradient>
<linearGradient id="paint15_linear_108_2067" x1="241.92" y1="319.585" x2="227.374" y2="367.404" gradientUnits="userSpaceOnUse">
<stop stop-color="white"/>
<stop offset="1" stop-color="white" stop-opacity="0"/>
</linearGradient>
<linearGradient id="paint16_linear_108_2067" x1="148.905" y1="365.105" x2="134.359" y2="412.925" gradientUnits="userSpaceOnUse">
<stop stop-color="#138EFF"/>
<stop offset="1" stop-color="#00E0FF"/>
</linearGradient>
<linearGradient id="paint17_linear_108_2067" x1="148.905" y1="365.105" x2="134.359" y2="412.925" gradientUnits="userSpaceOnUse">
<stop stop-color="white"/>
<stop offset="1" stop-color="white" stop-opacity="0"/>
</linearGradient>
<linearGradient id="paint18_linear_108_2067" x1="206.905" y1="365.105" x2="192.359" y2="412.925" gradientUnits="userSpaceOnUse">
<stop stop-color="#138EFF"/>
<stop offset="1" stop-color="#00E0FF"/>
</linearGradient>
<linearGradient id="paint19_linear_108_2067" x1="206.905" y1="365.105" x2="192.359" y2="412.925" gradientUnits="userSpaceOnUse">
<stop stop-color="white"/>
<stop offset="1" stop-color="white" stop-opacity="0"/>
</linearGradient>
</defs>
</svg>
