<svg width="444" height="316" viewBox="0 0 444 316" fill="none" xmlns="http://www.w3.org/2000/svg">
<circle cx="255.108" cy="74.1083" r="73.1083" fill="url(#paint0_linear_108_1915)" stroke="url(#paint1_linear_108_1915)" stroke-width="2"/>
<path d="M373.427 254.089V286.119" stroke="#42A0F0" stroke-width="3" stroke-linecap="round"/>
<path d="M373.356 261.919L379.435 256.225" stroke="#42A0F0" stroke-width="3" stroke-linecap="round"/>
<path d="M373.356 261.919L367.081 256.225" stroke="#42A0F0" stroke-width="3" stroke-linecap="round"/>
<path d="M373.356 279.001L379.435 284.695" stroke="#42A0F0" stroke-width="3" stroke-linecap="round"/>
<path d="M373.356 279.001L367.081 284.695" stroke="#42A0F0" stroke-width="3" stroke-linecap="round"/>
<path d="M388.627 262.229L358.059 278.244" stroke="#42A0F0" stroke-width="3" stroke-linecap="round"/>
<path d="M381.119 266.088L389.593 268.018" stroke="#42A0F0" stroke-width="3" stroke-linecap="round"/>
<path d="M381.119 266.088L383.416 258.31" stroke="#42A0F0" stroke-width="3" stroke-linecap="round"/>
<path d="M364.816 274.63L362.421 282.254" stroke="#42A0F0" stroke-width="3" stroke-linecap="round"/>
<path d="M364.816 274.63L356.244 272.545" stroke="#42A0F0" stroke-width="3" stroke-linecap="round"/>
<path d="M388.458 278.244L357.889 262.229" stroke="#42A0F0" stroke-width="3" stroke-linecap="round"/>
<path d="M381.022 274.274L383.416 281.898" stroke="#42A0F0" stroke-width="3" stroke-linecap="round"/>
<path d="M381.021 274.274L389.593 272.19" stroke="#42A0F0" stroke-width="3" stroke-linecap="round"/>
<path d="M364.718 265.732L356.244 267.663" stroke="#42A0F0" stroke-width="3" stroke-linecap="round"/>
<path d="M364.718 265.732L362.421 257.954" stroke="#42A0F0" stroke-width="3" stroke-linecap="round"/>
<path d="M310.929 254.089V286.119" stroke="#42A0F0" stroke-width="3" stroke-linecap="round"/>
<path d="M310.858 261.919L316.937 256.225" stroke="#42A0F0" stroke-width="3" stroke-linecap="round"/>
<path d="M310.858 261.919L304.583 256.225" stroke="#42A0F0" stroke-width="3" stroke-linecap="round"/>
<path d="M310.858 279.001L316.937 284.695" stroke="#42A0F0" stroke-width="3" stroke-linecap="round"/>
<path d="M310.858 279.001L304.583 284.695" stroke="#42A0F0" stroke-width="3" stroke-linecap="round"/>
<path d="M326.129 262.229L295.561 278.244" stroke="#42A0F0" stroke-width="3" stroke-linecap="round"/>
<path d="M318.621 266.088L327.095 268.018" stroke="#42A0F0" stroke-width="3" stroke-linecap="round"/>
<path d="M318.621 266.088L320.918 258.31" stroke="#42A0F0" stroke-width="3" stroke-linecap="round"/>
<path d="M302.318 274.63L299.923 282.254" stroke="#42A0F0" stroke-width="3" stroke-linecap="round"/>
<path d="M302.318 274.63L293.746 272.545" stroke="#42A0F0" stroke-width="3" stroke-linecap="round"/>
<path d="M325.96 278.244L295.391 262.229" stroke="#42A0F0" stroke-width="3" stroke-linecap="round"/>
<path d="M318.523 274.274L320.918 281.898" stroke="#42A0F0" stroke-width="3" stroke-linecap="round"/>
<path d="M318.523 274.274L327.095 272.19" stroke="#42A0F0" stroke-width="3" stroke-linecap="round"/>
<path d="M302.22 265.732L293.746 267.663" stroke="#42A0F0" stroke-width="3" stroke-linecap="round"/>
<path d="M302.22 265.732L299.923 257.954" stroke="#42A0F0" stroke-width="3" stroke-linecap="round"/>
<path d="M248.542 254.089V286.119" stroke="#42A0F0" stroke-width="3" stroke-linecap="round"/>
<path d="M248.47 261.919L254.549 256.225" stroke="#42A0F0" stroke-width="3" stroke-linecap="round"/>
<path d="M248.47 261.919L242.195 256.225" stroke="#42A0F0" stroke-width="3" stroke-linecap="round"/>
<path d="M248.47 279.001L254.549 284.695" stroke="#42A0F0" stroke-width="3" stroke-linecap="round"/>
<path d="M248.47 279.001L242.195 284.695" stroke="#42A0F0" stroke-width="3" stroke-linecap="round"/>
<path d="M263.742 262.229L233.173 278.244" stroke="#42A0F0" stroke-width="3" stroke-linecap="round"/>
<path d="M256.234 266.088L264.708 268.018" stroke="#42A0F0" stroke-width="3" stroke-linecap="round"/>
<path d="M256.234 266.088L258.531 258.31" stroke="#42A0F0" stroke-width="3" stroke-linecap="round"/>
<path d="M239.931 274.63L237.536 282.254" stroke="#42A0F0" stroke-width="3" stroke-linecap="round"/>
<path d="M239.931 274.63L231.359 272.545" stroke="#42A0F0" stroke-width="3" stroke-linecap="round"/>
<path d="M263.573 278.244L233.004 262.229" stroke="#42A0F0" stroke-width="3" stroke-linecap="round"/>
<path d="M256.136 274.274L258.531 281.898" stroke="#42A0F0" stroke-width="3" stroke-linecap="round"/>
<path d="M256.136 274.274L264.708 272.19" stroke="#42A0F0" stroke-width="3" stroke-linecap="round"/>
<path d="M239.833 265.732L231.359 267.663" stroke="#42A0F0" stroke-width="3" stroke-linecap="round"/>
<path d="M239.833 265.732L237.536 257.954" stroke="#42A0F0" stroke-width="3" stroke-linecap="round"/>
<path d="M278.729 206V238.03" stroke="#42A0F0" stroke-width="3" stroke-linecap="round"/>
<path d="M278.658 213.829L284.737 208.135" stroke="#42A0F0" stroke-width="3" stroke-linecap="round"/>
<path d="M278.658 213.829L272.383 208.135" stroke="#42A0F0" stroke-width="3" stroke-linecap="round"/>
<path d="M278.658 230.912L284.737 236.606" stroke="#42A0F0" stroke-width="3" stroke-linecap="round"/>
<path d="M278.658 230.912L272.383 236.606" stroke="#42A0F0" stroke-width="3" stroke-linecap="round"/>
<path d="M293.929 214.14L263.361 230.155" stroke="#42A0F0" stroke-width="3" stroke-linecap="round"/>
<path d="M286.421 217.999L294.895 219.929" stroke="#42A0F0" stroke-width="3" stroke-linecap="round"/>
<path d="M286.421 217.999L288.718 210.221" stroke="#42A0F0" stroke-width="3" stroke-linecap="round"/>
<path d="M270.118 226.54L267.723 234.165" stroke="#42A0F0" stroke-width="3" stroke-linecap="round"/>
<path d="M270.118 226.54L261.546 224.456" stroke="#42A0F0" stroke-width="3" stroke-linecap="round"/>
<path d="M293.76 230.155L263.191 214.14" stroke="#42A0F0" stroke-width="3" stroke-linecap="round"/>
<path d="M286.324 226.185L288.718 233.809" stroke="#42A0F0" stroke-width="3" stroke-linecap="round"/>
<path d="M286.324 226.185L294.895 224.1" stroke="#42A0F0" stroke-width="3" stroke-linecap="round"/>
<path d="M270.02 217.643L261.546 219.573" stroke="#42A0F0" stroke-width="3" stroke-linecap="round"/>
<path d="M270.02 217.643L267.723 209.865" stroke="#42A0F0" stroke-width="3" stroke-linecap="round"/>
<path d="M347.825 206V238.03" stroke="#42A0F0" stroke-width="3" stroke-linecap="round"/>
<path d="M347.753 213.829L353.833 208.135" stroke="#42A0F0" stroke-width="3" stroke-linecap="round"/>
<path d="M347.753 213.829L341.479 208.135" stroke="#42A0F0" stroke-width="3" stroke-linecap="round"/>
<path d="M347.753 230.912L353.833 236.606" stroke="#42A0F0" stroke-width="3" stroke-linecap="round"/>
<path d="M347.753 230.912L341.479 236.606" stroke="#42A0F0" stroke-width="3" stroke-linecap="round"/>
<path d="M363.025 214.14L332.456 230.155" stroke="#42A0F0" stroke-width="3" stroke-linecap="round"/>
<path d="M355.517 217.999L363.991 219.929" stroke="#42A0F0" stroke-width="3" stroke-linecap="round"/>
<path d="M355.517 217.999L357.814 210.221" stroke="#42A0F0" stroke-width="3" stroke-linecap="round"/>
<path d="M339.214 226.54L336.819 234.165" stroke="#42A0F0" stroke-width="3" stroke-linecap="round"/>
<path d="M339.214 226.54L330.642 224.456" stroke="#42A0F0" stroke-width="3" stroke-linecap="round"/>
<path d="M362.856 230.155L332.287 214.14" stroke="#42A0F0" stroke-width="3" stroke-linecap="round"/>
<path d="M355.419 226.185L357.814 233.809" stroke="#42A0F0" stroke-width="3" stroke-linecap="round"/>
<path d="M355.419 226.185L363.991 224.1" stroke="#42A0F0" stroke-width="3" stroke-linecap="round"/>
<path d="M339.116 217.643L330.642 219.573" stroke="#42A0F0" stroke-width="3" stroke-linecap="round"/>
<path d="M339.116 217.643L336.819 209.865" stroke="#42A0F0" stroke-width="3" stroke-linecap="round"/>
<g filter="url(#filter0_bd_108_1915)">
<mask id="path-77-inside-1_108_1915" fill="white">
<path fill-rule="evenodd" clip-rule="evenodd" d="M211.563 171.351C211.683 171.352 211.804 171.353 211.924 171.353C229.087 171.353 243 157.44 243 140.277C243 123.115 229.087 109.202 211.924 109.202C211.804 109.202 211.683 109.202 211.563 109.204V109.202H203.535C203.825 107.075 203.975 104.904 203.975 102.697C203.975 76.3549 182.62 55 156.277 55C129.935 55 108.58 76.3549 108.58 102.697C108.58 105.183 108.77 107.624 109.136 110.007C106.868 109.48 104.504 109.202 102.076 109.202C84.913 109.202 71 123.115 71 140.277C71 157.44 84.913 171.353 102.076 171.353C102.197 171.353 102.318 171.352 102.439 171.351L102.437 171.353H211.563V171.351Z"/>
</mask>
<path fill-rule="evenodd" clip-rule="evenodd" d="M211.563 171.351C211.683 171.352 211.804 171.353 211.924 171.353C229.087 171.353 243 157.44 243 140.277C243 123.115 229.087 109.202 211.924 109.202C211.804 109.202 211.683 109.202 211.563 109.204V109.202H203.535C203.825 107.075 203.975 104.904 203.975 102.697C203.975 76.3549 182.62 55 156.277 55C129.935 55 108.58 76.3549 108.58 102.697C108.58 105.183 108.77 107.624 109.136 110.007C106.868 109.48 104.504 109.202 102.076 109.202C84.913 109.202 71 123.115 71 140.277C71 157.44 84.913 171.353 102.076 171.353C102.197 171.353 102.318 171.352 102.439 171.351L102.437 171.353H211.563V171.351Z" fill="url(#paint2_linear_108_1915)" shape-rendering="crispEdges"/>
<path d="M211.563 171.351L211.586 169.351C211.052 169.345 210.537 169.553 210.157 169.929C209.777 170.304 209.563 170.816 209.563 171.351H211.563ZM211.563 109.204H209.563C209.563 109.738 209.777 110.25 210.157 110.626C210.537 111.002 211.051 111.21 211.586 111.204L211.563 109.204ZM211.563 109.202H213.563C213.563 108.097 212.668 107.202 211.563 107.202V109.202ZM203.535 109.202L201.553 108.931C201.475 109.504 201.649 110.082 202.028 110.517C202.408 110.952 202.957 111.202 203.535 111.202V109.202ZM109.136 110.007L108.684 111.955C109.33 112.106 110.009 111.925 110.496 111.474C110.983 111.023 111.214 110.359 111.113 109.703L109.136 110.007ZM102.439 171.351L104.008 172.59C104.486 171.985 104.573 171.16 104.233 170.468C103.893 169.777 103.186 169.342 102.416 169.351L102.439 171.351ZM102.437 171.353L100.867 170.114C100.392 170.715 100.303 171.535 100.637 172.225C100.971 172.915 101.67 173.353 102.437 173.353V171.353ZM211.563 171.353V173.353C212.668 173.353 213.563 172.458 213.563 171.353H211.563ZM211.54 173.351C211.668 173.352 211.796 173.353 211.924 173.353V169.353C211.811 169.353 211.699 169.352 211.586 169.351L211.54 173.351ZM211.924 173.353C230.192 173.353 245 158.544 245 140.277H241C241 156.335 227.982 169.353 211.924 169.353V173.353ZM245 140.277C245 122.01 230.192 107.202 211.924 107.202V111.202C227.982 111.202 241 124.219 241 140.277H245ZM211.924 107.202C211.796 107.202 211.668 107.202 211.54 107.204L211.586 111.204C211.698 111.202 211.811 111.202 211.924 111.202V107.202ZM209.563 109.202V109.204H213.563V109.202H209.563ZM203.535 111.202H211.563V107.202H203.535V111.202ZM205.517 109.472C205.819 107.256 205.975 104.994 205.975 102.697H201.975C201.975 104.813 201.831 106.894 201.553 108.931L205.517 109.472ZM205.975 102.697C205.975 75.2503 183.724 53 156.277 53V57C181.515 57 201.975 77.4595 201.975 102.697H205.975ZM156.277 53C128.83 53 106.58 75.2503 106.58 102.697H110.58C110.58 77.4595 131.039 57 156.277 57V53ZM106.58 102.697C106.58 105.285 106.778 107.828 107.16 110.311L111.113 109.703C110.762 107.421 110.58 105.081 110.58 102.697H106.58ZM109.589 108.059C107.173 107.498 104.658 107.202 102.076 107.202V111.202C104.351 111.202 106.563 111.463 108.684 111.955L109.589 108.059ZM102.076 107.202C83.8085 107.202 69 122.01 69 140.277H73C73 124.219 86.0176 111.202 102.076 111.202V107.202ZM69 140.277C69 158.544 83.8085 173.353 102.076 173.353V169.353C86.0176 169.353 73 156.335 73 140.277H69ZM102.076 173.353C102.204 173.353 102.333 173.352 102.461 173.351L102.416 169.351C102.303 169.352 102.189 169.353 102.076 169.353V173.353ZM104.007 172.592L104.008 172.59L100.869 170.112L100.867 170.114L104.007 172.592ZM211.563 169.353H102.437V173.353H211.563V169.353ZM209.563 171.351V171.353H213.563V171.351H209.563Z" fill="url(#paint3_linear_108_1915)" mask="url(#path-77-inside-1_108_1915)"/>
</g>
<g filter="url(#filter1_bd_108_1915)">
<mask id="path-79-inside-2_108_1915" fill="white">
<path fill-rule="evenodd" clip-rule="evenodd" d="M305.5 250.997C305.666 250.999 305.833 251 306 251C329.748 251 349 231.748 349 208C349 184.252 329.748 165 306 165C305.833 165 305.666 165.001 305.5 165.003V165H294.391C294.793 162.057 295 159.053 295 156C295 119.549 265.451 90 229 90C192.549 90 163 119.549 163 156C163 159.439 163.263 162.817 163.77 166.115C160.631 165.386 157.361 165 154 165C130.252 165 111 184.252 111 208C111 231.748 130.252 251 154 251C154.168 251 154.335 250.999 154.502 250.997L154.5 251H305.5V250.997Z"/>
</mask>
<path fill-rule="evenodd" clip-rule="evenodd" d="M305.5 250.997C305.666 250.999 305.833 251 306 251C329.748 251 349 231.748 349 208C349 184.252 329.748 165 306 165C305.833 165 305.666 165.001 305.5 165.003V165H294.391C294.793 162.057 295 159.053 295 156C295 119.549 265.451 90 229 90C192.549 90 163 119.549 163 156C163 159.439 163.263 162.817 163.77 166.115C160.631 165.386 157.361 165 154 165C130.252 165 111 184.252 111 208C111 231.748 130.252 251 154 251C154.168 251 154.335 250.999 154.502 250.997L154.5 251H305.5V250.997Z" fill="url(#paint4_linear_108_1915)" shape-rendering="crispEdges"/>
<path d="M305.5 250.997L305.523 248.997C304.988 248.991 304.474 249.199 304.094 249.575C303.714 249.951 303.5 250.463 303.5 250.997H305.5ZM305.5 165.003H303.5C303.5 165.537 303.714 166.049 304.094 166.425C304.474 166.801 304.988 167.009 305.523 167.003L305.5 165.003ZM305.5 165H307.5C307.5 163.895 306.605 163 305.5 163V165ZM294.391 165L292.41 164.73C292.332 165.302 292.505 165.88 292.885 166.315C293.265 166.75 293.814 167 294.391 167V165ZM163.77 166.115L163.318 168.063C163.964 168.213 164.643 168.033 165.13 167.582C165.617 167.13 165.848 166.467 165.747 165.811L163.77 166.115ZM154.502 250.997L156.072 252.237C156.549 251.632 156.637 250.807 156.297 250.115C155.957 249.423 155.25 248.988 154.479 248.997L154.502 250.997ZM154.5 251L152.931 249.76C152.455 250.362 152.366 251.182 152.7 251.872C153.034 252.562 153.733 253 154.5 253V251ZM305.5 251V253C306.605 253 307.5 252.105 307.5 251H305.5ZM305.477 252.997C305.651 252.999 305.825 253 306 253V249C305.841 249 305.682 248.999 305.523 248.997L305.477 252.997ZM306 253C330.853 253 351 232.853 351 208H347C347 230.644 328.644 249 306 249V253ZM351 208C351 183.147 330.853 163 306 163V167C328.644 167 347 185.356 347 208H351ZM306 163C305.826 163 305.651 163.001 305.477 163.003L305.523 167.003C305.682 167.001 305.841 167 306 167V163ZM303.5 165V165.003H307.5V165H303.5ZM294.391 167H305.5V163H294.391V167ZM296.373 165.27C296.787 162.238 297 159.143 297 156H293C293 158.962 292.799 161.876 292.41 164.73L296.373 165.27ZM297 156C297 118.445 266.555 88 229 88V92C264.346 92 293 120.654 293 156H297ZM229 88C191.445 88 161 118.445 161 156H165C165 120.654 193.654 92 229 92V88ZM161 156C161 159.542 161.271 163.021 161.793 166.419L165.747 165.811C165.255 162.614 165 159.337 165 156H161ZM164.223 164.167C160.937 163.403 157.514 163 154 163V167C157.207 167 160.326 167.368 163.318 168.063L164.223 164.167ZM154 163C129.147 163 109 183.147 109 208H113C113 185.356 131.356 167 154 167V163ZM109 208C109 232.853 129.147 253 154 253V249C131.356 249 113 230.644 113 208H109ZM154 253C154.175 253 154.35 252.999 154.525 252.997L154.479 248.997C154.32 248.999 154.16 249 154 249V253ZM156.069 252.24L156.072 252.237L152.933 249.757L152.931 249.76L156.069 252.24ZM305.5 249H154.5V253H305.5V249ZM303.5 250.997V251H307.5V250.997H303.5Z" fill="url(#paint5_linear_108_1915)" mask="url(#path-79-inside-2_108_1915)"/>
</g>
<g filter="url(#filter2_bd_108_1915)">
<mask id="path-81-inside-3_108_1915" fill="white">
<path fill-rule="evenodd" clip-rule="evenodd" d="M383.563 206.351C383.683 206.352 383.804 206.353 383.924 206.353C401.087 206.353 415 192.44 415 175.277C415 158.115 401.087 144.202 383.924 144.202C383.804 144.202 383.683 144.202 383.563 144.204V144.202H375.535C375.825 142.075 375.975 139.904 375.975 137.697C375.975 111.355 354.62 90 328.277 90C301.935 90 280.58 111.355 280.58 137.697C280.58 140.183 280.77 142.624 281.136 145.007C278.868 144.48 276.504 144.202 274.076 144.202C256.913 144.202 243 158.115 243 175.277C243 192.44 256.913 206.353 274.076 206.353C274.197 206.353 274.318 206.352 274.439 206.351L274.437 206.353H383.563V206.351Z"/>
</mask>
<path fill-rule="evenodd" clip-rule="evenodd" d="M383.563 206.351C383.683 206.352 383.804 206.353 383.924 206.353C401.087 206.353 415 192.44 415 175.277C415 158.115 401.087 144.202 383.924 144.202C383.804 144.202 383.683 144.202 383.563 144.204V144.202H375.535C375.825 142.075 375.975 139.904 375.975 137.697C375.975 111.355 354.62 90 328.277 90C301.935 90 280.58 111.355 280.58 137.697C280.58 140.183 280.77 142.624 281.136 145.007C278.868 144.48 276.504 144.202 274.076 144.202C256.913 144.202 243 158.115 243 175.277C243 192.44 256.913 206.353 274.076 206.353C274.197 206.353 274.318 206.352 274.439 206.351L274.437 206.353H383.563V206.351Z" fill="url(#paint6_linear_108_1915)" shape-rendering="crispEdges"/>
<path d="M383.563 206.351L383.586 204.351C383.052 204.345 382.537 204.553 382.157 204.929C381.777 205.304 381.563 205.816 381.563 206.351H383.563ZM383.563 144.204H381.563C381.563 144.738 381.777 145.25 382.157 145.626C382.537 146.002 383.051 146.21 383.586 146.204L383.563 144.204ZM383.563 144.202H385.563C385.563 143.097 384.668 142.202 383.563 142.202V144.202ZM375.535 144.202L373.553 143.931C373.475 144.504 373.649 145.082 374.028 145.517C374.408 145.952 374.957 146.202 375.535 146.202V144.202ZM281.136 145.007L280.684 146.955C281.33 147.106 282.009 146.925 282.496 146.474C282.983 146.023 283.214 145.359 283.113 144.703L281.136 145.007ZM274.439 206.351L276.008 207.59C276.486 206.985 276.573 206.16 276.233 205.468C275.893 204.777 275.186 204.342 274.416 204.351L274.439 206.351ZM274.437 206.353L272.867 205.114C272.392 205.715 272.303 206.535 272.637 207.225C272.971 207.915 273.67 208.353 274.437 208.353V206.353ZM383.563 206.353V208.353C384.668 208.353 385.563 207.458 385.563 206.353H383.563ZM383.54 208.351C383.668 208.352 383.796 208.353 383.924 208.353V204.353C383.811 204.353 383.699 204.352 383.586 204.351L383.54 208.351ZM383.924 208.353C402.192 208.353 417 193.544 417 175.277H413C413 191.335 399.982 204.353 383.924 204.353V208.353ZM417 175.277C417 157.01 402.192 142.202 383.924 142.202V146.202C399.982 146.202 413 159.219 413 175.277H417ZM383.924 142.202C383.796 142.202 383.668 142.202 383.54 142.204L383.586 146.204C383.698 146.202 383.811 146.202 383.924 146.202V142.202ZM381.563 144.202V144.204H385.563V144.202H381.563ZM375.535 146.202H383.563V142.202H375.535V146.202ZM377.517 144.472C377.819 142.256 377.975 139.994 377.975 137.697H373.975C373.975 139.813 373.831 141.894 373.553 143.931L377.517 144.472ZM377.975 137.697C377.975 110.25 355.724 88 328.277 88V92C353.515 92 373.975 112.459 373.975 137.697H377.975ZM328.277 88C300.83 88 278.58 110.25 278.58 137.697H282.58C282.58 112.459 303.039 92 328.277 92V88ZM278.58 137.697C278.58 140.285 278.778 142.828 279.16 145.311L283.113 144.703C282.762 142.421 282.58 140.081 282.58 137.697H278.58ZM281.589 143.059C279.173 142.498 276.658 142.202 274.076 142.202V146.202C276.351 146.202 278.563 146.463 280.684 146.955L281.589 143.059ZM274.076 142.202C255.808 142.202 241 157.01 241 175.277H245C245 159.219 258.018 146.202 274.076 146.202V142.202ZM241 175.277C241 193.544 255.808 208.353 274.076 208.353V204.353C258.018 204.353 245 191.335 245 175.277H241ZM274.076 208.353C274.204 208.353 274.333 208.352 274.461 208.351L274.416 204.351C274.303 204.352 274.189 204.353 274.076 204.353V208.353ZM276.007 207.592L276.008 207.59L272.869 205.112L272.867 205.114L276.007 207.592ZM383.563 204.353H274.437V208.353H383.563V204.353ZM381.563 206.351V206.353H385.563V206.351H381.563Z" fill="url(#paint7_linear_108_1915)" mask="url(#path-81-inside-3_108_1915)"/>
</g>
<defs>
<filter id="filter0_bd_108_1915" x="0" y="20" width="272" height="216.353" filterUnits="userSpaceOnUse" color-interpolation-filters="sRGB">
<feFlood flood-opacity="0" result="BackgroundImageFix"/>
<feGaussianBlur in="BackgroundImageFix" stdDeviation="7"/>
<feComposite in2="SourceAlpha" operator="in" result="effect1_backgroundBlur_108_1915"/>
<feColorMatrix in="SourceAlpha" type="matrix" values="0 0 0 0 0 0 0 0 0 0 0 0 0 0 0 0 0 0 127 0" result="hardAlpha"/>
<feOffset dx="-21" dy="15"/>
<feGaussianBlur stdDeviation="25"/>
<feComposite in2="hardAlpha" operator="out"/>
<feColorMatrix type="matrix" values="0 0 0 0 0.113438 0 0 0 0 0.148981 0 0 0 0 0.275 0 0 0 0.25 0"/>
<feBlend mode="normal" in2="effect1_backgroundBlur_108_1915" result="effect2_dropShadow_108_1915"/>
<feBlend mode="normal" in="SourceGraphic" in2="effect2_dropShadow_108_1915" result="shape"/>
</filter>
<filter id="filter1_bd_108_1915" x="40" y="55" width="338" height="261" filterUnits="userSpaceOnUse" color-interpolation-filters="sRGB">
<feFlood flood-opacity="0" result="BackgroundImageFix"/>
<feGaussianBlur in="BackgroundImageFix" stdDeviation="7"/>
<feComposite in2="SourceAlpha" operator="in" result="effect1_backgroundBlur_108_1915"/>
<feColorMatrix in="SourceAlpha" type="matrix" values="0 0 0 0 0 0 0 0 0 0 0 0 0 0 0 0 0 0 127 0" result="hardAlpha"/>
<feOffset dx="-21" dy="15"/>
<feGaussianBlur stdDeviation="25"/>
<feComposite in2="hardAlpha" operator="out"/>
<feColorMatrix type="matrix" values="0 0 0 0 0.113725 0 0 0 0 0.14902 0 0 0 0 0.27451 0 0 0 0.25 0"/>
<feBlend mode="normal" in2="effect1_backgroundBlur_108_1915" result="effect2_dropShadow_108_1915"/>
<feBlend mode="normal" in="SourceGraphic" in2="effect2_dropShadow_108_1915" result="shape"/>
</filter>
<filter id="filter2_bd_108_1915" x="172" y="55" width="272" height="216.353" filterUnits="userSpaceOnUse" color-interpolation-filters="sRGB">
<feFlood flood-opacity="0" result="BackgroundImageFix"/>
<feGaussianBlur in="BackgroundImageFix" stdDeviation="7"/>
<feComposite in2="SourceAlpha" operator="in" result="effect1_backgroundBlur_108_1915"/>
<feColorMatrix in="SourceAlpha" type="matrix" values="0 0 0 0 0 0 0 0 0 0 0 0 0 0 0 0 0 0 127 0" result="hardAlpha"/>
<feOffset dx="-21" dy="15"/>
<feGaussianBlur stdDeviation="25"/>
<feComposite in2="hardAlpha" operator="out"/>
<feColorMatrix type="matrix" values="0 0 0 0 0.113438 0 0 0 0 0.148981 0 0 0 0 0.275 0 0 0 0.25 0"/>
<feBlend mode="normal" in2="effect1_backgroundBlur_108_1915" result="effect2_dropShadow_108_1915"/>
<feBlend mode="normal" in="SourceGraphic" in2="effect2_dropShadow_108_1915" result="shape"/>
</filter>
<linearGradient id="paint0_linear_108_1915" x1="255.108" y1="0" x2="255.108" y2="148.217" gradientUnits="userSpaceOnUse">
<stop stop-color="#FFE600"/>
<stop offset="1" stop-color="#FF7A00"/>
</linearGradient>
<linearGradient id="paint1_linear_108_1915" x1="255.108" y1="0" x2="255.108" y2="148.217" gradientUnits="userSpaceOnUse">
<stop stop-color="white"/>
<stop offset="1" stop-color="white" stop-opacity="0"/>
</linearGradient>
<linearGradient id="paint2_linear_108_1915" x1="165" y1="58.5" x2="165" y2="184.5" gradientUnits="userSpaceOnUse">
<stop stop-color="white"/>
<stop offset="1" stop-color="white" stop-opacity="0"/>
</linearGradient>
<linearGradient id="paint3_linear_108_1915" x1="157" y1="55" x2="157" y2="171.353" gradientUnits="userSpaceOnUse">
<stop stop-color="white"/>
<stop offset="1" stop-color="white" stop-opacity="0"/>
</linearGradient>
<linearGradient id="paint4_linear_108_1915" x1="230" y1="38.5" x2="230" y2="273.5" gradientUnits="userSpaceOnUse">
<stop stop-color="white"/>
<stop offset="1" stop-color="white" stop-opacity="0"/>
</linearGradient>
<linearGradient id="paint5_linear_108_1915" x1="230" y1="90" x2="230" y2="251" gradientUnits="userSpaceOnUse">
<stop stop-color="white"/>
<stop offset="1" stop-color="white" stop-opacity="0"/>
</linearGradient>
<linearGradient id="paint6_linear_108_1915" x1="337" y1="93.5" x2="337" y2="219.5" gradientUnits="userSpaceOnUse">
<stop stop-color="white"/>
<stop offset="1" stop-color="white" stop-opacity="0"/>
</linearGradient>
<linearGradient id="paint7_linear_108_1915" x1="329" y1="90" x2="329" y2="206.353" gradientUnits="userSpaceOnUse">
<stop stop-color="white"/>
<stop offset="1" stop-color="white" stop-opacity="0"/>
</linearGradient>
</defs>
</svg>
