<svg width="404" height="367" viewBox="0 0 404 367" fill="none" xmlns="http://www.w3.org/2000/svg">
<g filter="url(#filter0_bdd_108_2355)">
<mask id="path-1-inside-1_108_2355" fill="white">
<path fill-rule="evenodd" clip-rule="evenodd" d="M210.273 38.9739C213.653 38.4384 215.674 42.4061 213.95 45.3613C204.817 61.0099 203.809 81.3668 213.024 99.282C225.241 123.033 251.399 134.662 275.1 128.46C278.431 127.588 281.746 130.629 280.316 133.761C274.742 145.961 265.351 156.321 252.739 162.808C221.754 178.746 183.062 165.277 166.318 132.725C149.574 100.172 161.118 60.8629 192.103 44.9252C197.952 41.9169 204.075 39.9562 210.273 38.9739Z"/>
</mask>
<path fill-rule="evenodd" clip-rule="evenodd" d="M210.273 38.9739C213.653 38.4384 215.674 42.4061 213.95 45.3613C204.817 61.0099 203.809 81.3668 213.024 99.282C225.241 123.033 251.399 134.662 275.1 128.46C278.431 127.588 281.746 130.629 280.316 133.761C274.742 145.961 265.351 156.321 252.739 162.808C221.754 178.746 183.062 165.277 166.318 132.725C149.574 100.172 161.118 60.8629 192.103 44.9252C197.952 41.9169 204.075 39.9562 210.273 38.9739Z" fill="url(#paint0_linear_108_2355)"/>
<path d="M275.1 128.46L275.606 130.395L275.1 128.46ZM213.95 45.3613L212.222 44.3532L213.95 45.3613ZM210.273 38.9739L210.586 40.9493L210.273 38.9739ZM214.802 98.3671C205.899 81.0581 206.89 61.4263 215.677 46.3694L212.222 44.3532C202.745 60.5934 201.719 81.6755 211.245 100.197L214.802 98.3671ZM274.594 126.525C251.843 132.479 226.612 121.326 214.802 98.3671L211.245 100.197C223.87 124.741 250.956 136.846 275.606 130.395L274.594 126.525ZM278.497 132.93C273.099 144.744 264.016 154.759 251.824 161.03L253.653 164.587C266.686 157.883 276.385 147.178 282.135 134.592L278.497 132.93ZM251.824 161.03C221.903 176.42 184.378 163.464 168.096 131.81L164.539 133.639C181.745 167.09 221.605 181.072 253.653 164.587L251.824 161.03ZM168.096 131.81C151.814 100.156 163.097 62.0942 193.018 46.7037L191.188 43.1467C159.139 59.6317 147.333 100.188 164.539 133.639L168.096 131.81ZM193.018 46.7037C198.675 43.7941 204.594 41.8989 210.586 40.9493L209.96 36.9986C203.556 38.0136 197.229 40.0396 191.188 43.1467L193.018 46.7037ZM275.606 130.395C276.553 130.147 277.501 130.459 278.095 131.039C278.653 131.584 278.81 132.244 278.497 132.93L282.135 134.592C283.252 132.146 282.467 129.72 280.892 128.179C279.353 126.674 276.977 125.901 274.594 126.525L275.606 130.395ZM215.677 46.3694C216.913 44.2521 216.811 41.7714 215.778 39.8945C214.72 37.9725 212.602 36.58 209.96 36.9986L210.586 40.9493C211.325 40.8323 211.906 41.1559 212.273 41.8227C212.665 42.5346 212.711 43.5153 212.222 44.3532L215.677 46.3694Z" fill="url(#paint1_linear_108_2355)" mask="url(#path-1-inside-1_108_2355)"/>
</g>
<path d="M328.427 318.089V350.119" stroke="#42A0F0" stroke-width="3" stroke-linecap="round"/>
<path d="M328.356 325.919L334.435 320.225" stroke="#42A0F0" stroke-width="3" stroke-linecap="round"/>
<path d="M328.356 325.919L322.081 320.225" stroke="#42A0F0" stroke-width="3" stroke-linecap="round"/>
<path d="M328.356 343.001L334.435 348.695" stroke="#42A0F0" stroke-width="3" stroke-linecap="round"/>
<path d="M328.356 343.001L322.081 348.695" stroke="#42A0F0" stroke-width="3" stroke-linecap="round"/>
<path d="M343.627 326.229L313.058 342.244" stroke="#42A0F0" stroke-width="3" stroke-linecap="round"/>
<path d="M336.119 330.088L344.593 332.018" stroke="#42A0F0" stroke-width="3" stroke-linecap="round"/>
<path d="M336.119 330.088L338.416 322.31" stroke="#42A0F0" stroke-width="3" stroke-linecap="round"/>
<path d="M319.816 338.63L317.421 346.254" stroke="#42A0F0" stroke-width="3" stroke-linecap="round"/>
<path d="M319.816 338.63L311.244 336.545" stroke="#42A0F0" stroke-width="3" stroke-linecap="round"/>
<path d="M343.458 342.244L312.89 326.229" stroke="#42A0F0" stroke-width="3" stroke-linecap="round"/>
<path d="M336.022 338.274L338.416 345.898" stroke="#42A0F0" stroke-width="3" stroke-linecap="round"/>
<path d="M336.022 338.274L344.593 336.19" stroke="#42A0F0" stroke-width="3" stroke-linecap="round"/>
<path d="M319.718 329.732L311.244 331.663" stroke="#42A0F0" stroke-width="3" stroke-linecap="round"/>
<path d="M319.718 329.732L317.421 321.954" stroke="#42A0F0" stroke-width="3" stroke-linecap="round"/>
<path d="M265.929 318.089V350.119" stroke="#42A0F0" stroke-width="3" stroke-linecap="round"/>
<path d="M265.858 325.919L271.937 320.225" stroke="#42A0F0" stroke-width="3" stroke-linecap="round"/>
<path d="M265.858 325.919L259.583 320.225" stroke="#42A0F0" stroke-width="3" stroke-linecap="round"/>
<path d="M265.858 343.001L271.937 348.695" stroke="#42A0F0" stroke-width="3" stroke-linecap="round"/>
<path d="M265.858 343.001L259.583 348.695" stroke="#42A0F0" stroke-width="3" stroke-linecap="round"/>
<path d="M281.129 326.229L250.56 342.244" stroke="#42A0F0" stroke-width="3" stroke-linecap="round"/>
<path d="M273.621 330.088L282.095 332.018" stroke="#42A0F0" stroke-width="3" stroke-linecap="round"/>
<path d="M273.621 330.088L275.918 322.31" stroke="#42A0F0" stroke-width="3" stroke-linecap="round"/>
<path d="M257.318 338.63L254.923 346.254" stroke="#42A0F0" stroke-width="3" stroke-linecap="round"/>
<path d="M257.318 338.63L248.746 336.545" stroke="#42A0F0" stroke-width="3" stroke-linecap="round"/>
<path d="M280.96 342.244L250.391 326.229" stroke="#42A0F0" stroke-width="3" stroke-linecap="round"/>
<path d="M273.523 338.274L275.918 345.898" stroke="#42A0F0" stroke-width="3" stroke-linecap="round"/>
<path d="M273.523 338.274L282.095 336.19" stroke="#42A0F0" stroke-width="3" stroke-linecap="round"/>
<path d="M257.22 329.732L248.746 331.663" stroke="#42A0F0" stroke-width="3" stroke-linecap="round"/>
<path d="M257.22 329.732L254.923 321.954" stroke="#42A0F0" stroke-width="3" stroke-linecap="round"/>
<path d="M203.542 318.089V350.119" stroke="#42A0F0" stroke-width="3" stroke-linecap="round"/>
<path d="M203.47 325.919L209.549 320.225" stroke="#42A0F0" stroke-width="3" stroke-linecap="round"/>
<path d="M203.47 325.919L197.195 320.225" stroke="#42A0F0" stroke-width="3" stroke-linecap="round"/>
<path d="M203.47 343.001L209.549 348.695" stroke="#42A0F0" stroke-width="3" stroke-linecap="round"/>
<path d="M203.47 343.001L197.195 348.695" stroke="#42A0F0" stroke-width="3" stroke-linecap="round"/>
<path d="M218.742 326.229L188.173 342.244" stroke="#42A0F0" stroke-width="3" stroke-linecap="round"/>
<path d="M211.234 330.088L219.708 332.018" stroke="#42A0F0" stroke-width="3" stroke-linecap="round"/>
<path d="M211.234 330.088L213.531 322.31" stroke="#42A0F0" stroke-width="3" stroke-linecap="round"/>
<path d="M194.931 338.63L192.536 346.254" stroke="#42A0F0" stroke-width="3" stroke-linecap="round"/>
<path d="M194.931 338.63L186.359 336.545" stroke="#42A0F0" stroke-width="3" stroke-linecap="round"/>
<path d="M218.573 342.244L188.004 326.229" stroke="#42A0F0" stroke-width="3" stroke-linecap="round"/>
<path d="M211.136 338.274L213.531 345.898" stroke="#42A0F0" stroke-width="3" stroke-linecap="round"/>
<path d="M211.136 338.274L219.708 336.19" stroke="#42A0F0" stroke-width="3" stroke-linecap="round"/>
<path d="M194.833 329.732L186.359 331.663" stroke="#42A0F0" stroke-width="3" stroke-linecap="round"/>
<path d="M194.833 329.732L192.536 321.954" stroke="#42A0F0" stroke-width="3" stroke-linecap="round"/>
<path d="M233.729 270V302.03" stroke="#42A0F0" stroke-width="3" stroke-linecap="round"/>
<path d="M233.658 277.829L239.737 272.135" stroke="#42A0F0" stroke-width="3" stroke-linecap="round"/>
<path d="M233.658 277.829L227.383 272.135" stroke="#42A0F0" stroke-width="3" stroke-linecap="round"/>
<path d="M233.658 294.912L239.737 300.606" stroke="#42A0F0" stroke-width="3" stroke-linecap="round"/>
<path d="M233.658 294.912L227.383 300.606" stroke="#42A0F0" stroke-width="3" stroke-linecap="round"/>
<path d="M248.929 278.14L218.361 294.155" stroke="#42A0F0" stroke-width="3" stroke-linecap="round"/>
<path d="M241.421 281.999L249.895 283.929" stroke="#42A0F0" stroke-width="3" stroke-linecap="round"/>
<path d="M241.422 281.999L243.718 274.221" stroke="#42A0F0" stroke-width="3" stroke-linecap="round"/>
<path d="M225.118 290.54L222.723 298.165" stroke="#42A0F0" stroke-width="3" stroke-linecap="round"/>
<path d="M225.118 290.54L216.546 288.456" stroke="#42A0F0" stroke-width="3" stroke-linecap="round"/>
<path d="M248.76 294.155L218.191 278.14" stroke="#42A0F0" stroke-width="3" stroke-linecap="round"/>
<path d="M241.324 290.185L243.718 297.809" stroke="#42A0F0" stroke-width="3" stroke-linecap="round"/>
<path d="M241.324 290.185L249.895 288.1" stroke="#42A0F0" stroke-width="3" stroke-linecap="round"/>
<path d="M225.02 281.643L216.546 283.573" stroke="#42A0F0" stroke-width="3" stroke-linecap="round"/>
<path d="M225.02 281.643L222.723 273.865" stroke="#42A0F0" stroke-width="3" stroke-linecap="round"/>
<path d="M302.825 270V302.03" stroke="#42A0F0" stroke-width="3" stroke-linecap="round"/>
<path d="M302.754 277.829L308.833 272.135" stroke="#42A0F0" stroke-width="3" stroke-linecap="round"/>
<path d="M302.754 277.829L296.479 272.135" stroke="#42A0F0" stroke-width="3" stroke-linecap="round"/>
<path d="M302.754 294.912L308.833 300.606" stroke="#42A0F0" stroke-width="3" stroke-linecap="round"/>
<path d="M302.754 294.912L296.479 300.606" stroke="#42A0F0" stroke-width="3" stroke-linecap="round"/>
<path d="M318.025 278.14L287.456 294.155" stroke="#42A0F0" stroke-width="3" stroke-linecap="round"/>
<path d="M310.517 281.999L318.991 283.929" stroke="#42A0F0" stroke-width="3" stroke-linecap="round"/>
<path d="M310.517 281.999L312.814 274.221" stroke="#42A0F0" stroke-width="3" stroke-linecap="round"/>
<path d="M294.214 290.54L291.819 298.165" stroke="#42A0F0" stroke-width="3" stroke-linecap="round"/>
<path d="M294.214 290.54L285.642 288.456" stroke="#42A0F0" stroke-width="3" stroke-linecap="round"/>
<path d="M317.856 294.155L287.287 278.14" stroke="#42A0F0" stroke-width="3" stroke-linecap="round"/>
<path d="M310.419 290.185L312.814 297.809" stroke="#42A0F0" stroke-width="3" stroke-linecap="round"/>
<path d="M310.419 290.185L318.991 288.1" stroke="#42A0F0" stroke-width="3" stroke-linecap="round"/>
<path d="M294.116 281.643L285.642 283.573" stroke="#42A0F0" stroke-width="3" stroke-linecap="round"/>
<path d="M294.116 281.643L291.819 273.865" stroke="#42A0F0" stroke-width="3" stroke-linecap="round"/>
<g filter="url(#filter1_bd_108_2355)">
<mask id="path-78-inside-2_108_2355" fill="white">
<path fill-rule="evenodd" clip-rule="evenodd" d="M265.5 301.997C265.666 301.999 265.833 302 266 302C289.748 302 309 282.748 309 259C309 235.252 289.748 216 266 216C265.833 216 265.666 216.001 265.5 216.003V216H254.391C254.793 213.057 255 210.053 255 207C255 170.549 225.451 141 189 141C152.549 141 123 170.549 123 207C123 210.439 123.263 213.817 123.77 217.115C120.631 216.386 117.361 216 114 216C90.2518 216 71 235.252 71 259C71 282.748 90.2518 302 114 302C114.168 302 114.335 301.999 114.502 301.997L114.5 302H265.5V301.997Z"/>
</mask>
<path fill-rule="evenodd" clip-rule="evenodd" d="M265.5 301.997C265.666 301.999 265.833 302 266 302C289.748 302 309 282.748 309 259C309 235.252 289.748 216 266 216C265.833 216 265.666 216.001 265.5 216.003V216H254.391C254.793 213.057 255 210.053 255 207C255 170.549 225.451 141 189 141C152.549 141 123 170.549 123 207C123 210.439 123.263 213.817 123.77 217.115C120.631 216.386 117.361 216 114 216C90.2518 216 71 235.252 71 259C71 282.748 90.2518 302 114 302C114.168 302 114.335 301.999 114.502 301.997L114.5 302H265.5V301.997Z" fill="url(#paint2_linear_108_2355)" shape-rendering="crispEdges"/>
<path d="M265.5 301.997L265.523 299.997C264.988 299.991 264.474 300.199 264.094 300.575C263.714 300.951 263.5 301.463 263.5 301.997H265.5ZM265.5 216.003H263.5C263.5 216.537 263.714 217.049 264.094 217.425C264.474 217.801 264.988 218.009 265.523 218.003L265.5 216.003ZM265.5 216H267.5C267.5 214.895 266.605 214 265.5 214V216ZM254.391 216L252.41 215.73C252.332 216.302 252.505 216.88 252.885 217.315C253.265 217.75 253.814 218 254.391 218V216ZM123.77 217.115L123.318 219.063C123.964 219.213 124.643 219.033 125.13 218.582C125.617 218.13 125.848 217.467 125.747 216.811L123.77 217.115ZM114.502 301.997L116.072 303.237C116.549 302.632 116.637 301.807 116.297 301.115C115.957 300.423 115.25 299.988 114.479 299.997L114.502 301.997ZM114.5 302L112.931 300.76C112.455 301.362 112.366 302.182 112.7 302.872C113.034 303.562 113.733 304 114.5 304V302ZM265.5 302V304C266.605 304 267.5 303.105 267.5 302H265.5ZM265.477 303.997C265.651 303.999 265.825 304 266 304V300C265.841 300 265.682 299.999 265.523 299.997L265.477 303.997ZM266 304C290.853 304 311 283.853 311 259H307C307 281.644 288.644 300 266 300V304ZM311 259C311 234.147 290.853 214 266 214V218C288.644 218 307 236.356 307 259H311ZM266 214C265.826 214 265.651 214.001 265.477 214.003L265.523 218.003C265.682 218.001 265.841 218 266 218V214ZM263.5 216V216.003H267.5V216H263.5ZM254.391 218H265.5V214H254.391V218ZM256.373 216.27C256.787 213.238 257 210.143 257 207H253C253 209.962 252.799 212.876 252.41 215.73L256.373 216.27ZM257 207C257 169.445 226.555 139 189 139V143C224.346 143 253 171.654 253 207H257ZM189 139C151.445 139 121 169.445 121 207H125C125 171.654 153.654 143 189 143V139ZM121 207C121 210.542 121.271 214.021 121.793 217.419L125.747 216.811C125.255 213.614 125 210.337 125 207H121ZM124.223 215.167C120.937 214.403 117.514 214 114 214V218C117.207 218 120.326 218.368 123.318 219.063L124.223 215.167ZM114 214C89.1472 214 69 234.147 69 259H73C73 236.356 91.3563 218 114 218V214ZM69 259C69 283.853 89.1472 304 114 304V300C91.3563 300 73 281.644 73 259H69ZM114 304C114.175 304 114.35 303.999 114.525 303.997L114.479 299.997C114.32 299.999 114.16 300 114 300V304ZM116.069 303.24L116.072 303.237L112.933 300.757L112.931 300.76L116.069 303.24ZM265.5 300H114.5V304H265.5V300ZM263.5 301.997V302H267.5V301.997H263.5Z" fill="url(#paint3_linear_108_2355)" mask="url(#path-78-inside-2_108_2355)"/>
</g>
<g filter="url(#filter2_bd_108_2355)">
<mask id="path-80-inside-3_108_2355" fill="white">
<path fill-rule="evenodd" clip-rule="evenodd" d="M343.563 257.351C343.683 257.352 343.804 257.353 343.924 257.353C361.087 257.353 375 243.44 375 226.277C375 209.115 361.087 195.202 343.924 195.202C343.804 195.202 343.683 195.202 343.563 195.204V195.202H335.535C335.825 193.075 335.975 190.904 335.975 188.697C335.975 162.355 314.62 141 288.277 141C261.935 141 240.58 162.355 240.58 188.697C240.58 191.183 240.77 193.624 241.136 196.007C238.868 195.48 236.504 195.202 234.076 195.202C216.913 195.202 203 209.115 203 226.277C203 243.44 216.913 257.353 234.076 257.353C234.197 257.353 234.318 257.352 234.439 257.351L234.437 257.353H343.563V257.351Z"/>
</mask>
<path fill-rule="evenodd" clip-rule="evenodd" d="M343.563 257.351C343.683 257.352 343.804 257.353 343.924 257.353C361.087 257.353 375 243.44 375 226.277C375 209.115 361.087 195.202 343.924 195.202C343.804 195.202 343.683 195.202 343.563 195.204V195.202H335.535C335.825 193.075 335.975 190.904 335.975 188.697C335.975 162.355 314.62 141 288.277 141C261.935 141 240.58 162.355 240.58 188.697C240.58 191.183 240.77 193.624 241.136 196.007C238.868 195.48 236.504 195.202 234.076 195.202C216.913 195.202 203 209.115 203 226.277C203 243.44 216.913 257.353 234.076 257.353C234.197 257.353 234.318 257.352 234.439 257.351L234.437 257.353H343.563V257.351Z" fill="url(#paint4_linear_108_2355)" shape-rendering="crispEdges"/>
<path d="M343.563 257.351L343.586 255.351C343.052 255.345 342.537 255.553 342.157 255.929C341.777 256.304 341.563 256.816 341.563 257.351H343.563ZM343.563 195.204H341.563C341.563 195.738 341.777 196.25 342.157 196.626C342.537 197.002 343.051 197.21 343.586 197.204L343.563 195.204ZM343.563 195.202H345.563C345.563 194.097 344.668 193.202 343.563 193.202V195.202ZM335.535 195.202L333.553 194.931C333.475 195.504 333.649 196.082 334.028 196.517C334.408 196.952 334.957 197.202 335.535 197.202V195.202ZM241.136 196.007L240.684 197.955C241.33 198.106 242.009 197.925 242.496 197.474C242.983 197.023 243.214 196.359 243.113 195.703L241.136 196.007ZM234.439 257.351L236.008 258.59C236.486 257.985 236.573 257.16 236.233 256.468C235.893 255.777 235.186 255.342 234.416 255.351L234.439 257.351ZM234.437 257.353L232.867 256.114C232.392 256.715 232.303 257.535 232.637 258.225C232.971 258.915 233.67 259.353 234.437 259.353V257.353ZM343.563 257.353V259.353C344.668 259.353 345.563 258.458 345.563 257.353H343.563ZM343.54 259.351C343.668 259.352 343.796 259.353 343.924 259.353V255.353C343.811 255.353 343.699 255.352 343.586 255.351L343.54 259.351ZM343.924 259.353C362.192 259.353 377 244.544 377 226.277H373C373 242.335 359.982 255.353 343.924 255.353V259.353ZM377 226.277C377 208.01 362.192 193.202 343.924 193.202V197.202C359.982 197.202 373 210.219 373 226.277H377ZM343.924 193.202C343.796 193.202 343.668 193.202 343.54 193.204L343.586 197.204C343.698 197.202 343.811 197.202 343.924 197.202V193.202ZM341.563 195.202V195.204H345.563V195.202H341.563ZM335.535 197.202H343.563V193.202H335.535V197.202ZM337.517 195.472C337.819 193.256 337.975 190.994 337.975 188.697H333.975C333.975 190.813 333.831 192.894 333.553 194.931L337.517 195.472ZM337.975 188.697C337.975 161.25 315.724 139 288.277 139V143C313.515 143 333.975 163.459 333.975 188.697H337.975ZM288.277 139C260.83 139 238.58 161.25 238.58 188.697H242.58C242.58 163.459 263.039 143 288.277 143V139ZM238.58 188.697C238.58 191.285 238.778 193.828 239.16 196.311L243.113 195.703C242.762 193.421 242.58 191.081 242.58 188.697H238.58ZM241.589 194.059C239.173 193.498 236.658 193.202 234.076 193.202V197.202C236.351 197.202 238.563 197.463 240.684 197.955L241.589 194.059ZM234.076 193.202C215.808 193.202 201 208.01 201 226.277H205C205 210.219 218.018 197.202 234.076 197.202V193.202ZM201 226.277C201 244.544 215.808 259.353 234.076 259.353V255.353C218.018 255.353 205 242.335 205 226.277H201ZM234.076 259.353C234.204 259.353 234.333 259.352 234.461 259.351L234.416 255.351C234.303 255.352 234.189 255.353 234.076 255.353V259.353ZM236.007 258.592L236.008 258.59L232.869 256.112L232.867 256.114L236.007 258.592ZM343.563 255.353H234.437V259.353H343.563V255.353ZM341.563 257.351V257.353H345.563V257.351H341.563Z" fill="url(#paint5_linear_108_2355)" mask="url(#path-80-inside-3_108_2355)"/>
</g>
<defs>
<filter id="filter0_bdd_108_2355" x="87.6377" y="0.924953" width="231.02" height="233.584" filterUnits="userSpaceOnUse" color-interpolation-filters="sRGB">
<feFlood flood-opacity="0" result="BackgroundImageFix"/>
<feGaussianBlur in="BackgroundImageFix" stdDeviation="7"/>
<feComposite in2="SourceAlpha" operator="in" result="effect1_backgroundBlur_108_2355"/>
<feColorMatrix in="SourceAlpha" type="matrix" values="0 0 0 0 0 0 0 0 0 0 0 0 0 0 0 0 0 0 127 0" result="hardAlpha"/>
<feOffset dx="-21" dy="15"/>
<feGaussianBlur stdDeviation="25"/>
<feComposite in2="hardAlpha" operator="out"/>
<feColorMatrix type="matrix" values="0 0 0 0 0.113438 0 0 0 0 0.148981 0 0 0 0 0.275 0 0 0 0.25 0"/>
<feBlend mode="normal" in2="effect1_backgroundBlur_108_2355" result="effect2_dropShadow_108_2355"/>
<feColorMatrix in="SourceAlpha" type="matrix" values="0 0 0 0 0 0 0 0 0 0 0 0 0 0 0 0 0 0 127 0" result="hardAlpha"/>
<feOffset/>
<feGaussianBlur stdDeviation="19"/>
<feComposite in2="hardAlpha" operator="out"/>
<feColorMatrix type="matrix" values="0 0 0 0 0.619608 0 0 0 0 0.423529 0 0 0 0 1 0 0 0 0.4 0"/>
<feBlend mode="normal" in2="effect2_dropShadow_108_2355" result="effect3_dropShadow_108_2355"/>
<feBlend mode="normal" in="SourceGraphic" in2="effect3_dropShadow_108_2355" result="shape"/>
</filter>
<filter id="filter1_bd_108_2355" x="0" y="106" width="338" height="261" filterUnits="userSpaceOnUse" color-interpolation-filters="sRGB">
<feFlood flood-opacity="0" result="BackgroundImageFix"/>
<feGaussianBlur in="BackgroundImageFix" stdDeviation="7"/>
<feComposite in2="SourceAlpha" operator="in" result="effect1_backgroundBlur_108_2355"/>
<feColorMatrix in="SourceAlpha" type="matrix" values="0 0 0 0 0 0 0 0 0 0 0 0 0 0 0 0 0 0 127 0" result="hardAlpha"/>
<feOffset dx="-21" dy="15"/>
<feGaussianBlur stdDeviation="25"/>
<feComposite in2="hardAlpha" operator="out"/>
<feColorMatrix type="matrix" values="0 0 0 0 0.113725 0 0 0 0 0.14902 0 0 0 0 0.27451 0 0 0 0.25 0"/>
<feBlend mode="normal" in2="effect1_backgroundBlur_108_2355" result="effect2_dropShadow_108_2355"/>
<feBlend mode="normal" in="SourceGraphic" in2="effect2_dropShadow_108_2355" result="shape"/>
</filter>
<filter id="filter2_bd_108_2355" x="132" y="106" width="272" height="216.353" filterUnits="userSpaceOnUse" color-interpolation-filters="sRGB">
<feFlood flood-opacity="0" result="BackgroundImageFix"/>
<feGaussianBlur in="BackgroundImageFix" stdDeviation="7"/>
<feComposite in2="SourceAlpha" operator="in" result="effect1_backgroundBlur_108_2355"/>
<feColorMatrix in="SourceAlpha" type="matrix" values="0 0 0 0 0 0 0 0 0 0 0 0 0 0 0 0 0 0 127 0" result="hardAlpha"/>
<feOffset dx="-21" dy="15"/>
<feGaussianBlur stdDeviation="25"/>
<feComposite in2="hardAlpha" operator="out"/>
<feColorMatrix type="matrix" values="0 0 0 0 0.113438 0 0 0 0 0.148981 0 0 0 0 0.275 0 0 0 0.25 0"/>
<feBlend mode="normal" in2="effect1_backgroundBlur_108_2355" result="effect2_dropShadow_108_2355"/>
<feBlend mode="normal" in="SourceGraphic" in2="effect2_dropShadow_108_2355" result="shape"/>
</filter>
<linearGradient id="paint0_linear_108_2355" x1="179.945" y1="52.4921" x2="240.581" y2="170.375" gradientUnits="userSpaceOnUse">
<stop offset="0.0001" stop-color="#D4C0FF"/>
<stop offset="1" stop-color="#7E2FFF"/>
</linearGradient>
<linearGradient id="paint1_linear_108_2355" x1="184.757" y1="-11.4071" x2="220.241" y2="143.283" gradientUnits="userSpaceOnUse">
<stop stop-color="white"/>
<stop offset="1" stop-color="white" stop-opacity="0"/>
</linearGradient>
<linearGradient id="paint2_linear_108_2355" x1="190" y1="89.5" x2="190" y2="324.5" gradientUnits="userSpaceOnUse">
<stop stop-color="white"/>
<stop offset="1" stop-color="white" stop-opacity="0"/>
</linearGradient>
<linearGradient id="paint3_linear_108_2355" x1="190" y1="141" x2="190" y2="302" gradientUnits="userSpaceOnUse">
<stop stop-color="white"/>
<stop offset="1" stop-color="white" stop-opacity="0"/>
</linearGradient>
<linearGradient id="paint4_linear_108_2355" x1="297" y1="144.5" x2="297" y2="270.5" gradientUnits="userSpaceOnUse">
<stop stop-color="white"/>
<stop offset="1" stop-color="white" stop-opacity="0"/>
</linearGradient>
<linearGradient id="paint5_linear_108_2355" x1="289" y1="141" x2="289" y2="257.353" gradientUnits="userSpaceOnUse">
<stop stop-color="white"/>
<stop offset="1" stop-color="white" stop-opacity="0"/>
</linearGradient>
</defs>
</svg>
