<svg width="351" height="298" viewBox="0 0 351 298" fill="none" xmlns="http://www.w3.org/2000/svg">
<g filter="url(#filter0_bdd_108_2361)">
<mask id="path-1-inside-1_108_2361" fill="white">
<path d="M219 112C219 152.869 185.869 186 145 186C104.131 186 71 152.869 71 112C71 71.1309 104.131 38 145 38C185.869 38 219 71.1309 219 112Z"/>
</mask>
<path d="M219 112C219 152.869 185.869 186 145 186C104.131 186 71 152.869 71 112C71 71.1309 104.131 38 145 38C185.869 38 219 71.1309 219 112Z" fill="url(#paint0_linear_108_2361)"/>
<path d="M217 112C217 151.765 184.765 184 145 184V188C186.974 188 221 153.974 221 112H217ZM145 184C105.235 184 73 151.765 73 112H69C69 153.974 103.026 188 145 188V184ZM73 112C73 72.2355 105.235 40 145 40V36C103.026 36 69 70.0264 69 112H73ZM145 40C184.765 40 217 72.2355 217 112H221C221 70.0264 186.974 36 145 36V40Z" fill="url(#paint1_linear_108_2361)" mask="url(#path-1-inside-1_108_2361)"/>
</g>
<path d="M275.427 264.089V296.119" stroke="#42A0F0" stroke-width="3" stroke-linecap="round"/>
<path d="M275.356 271.919L281.435 266.225" stroke="#42A0F0" stroke-width="3" stroke-linecap="round"/>
<path d="M275.356 271.919L269.081 266.225" stroke="#42A0F0" stroke-width="3" stroke-linecap="round"/>
<path d="M275.356 289.001L281.435 294.695" stroke="#42A0F0" stroke-width="3" stroke-linecap="round"/>
<path d="M275.356 289.001L269.081 294.695" stroke="#42A0F0" stroke-width="3" stroke-linecap="round"/>
<path d="M290.627 272.229L260.058 288.244" stroke="#42A0F0" stroke-width="3" stroke-linecap="round"/>
<path d="M283.119 276.088L291.593 278.018" stroke="#42A0F0" stroke-width="3" stroke-linecap="round"/>
<path d="M283.119 276.088L285.416 268.31" stroke="#42A0F0" stroke-width="3" stroke-linecap="round"/>
<path d="M266.816 284.63L264.421 292.254" stroke="#42A0F0" stroke-width="3" stroke-linecap="round"/>
<path d="M266.816 284.63L258.244 282.545" stroke="#42A0F0" stroke-width="3" stroke-linecap="round"/>
<path d="M290.458 288.244L259.889 272.229" stroke="#42A0F0" stroke-width="3" stroke-linecap="round"/>
<path d="M283.022 284.274L285.416 291.898" stroke="#42A0F0" stroke-width="3" stroke-linecap="round"/>
<path d="M283.022 284.274L291.593 282.19" stroke="#42A0F0" stroke-width="3" stroke-linecap="round"/>
<path d="M266.718 275.732L258.244 277.663" stroke="#42A0F0" stroke-width="3" stroke-linecap="round"/>
<path d="M266.718 275.732L264.421 267.954" stroke="#42A0F0" stroke-width="3" stroke-linecap="round"/>
<path d="M212.929 264.089V296.119" stroke="#42A0F0" stroke-width="3" stroke-linecap="round"/>
<path d="M212.858 271.919L218.937 266.225" stroke="#42A0F0" stroke-width="3" stroke-linecap="round"/>
<path d="M212.858 271.919L206.583 266.225" stroke="#42A0F0" stroke-width="3" stroke-linecap="round"/>
<path d="M212.858 289.001L218.937 294.695" stroke="#42A0F0" stroke-width="3" stroke-linecap="round"/>
<path d="M212.858 289.001L206.583 294.695" stroke="#42A0F0" stroke-width="3" stroke-linecap="round"/>
<path d="M228.129 272.229L197.56 288.244" stroke="#42A0F0" stroke-width="3" stroke-linecap="round"/>
<path d="M220.621 276.088L229.095 278.018" stroke="#42A0F0" stroke-width="3" stroke-linecap="round"/>
<path d="M220.621 276.088L222.918 268.31" stroke="#42A0F0" stroke-width="3" stroke-linecap="round"/>
<path d="M204.318 284.63L201.923 292.254" stroke="#42A0F0" stroke-width="3" stroke-linecap="round"/>
<path d="M204.318 284.63L195.746 282.545" stroke="#42A0F0" stroke-width="3" stroke-linecap="round"/>
<path d="M227.96 288.244L197.391 272.229" stroke="#42A0F0" stroke-width="3" stroke-linecap="round"/>
<path d="M220.523 284.274L222.918 291.898" stroke="#42A0F0" stroke-width="3" stroke-linecap="round"/>
<path d="M220.523 284.274L229.095 282.19" stroke="#42A0F0" stroke-width="3" stroke-linecap="round"/>
<path d="M204.22 275.732L195.746 277.663" stroke="#42A0F0" stroke-width="3" stroke-linecap="round"/>
<path d="M204.22 275.732L201.923 267.954" stroke="#42A0F0" stroke-width="3" stroke-linecap="round"/>
<path d="M150.541 264.089V296.119" stroke="#42A0F0" stroke-width="3" stroke-linecap="round"/>
<path d="M150.47 271.919L156.549 266.225" stroke="#42A0F0" stroke-width="3" stroke-linecap="round"/>
<path d="M150.47 271.919L144.195 266.225" stroke="#42A0F0" stroke-width="3" stroke-linecap="round"/>
<path d="M150.47 289.001L156.549 294.695" stroke="#42A0F0" stroke-width="3" stroke-linecap="round"/>
<path d="M150.47 289.001L144.195 294.695" stroke="#42A0F0" stroke-width="3" stroke-linecap="round"/>
<path d="M165.742 272.229L135.173 288.244" stroke="#42A0F0" stroke-width="3" stroke-linecap="round"/>
<path d="M158.234 276.088L166.708 278.018" stroke="#42A0F0" stroke-width="3" stroke-linecap="round"/>
<path d="M158.234 276.088L160.531 268.31" stroke="#42A0F0" stroke-width="3" stroke-linecap="round"/>
<path d="M141.931 284.63L139.536 292.254" stroke="#42A0F0" stroke-width="3" stroke-linecap="round"/>
<path d="M141.931 284.63L133.359 282.545" stroke="#42A0F0" stroke-width="3" stroke-linecap="round"/>
<path d="M165.573 288.244L135.004 272.229" stroke="#42A0F0" stroke-width="3" stroke-linecap="round"/>
<path d="M158.136 284.274L160.531 291.898" stroke="#42A0F0" stroke-width="3" stroke-linecap="round"/>
<path d="M158.136 284.274L166.708 282.19" stroke="#42A0F0" stroke-width="3" stroke-linecap="round"/>
<path d="M141.833 275.732L133.359 277.663" stroke="#42A0F0" stroke-width="3" stroke-linecap="round"/>
<path d="M141.833 275.732L139.536 267.954" stroke="#42A0F0" stroke-width="3" stroke-linecap="round"/>
<path d="M180.729 216V248.03" stroke="#42A0F0" stroke-width="3" stroke-linecap="round"/>
<path d="M180.658 223.829L186.737 218.135" stroke="#42A0F0" stroke-width="3" stroke-linecap="round"/>
<path d="M180.658 223.829L174.383 218.135" stroke="#42A0F0" stroke-width="3" stroke-linecap="round"/>
<path d="M180.658 240.912L186.737 246.606" stroke="#42A0F0" stroke-width="3" stroke-linecap="round"/>
<path d="M180.658 240.912L174.383 246.606" stroke="#42A0F0" stroke-width="3" stroke-linecap="round"/>
<path d="M195.929 224.14L165.36 240.155" stroke="#42A0F0" stroke-width="3" stroke-linecap="round"/>
<path d="M188.421 227.999L196.895 229.929" stroke="#42A0F0" stroke-width="3" stroke-linecap="round"/>
<path d="M188.421 227.999L190.718 220.221" stroke="#42A0F0" stroke-width="3" stroke-linecap="round"/>
<path d="M172.118 236.54L169.723 244.165" stroke="#42A0F0" stroke-width="3" stroke-linecap="round"/>
<path d="M172.118 236.54L163.546 234.456" stroke="#42A0F0" stroke-width="3" stroke-linecap="round"/>
<path d="M195.76 240.155L165.191 224.14" stroke="#42A0F0" stroke-width="3" stroke-linecap="round"/>
<path d="M188.323 236.185L190.718 243.809" stroke="#42A0F0" stroke-width="3" stroke-linecap="round"/>
<path d="M188.323 236.185L196.895 234.1" stroke="#42A0F0" stroke-width="3" stroke-linecap="round"/>
<path d="M172.02 227.643L163.546 229.573" stroke="#42A0F0" stroke-width="3" stroke-linecap="round"/>
<path d="M172.02 227.643L169.723 219.865" stroke="#42A0F0" stroke-width="3" stroke-linecap="round"/>
<path d="M249.825 216V248.03" stroke="#42A0F0" stroke-width="3" stroke-linecap="round"/>
<path d="M249.753 223.829L255.833 218.135" stroke="#42A0F0" stroke-width="3" stroke-linecap="round"/>
<path d="M249.753 223.829L243.478 218.135" stroke="#42A0F0" stroke-width="3" stroke-linecap="round"/>
<path d="M249.753 240.912L255.833 246.606" stroke="#42A0F0" stroke-width="3" stroke-linecap="round"/>
<path d="M249.753 240.912L243.478 246.606" stroke="#42A0F0" stroke-width="3" stroke-linecap="round"/>
<path d="M265.025 224.14L234.456 240.155" stroke="#42A0F0" stroke-width="3" stroke-linecap="round"/>
<path d="M257.517 227.999L265.991 229.929" stroke="#42A0F0" stroke-width="3" stroke-linecap="round"/>
<path d="M257.517 227.999L259.814 220.221" stroke="#42A0F0" stroke-width="3" stroke-linecap="round"/>
<path d="M241.214 236.54L238.819 244.165" stroke="#42A0F0" stroke-width="3" stroke-linecap="round"/>
<path d="M241.214 236.54L232.642 234.456" stroke="#42A0F0" stroke-width="3" stroke-linecap="round"/>
<path d="M264.856 240.155L234.287 224.14" stroke="#42A0F0" stroke-width="3" stroke-linecap="round"/>
<path d="M257.419 236.185L259.814 243.809" stroke="#42A0F0" stroke-width="3" stroke-linecap="round"/>
<path d="M257.419 236.185L265.991 234.1" stroke="#42A0F0" stroke-width="3" stroke-linecap="round"/>
<path d="M241.116 227.643L232.642 229.573" stroke="#42A0F0" stroke-width="3" stroke-linecap="round"/>
<path d="M241.116 227.643L238.819 219.865" stroke="#42A0F0" stroke-width="3" stroke-linecap="round"/>
<g filter="url(#filter1_bd_108_2361)">
<mask id="path-78-inside-2_108_2361" fill="white">
<path fill-rule="evenodd" clip-rule="evenodd" d="M281.678 230.997C281.829 230.999 281.981 231 282.133 231C303.69 231 321.166 213.524 321.166 191.967C321.166 170.409 303.69 152.933 282.133 152.933C281.981 152.933 281.829 152.934 281.678 152.936V152.933H271.595C271.959 150.262 272.147 147.535 272.147 144.763C272.147 111.675 245.324 84.8517 212.236 84.8517C179.147 84.8517 152.324 111.675 152.324 144.763C152.324 147.885 152.563 150.952 153.023 153.945C150.174 153.283 147.205 152.933 144.155 152.933C122.597 152.933 105.121 170.409 105.121 191.967C105.121 213.524 122.597 231 144.155 231C144.307 231 144.458 230.999 144.61 230.997L144.608 231H281.678V230.997Z"/>
</mask>
<path fill-rule="evenodd" clip-rule="evenodd" d="M281.678 230.997C281.829 230.999 281.981 231 282.133 231C303.69 231 321.166 213.524 321.166 191.967C321.166 170.409 303.69 152.933 282.133 152.933C281.981 152.933 281.829 152.934 281.678 152.936V152.933H271.595C271.959 150.262 272.147 147.535 272.147 144.763C272.147 111.675 245.324 84.8517 212.236 84.8517C179.147 84.8517 152.324 111.675 152.324 144.763C152.324 147.885 152.563 150.952 153.023 153.945C150.174 153.283 147.205 152.933 144.155 152.933C122.597 152.933 105.121 170.409 105.121 191.967C105.121 213.524 122.597 231 144.155 231C144.307 231 144.458 230.999 144.61 230.997L144.608 231H281.678V230.997Z" fill="url(#paint2_linear_108_2361)" shape-rendering="crispEdges"/>
<path d="M281.678 230.997L281.7 228.998C281.166 228.991 280.652 229.199 280.272 229.575C279.892 229.951 279.678 230.463 279.678 230.997H281.678ZM281.678 152.936H279.678C279.678 153.47 279.892 153.983 280.272 154.358C280.652 154.734 281.166 154.942 281.701 154.936L281.678 152.936ZM281.678 152.933H283.678C283.678 151.829 282.782 150.933 281.678 150.933V152.933ZM271.595 152.933L269.613 152.663C269.535 153.236 269.708 153.814 270.088 154.249C270.468 154.684 271.017 154.933 271.595 154.933V152.933ZM153.023 153.945L152.571 155.894C153.217 156.044 153.896 155.863 154.383 155.412C154.87 154.961 155.101 154.297 155 153.641L153.023 153.945ZM144.61 230.997L146.179 232.237C146.657 231.632 146.745 230.807 146.405 230.115C146.065 229.423 145.358 228.989 144.587 228.998L144.61 230.997ZM144.608 231L143.038 229.76C142.563 230.362 142.474 231.182 142.808 231.872C143.142 232.562 143.841 233 144.608 233V231ZM281.678 231V233C282.782 233 283.678 232.105 283.678 231H281.678ZM281.655 232.997C281.814 232.999 281.973 233 282.133 233V229C281.988 229 281.844 228.999 281.7 228.998L281.655 232.997ZM282.133 233C304.795 233 323.166 214.629 323.166 191.967H319.166C319.166 212.42 302.586 229 282.133 229V233ZM323.166 191.967C323.166 169.305 304.795 150.933 282.133 150.933V154.933C302.586 154.933 319.166 171.514 319.166 191.967H323.166ZM282.133 150.933C281.973 150.933 281.814 150.934 281.655 150.936L281.701 154.936C281.844 154.934 281.988 154.933 282.133 154.933V150.933ZM279.678 152.933V152.936H283.678V152.933H279.678ZM271.595 154.933H281.678V150.933H271.595V154.933ZM273.576 153.204C273.953 150.443 274.147 147.625 274.147 144.763H270.147C270.147 147.444 269.965 150.081 269.613 152.663L273.576 153.204ZM274.147 144.763C274.147 110.571 246.428 82.8518 212.236 82.8518V86.8518C244.219 86.8518 270.147 112.78 270.147 144.763H274.147ZM212.236 82.8518C178.043 82.8518 150.324 110.571 150.324 144.763H154.324C154.324 112.78 180.252 86.8518 212.236 86.8518V82.8518ZM150.324 144.763C150.324 147.988 150.571 151.156 151.047 154.249L155 153.641C154.555 150.748 154.324 147.783 154.324 144.763H150.324ZM153.476 151.997C150.479 151.301 147.359 150.933 144.155 150.933V154.933C147.052 154.933 149.869 155.266 152.571 155.894L153.476 151.997ZM144.155 150.933C121.492 150.933 103.121 169.305 103.121 191.967H107.121C107.121 171.514 123.702 154.933 144.155 154.933V150.933ZM103.121 191.967C103.121 214.629 121.492 233 144.155 233V229C123.702 229 107.121 212.42 107.121 191.967H103.121ZM144.155 233C144.314 233 144.473 232.999 144.632 232.997L144.587 228.998C144.443 228.999 144.299 229 144.155 229V233ZM146.177 232.239L146.179 232.237L143.04 229.758L143.038 229.76L146.177 232.239ZM281.678 229H144.608V233H281.678V229ZM279.678 230.997V231H283.678V230.997H279.678Z" fill="url(#paint3_linear_108_2361)" mask="url(#path-78-inside-2_108_2361)"/>
</g>
<defs>
<filter id="filter0_bdd_108_2361" x="0" y="0" width="257" height="251" filterUnits="userSpaceOnUse" color-interpolation-filters="sRGB">
<feFlood flood-opacity="0" result="BackgroundImageFix"/>
<feGaussianBlur in="BackgroundImageFix" stdDeviation="7"/>
<feComposite in2="SourceAlpha" operator="in" result="effect1_backgroundBlur_108_2361"/>
<feColorMatrix in="SourceAlpha" type="matrix" values="0 0 0 0 0 0 0 0 0 0 0 0 0 0 0 0 0 0 127 0" result="hardAlpha"/>
<feOffset dx="-21" dy="15"/>
<feGaussianBlur stdDeviation="25"/>
<feComposite in2="hardAlpha" operator="out"/>
<feColorMatrix type="matrix" values="0 0 0 0 0.113438 0 0 0 0 0.148981 0 0 0 0 0.275 0 0 0 0.25 0"/>
<feBlend mode="normal" in2="effect1_backgroundBlur_108_2361" result="effect2_dropShadow_108_2361"/>
<feColorMatrix in="SourceAlpha" type="matrix" values="0 0 0 0 0 0 0 0 0 0 0 0 0 0 0 0 0 0 127 0" result="hardAlpha"/>
<feOffset/>
<feGaussianBlur stdDeviation="19"/>
<feComposite in2="hardAlpha" operator="out"/>
<feColorMatrix type="matrix" values="0 0 0 0 0.619608 0 0 0 0 0.423529 0 0 0 0 1 0 0 0 0.4 0"/>
<feBlend mode="normal" in2="effect2_dropShadow_108_2361" result="effect3_dropShadow_108_2361"/>
<feBlend mode="normal" in="SourceGraphic" in2="effect3_dropShadow_108_2361" result="shape"/>
</filter>
<filter id="filter1_bd_108_2361" x="34.1213" y="49.8518" width="316.045" height="246.148" filterUnits="userSpaceOnUse" color-interpolation-filters="sRGB">
<feFlood flood-opacity="0" result="BackgroundImageFix"/>
<feGaussianBlur in="BackgroundImageFix" stdDeviation="7"/>
<feComposite in2="SourceAlpha" operator="in" result="effect1_backgroundBlur_108_2361"/>
<feColorMatrix in="SourceAlpha" type="matrix" values="0 0 0 0 0 0 0 0 0 0 0 0 0 0 0 0 0 0 127 0" result="hardAlpha"/>
<feOffset dx="-21" dy="15"/>
<feGaussianBlur stdDeviation="25"/>
<feComposite in2="hardAlpha" operator="out"/>
<feColorMatrix type="matrix" values="0 0 0 0 0.113438 0 0 0 0 0.148981 0 0 0 0 0.275 0 0 0 0.25 0"/>
<feBlend mode="normal" in2="effect1_backgroundBlur_108_2361" result="effect2_dropShadow_108_2361"/>
<feBlend mode="normal" in="SourceGraphic" in2="effect2_dropShadow_108_2361" result="shape"/>
</filter>
<linearGradient id="paint0_linear_108_2361" x1="125.418" y1="41.4288" x2="125.418" y2="203.63" gradientUnits="userSpaceOnUse">
<stop offset="0.0001" stop-color="#DECFFF"/>
<stop offset="1" stop-color="#7E2FFF"/>
</linearGradient>
<linearGradient id="paint1_linear_108_2361" x1="178.555" y1="-25.405" x2="140.61" y2="167.531" gradientUnits="userSpaceOnUse">
<stop stop-color="white"/>
<stop offset="1" stop-color="white" stop-opacity="0"/>
</linearGradient>
<linearGradient id="paint2_linear_108_2361" x1="223.192" y1="89.2481" x2="223.192" y2="247.514" gradientUnits="userSpaceOnUse">
<stop stop-color="white"/>
<stop offset="1" stop-color="white" stop-opacity="0"/>
</linearGradient>
<linearGradient id="paint3_linear_108_2361" x1="213.144" y1="84.8518" x2="213.144" y2="231" gradientUnits="userSpaceOnUse">
<stop stop-color="white"/>
<stop offset="1" stop-color="white" stop-opacity="0"/>
</linearGradient>
</defs>
</svg>
