<svg width="404" height="414" viewBox="0 0 404 414" fill="none" xmlns="http://www.w3.org/2000/svg">
<circle cx="249" cy="59" r="57.5" fill="url(#paint0_linear_108_1470)" stroke="url(#paint1_linear_108_1470)" stroke-width="3"/>
<g filter="url(#filter0_bdd_108_1470)">
<path d="M147.617 257.541L195.431 170.041C195.782 169.399 196.455 169 197.186 169H244.195C245.698 169 246.664 170.596 245.966 171.928L216.034 229.072C215.336 230.404 216.302 232 217.805 232H254.527C256.256 232 257.17 234.045 256.017 235.334L155.581 347.585C154.107 349.233 151.443 347.623 152.217 345.552L182.991 263.2C183.479 261.893 182.513 260.5 181.118 260.5H149.372C147.853 260.5 146.889 258.874 147.617 257.541Z" fill="url(#paint2_linear_108_1470)"/>
<path d="M148.494 258.02L196.309 170.52C196.484 170.2 196.821 170 197.186 170H244.195C244.946 170 245.429 170.798 245.08 171.464L215.148 228.608C214.102 230.605 215.55 233 217.805 233H254.527C255.391 233 255.848 234.023 255.272 234.667L154.836 346.919C154.099 347.743 152.767 346.938 153.154 345.902L183.928 263.55C184.66 261.589 183.211 259.5 181.118 259.5H149.372C148.613 259.5 148.13 258.687 148.494 258.02Z" stroke="url(#paint3_linear_108_1470)" stroke-width="2"/>
</g>
<g filter="url(#filter1_bd_108_1470)">
<mask id="path-4-inside-1_108_1470" fill="white">
<path fill-rule="evenodd" clip-rule="evenodd" d="M265.5 219.997C265.666 219.999 265.833 220 266 220C289.748 220 309 200.748 309 177C309 153.252 289.748 134 266 134C265.833 134 265.666 134.001 265.5 134.003V134H254.391C254.793 131.057 255 128.053 255 125C255 88.5492 225.451 59 189 59C152.549 59 123 88.5492 123 125C123 128.439 123.263 131.817 123.77 135.115C120.631 134.386 117.361 134 114 134C90.2518 134 71 153.252 71 177C71 200.748 90.2518 220 114 220C114.168 220 114.335 219.999 114.502 219.997L114.5 220H265.5V219.997Z"/>
</mask>
<path fill-rule="evenodd" clip-rule="evenodd" d="M265.5 219.997C265.666 219.999 265.833 220 266 220C289.748 220 309 200.748 309 177C309 153.252 289.748 134 266 134C265.833 134 265.666 134.001 265.5 134.003V134H254.391C254.793 131.057 255 128.053 255 125C255 88.5492 225.451 59 189 59C152.549 59 123 88.5492 123 125C123 128.439 123.263 131.817 123.77 135.115C120.631 134.386 117.361 134 114 134C90.2518 134 71 153.252 71 177C71 200.748 90.2518 220 114 220C114.168 220 114.335 219.999 114.502 219.997L114.5 220H265.5V219.997Z" fill="url(#paint4_linear_108_1470)" shape-rendering="crispEdges"/>
<path d="M265.5 219.997L265.523 217.997C264.988 217.991 264.474 218.199 264.094 218.575C263.714 218.951 263.5 219.463 263.5 219.997H265.5ZM265.5 134.003H263.5C263.5 134.537 263.714 135.049 264.094 135.425C264.474 135.801 264.988 136.009 265.523 136.003L265.5 134.003ZM265.5 134H267.5C267.5 132.895 266.605 132 265.5 132V134ZM254.391 134L252.41 133.73C252.332 134.302 252.505 134.88 252.885 135.315C253.265 135.75 253.814 136 254.391 136V134ZM123.77 135.115L123.318 137.063C123.964 137.213 124.643 137.033 125.13 136.582C125.617 136.13 125.848 135.467 125.747 134.811L123.77 135.115ZM114.502 219.997L116.072 221.237C116.549 220.632 116.637 219.807 116.297 219.115C115.957 218.423 115.25 217.988 114.479 217.997L114.502 219.997ZM114.5 220L112.931 218.76C112.455 219.362 112.366 220.182 112.7 220.872C113.034 221.562 113.733 222 114.5 222V220ZM265.5 220V222C266.605 222 267.5 221.105 267.5 220H265.5ZM265.477 221.997C265.651 221.999 265.825 222 266 222V218C265.841 218 265.682 217.999 265.523 217.997L265.477 221.997ZM266 222C290.853 222 311 201.853 311 177H307C307 199.644 288.644 218 266 218V222ZM311 177C311 152.147 290.853 132 266 132V136C288.644 136 307 154.356 307 177H311ZM266 132C265.826 132 265.651 132.001 265.477 132.003L265.523 136.003C265.682 136.001 265.841 136 266 136V132ZM263.5 134V134.003H267.5V134H263.5ZM254.391 136H265.5V132H254.391V136ZM256.373 134.27C256.787 131.238 257 128.143 257 125H253C253 127.962 252.799 130.876 252.41 133.73L256.373 134.27ZM257 125C257 87.4446 226.555 57 189 57V61C224.346 61 253 89.6538 253 125H257ZM189 57C151.445 57 121 87.4446 121 125H125C125 89.6538 153.654 61 189 61V57ZM121 125C121 128.542 121.271 132.021 121.793 135.419L125.747 134.811C125.255 131.614 125 128.337 125 125H121ZM124.223 133.167C120.937 132.403 117.514 132 114 132V136C117.207 136 120.326 136.368 123.318 137.063L124.223 133.167ZM114 132C89.1472 132 69 152.147 69 177H73C73 154.356 91.3563 136 114 136V132ZM69 177C69 201.853 89.1472 222 114 222V218C91.3563 218 73 199.644 73 177H69ZM114 222C114.175 222 114.35 221.999 114.525 221.997L114.479 217.997C114.32 217.999 114.16 218 114 218V222ZM116.069 221.24L116.072 221.237L112.933 218.757L112.931 218.76L116.069 221.24ZM265.5 218H114.5V222H265.5V218ZM263.5 219.997V220H267.5V219.997H263.5Z" fill="url(#paint5_linear_108_1470)" mask="url(#path-4-inside-1_108_1470)"/>
</g>
<g filter="url(#filter2_bd_108_1470)">
<mask id="path-6-inside-2_108_1470" fill="white">
<path fill-rule="evenodd" clip-rule="evenodd" d="M343.563 175.351C343.683 175.352 343.804 175.353 343.924 175.353C361.087 175.353 375 161.44 375 144.277C375 127.115 361.087 113.202 343.924 113.202C343.804 113.202 343.683 113.202 343.563 113.204V113.202H335.535C335.825 111.075 335.975 108.904 335.975 106.697C335.975 80.3549 314.62 59 288.277 59C261.935 59 240.58 80.3549 240.58 106.697C240.58 109.183 240.77 111.624 241.136 114.007C238.868 113.48 236.504 113.202 234.076 113.202C216.913 113.202 203 127.115 203 144.277C203 161.44 216.913 175.353 234.076 175.353C234.197 175.353 234.318 175.352 234.439 175.351L234.437 175.353H343.563V175.351Z"/>
</mask>
<path fill-rule="evenodd" clip-rule="evenodd" d="M343.563 175.351C343.683 175.352 343.804 175.353 343.924 175.353C361.087 175.353 375 161.44 375 144.277C375 127.115 361.087 113.202 343.924 113.202C343.804 113.202 343.683 113.202 343.563 113.204V113.202H335.535C335.825 111.075 335.975 108.904 335.975 106.697C335.975 80.3549 314.62 59 288.277 59C261.935 59 240.58 80.3549 240.58 106.697C240.58 109.183 240.77 111.624 241.136 114.007C238.868 113.48 236.504 113.202 234.076 113.202C216.913 113.202 203 127.115 203 144.277C203 161.44 216.913 175.353 234.076 175.353C234.197 175.353 234.318 175.352 234.439 175.351L234.437 175.353H343.563V175.351Z" fill="url(#paint6_linear_108_1470)" shape-rendering="crispEdges"/>
<path d="M343.563 175.351L343.586 173.351C343.052 173.345 342.537 173.553 342.157 173.929C341.777 174.304 341.563 174.816 341.563 175.351H343.563ZM343.563 113.204H341.563C341.563 113.738 341.777 114.25 342.157 114.626C342.537 115.002 343.051 115.21 343.586 115.204L343.563 113.204ZM343.563 113.202H345.563C345.563 112.097 344.668 111.202 343.563 111.202V113.202ZM335.535 113.202L333.553 112.931C333.475 113.504 333.649 114.082 334.028 114.517C334.408 114.952 334.957 115.202 335.535 115.202V113.202ZM241.136 114.007L240.684 115.955C241.33 116.106 242.009 115.925 242.496 115.474C242.983 115.023 243.214 114.359 243.113 113.703L241.136 114.007ZM234.439 175.351L236.008 176.59C236.486 175.985 236.573 175.16 236.233 174.468C235.893 173.777 235.186 173.342 234.416 173.351L234.439 175.351ZM234.437 175.353L232.867 174.114C232.392 174.715 232.303 175.535 232.637 176.225C232.971 176.915 233.67 177.353 234.437 177.353V175.353ZM343.563 175.353V177.353C344.668 177.353 345.563 176.458 345.563 175.353H343.563ZM343.54 177.351C343.668 177.352 343.796 177.353 343.924 177.353V173.353C343.811 173.353 343.699 173.352 343.586 173.351L343.54 177.351ZM343.924 177.353C362.192 177.353 377 162.544 377 144.277H373C373 160.335 359.982 173.353 343.924 173.353V177.353ZM377 144.277C377 126.01 362.192 111.202 343.924 111.202V115.202C359.982 115.202 373 128.219 373 144.277H377ZM343.924 111.202C343.796 111.202 343.668 111.202 343.54 111.204L343.586 115.204C343.698 115.202 343.811 115.202 343.924 115.202V111.202ZM341.563 113.202V113.204H345.563V113.202H341.563ZM335.535 115.202H343.563V111.202H335.535V115.202ZM337.517 113.472C337.819 111.256 337.975 108.994 337.975 106.697H333.975C333.975 108.813 333.831 110.894 333.553 112.931L337.517 113.472ZM337.975 106.697C337.975 79.2503 315.724 57 288.277 57V61C313.515 61 333.975 81.4595 333.975 106.697H337.975ZM288.277 57C260.83 57 238.58 79.2503 238.58 106.697H242.58C242.58 81.4595 263.039 61 288.277 61V57ZM238.58 106.697C238.58 109.285 238.778 111.828 239.16 114.311L243.113 113.703C242.762 111.421 242.58 109.081 242.58 106.697H238.58ZM241.589 112.059C239.173 111.498 236.658 111.202 234.076 111.202V115.202C236.351 115.202 238.563 115.463 240.684 115.955L241.589 112.059ZM234.076 111.202C215.808 111.202 201 126.01 201 144.277H205C205 128.219 218.018 115.202 234.076 115.202V111.202ZM201 144.277C201 162.544 215.808 177.353 234.076 177.353V173.353C218.018 173.353 205 160.335 205 144.277H201ZM234.076 177.353C234.204 177.353 234.333 177.352 234.461 177.351L234.416 173.351C234.303 173.352 234.189 173.353 234.076 173.353V177.353ZM236.007 176.592L236.008 176.59L232.869 174.112L232.867 174.114L236.007 176.592ZM343.563 173.353H234.437V177.353H343.563V173.353ZM341.563 175.351V175.353H345.563V175.351H341.563Z" fill="url(#paint7_linear_108_1470)" mask="url(#path-6-inside-2_108_1470)"/>
</g>
<defs>
<filter id="filter0_bdd_108_1470" x="76.3692" y="108" width="241.162" height="305.265" filterUnits="userSpaceOnUse" color-interpolation-filters="sRGB">
<feFlood flood-opacity="0" result="BackgroundImageFix"/>
<feGaussianBlur in="BackgroundImageFix" stdDeviation="7"/>
<feComposite in2="SourceAlpha" operator="in" result="effect1_backgroundBlur_108_1470"/>
<feColorMatrix in="SourceAlpha" type="matrix" values="0 0 0 0 0 0 0 0 0 0 0 0 0 0 0 0 0 0 127 0" result="hardAlpha"/>
<feOffset dx="-21" dy="15"/>
<feGaussianBlur stdDeviation="25"/>
<feComposite in2="hardAlpha" operator="out"/>
<feColorMatrix type="matrix" values="0 0 0 0 0.113438 0 0 0 0 0.148981 0 0 0 0 0.275 0 0 0 0.25 0"/>
<feBlend mode="normal" in2="effect1_backgroundBlur_108_1470" result="effect2_dropShadow_108_1470"/>
<feColorMatrix in="SourceAlpha" type="matrix" values="0 0 0 0 0 0 0 0 0 0 0 0 0 0 0 0 0 0 127 0" result="hardAlpha"/>
<feOffset/>
<feGaussianBlur stdDeviation="30.5"/>
<feComposite in2="hardAlpha" operator="out"/>
<feColorMatrix type="matrix" values="0 0 0 0 1 0 0 0 0 0.721569 0 0 0 0 0.00392157 0 0 0 0.49 0"/>
<feBlend mode="normal" in2="effect2_dropShadow_108_1470" result="effect3_dropShadow_108_1470"/>
<feBlend mode="normal" in="SourceGraphic" in2="effect3_dropShadow_108_1470" result="shape"/>
</filter>
<filter id="filter1_bd_108_1470" x="0" y="24" width="338" height="261" filterUnits="userSpaceOnUse" color-interpolation-filters="sRGB">
<feFlood flood-opacity="0" result="BackgroundImageFix"/>
<feGaussianBlur in="BackgroundImageFix" stdDeviation="7"/>
<feComposite in2="SourceAlpha" operator="in" result="effect1_backgroundBlur_108_1470"/>
<feColorMatrix in="SourceAlpha" type="matrix" values="0 0 0 0 0 0 0 0 0 0 0 0 0 0 0 0 0 0 127 0" result="hardAlpha"/>
<feOffset dx="-21" dy="15"/>
<feGaussianBlur stdDeviation="25"/>
<feComposite in2="hardAlpha" operator="out"/>
<feColorMatrix type="matrix" values="0 0 0 0 0.113725 0 0 0 0 0.14902 0 0 0 0 0.27451 0 0 0 0.25 0"/>
<feBlend mode="normal" in2="effect1_backgroundBlur_108_1470" result="effect2_dropShadow_108_1470"/>
<feBlend mode="normal" in="SourceGraphic" in2="effect2_dropShadow_108_1470" result="shape"/>
</filter>
<filter id="filter2_bd_108_1470" x="132" y="24" width="272" height="216.353" filterUnits="userSpaceOnUse" color-interpolation-filters="sRGB">
<feFlood flood-opacity="0" result="BackgroundImageFix"/>
<feGaussianBlur in="BackgroundImageFix" stdDeviation="7"/>
<feComposite in2="SourceAlpha" operator="in" result="effect1_backgroundBlur_108_1470"/>
<feColorMatrix in="SourceAlpha" type="matrix" values="0 0 0 0 0 0 0 0 0 0 0 0 0 0 0 0 0 0 127 0" result="hardAlpha"/>
<feOffset dx="-21" dy="15"/>
<feGaussianBlur stdDeviation="25"/>
<feComposite in2="hardAlpha" operator="out"/>
<feColorMatrix type="matrix" values="0 0 0 0 0.113438 0 0 0 0 0.148981 0 0 0 0 0.275 0 0 0 0.25 0"/>
<feBlend mode="normal" in2="effect1_backgroundBlur_108_1470" result="effect2_dropShadow_108_1470"/>
<feBlend mode="normal" in="SourceGraphic" in2="effect2_dropShadow_108_1470" result="shape"/>
</filter>
<linearGradient id="paint0_linear_108_1470" x1="249" y1="0" x2="249" y2="118" gradientUnits="userSpaceOnUse">
<stop stop-color="#FFE600"/>
<stop offset="1" stop-color="#FF7A00"/>
</linearGradient>
<linearGradient id="paint1_linear_108_1470" x1="249" y1="0" x2="249" y2="118" gradientUnits="userSpaceOnUse">
<stop stop-color="white"/>
<stop offset="1" stop-color="white" stop-opacity="0"/>
</linearGradient>
<linearGradient id="paint2_linear_108_1470" x1="213.5" y1="180" x2="188.5" y2="288.5" gradientUnits="userSpaceOnUse">
<stop stop-color="#FF4D00"/>
<stop offset="1" stop-color="#FFB800"/>
</linearGradient>
<linearGradient id="paint3_linear_108_1470" x1="180" y1="287" x2="225.5" y2="189.5" gradientUnits="userSpaceOnUse">
<stop stop-color="white"/>
<stop offset="1" stop-color="white" stop-opacity="0"/>
</linearGradient>
<linearGradient id="paint4_linear_108_1470" x1="190" y1="7.5" x2="190" y2="242.5" gradientUnits="userSpaceOnUse">
<stop stop-color="white"/>
<stop offset="1" stop-color="white" stop-opacity="0"/>
</linearGradient>
<linearGradient id="paint5_linear_108_1470" x1="190" y1="59" x2="190" y2="220" gradientUnits="userSpaceOnUse">
<stop stop-color="white"/>
<stop offset="1" stop-color="white" stop-opacity="0"/>
</linearGradient>
<linearGradient id="paint6_linear_108_1470" x1="297" y1="62.5" x2="297" y2="188.5" gradientUnits="userSpaceOnUse">
<stop stop-color="white"/>
<stop offset="1" stop-color="white" stop-opacity="0"/>
</linearGradient>
<linearGradient id="paint7_linear_108_1470" x1="289" y1="59" x2="289" y2="175.353" gradientUnits="userSpaceOnUse">
<stop stop-color="white"/>
<stop offset="1" stop-color="white" stop-opacity="0"/>
</linearGradient>
</defs>
</svg>
