<svg width="379" height="489" viewBox="0 0 379 489" fill="none" xmlns="http://www.w3.org/2000/svg">
<g filter="url(#filter0_bdd_108_2063)">
<mask id="path-1-inside-1_108_2063" fill="white">
<path fill-rule="evenodd" clip-rule="evenodd" d="M163.273 38.974C166.653 38.4384 168.674 42.4061 166.95 45.3613C157.817 61.0099 156.809 81.3668 166.024 99.282C178.241 123.033 204.399 134.662 228.1 128.46C231.431 127.588 234.746 130.629 233.316 133.761C227.742 145.961 218.351 156.321 205.739 162.809C174.754 178.746 136.062 165.277 119.318 132.725C102.574 100.172 114.118 60.8629 145.103 44.9252C150.952 41.9169 157.075 39.9562 163.273 38.974Z"/>
</mask>
<path fill-rule="evenodd" clip-rule="evenodd" d="M163.273 38.974C166.653 38.4384 168.674 42.4061 166.95 45.3613C157.817 61.0099 156.809 81.3668 166.024 99.282C178.241 123.033 204.399 134.662 228.1 128.46C231.431 127.588 234.746 130.629 233.316 133.761C227.742 145.961 218.351 156.321 205.739 162.809C174.754 178.746 136.062 165.277 119.318 132.725C102.574 100.172 114.118 60.8629 145.103 44.9252C150.952 41.9169 157.075 39.9562 163.273 38.974Z" fill="url(#paint0_linear_108_2063)"/>
<path d="M228.1 128.46L228.606 130.395L228.1 128.46ZM166.95 45.3613L165.222 44.3532L166.95 45.3613ZM163.273 38.974L163.586 40.9493L163.273 38.974ZM167.802 98.3671C158.899 81.0581 159.89 61.4263 168.677 46.3694L165.222 44.3532C155.745 60.5934 154.719 81.6755 164.245 100.197L167.802 98.3671ZM227.594 126.525C204.843 132.479 179.612 121.326 167.802 98.3671L164.245 100.197C176.87 124.741 203.956 136.846 228.606 130.395L227.594 126.525ZM231.497 132.93C226.099 144.744 217.016 154.759 204.824 161.03L206.653 164.587C219.686 157.883 229.385 147.178 235.135 134.592L231.497 132.93ZM204.824 161.03C174.903 176.42 137.378 163.464 121.096 131.81L117.539 133.639C134.745 167.09 174.605 181.072 206.653 164.587L204.824 161.03ZM121.096 131.81C104.814 100.156 116.097 62.0942 146.018 46.7038L144.188 43.1467C112.139 59.6317 100.333 100.188 117.539 133.639L121.096 131.81ZM146.018 46.7038C151.675 43.7941 157.594 41.8989 163.586 40.9493L162.96 36.9986C156.556 38.0136 150.229 40.0396 144.188 43.1467L146.018 46.7038ZM228.606 130.395C229.553 130.147 230.501 130.459 231.095 131.039C231.653 131.584 231.81 132.244 231.497 132.93L235.135 134.592C236.252 132.146 235.467 129.72 233.892 128.179C232.353 126.674 229.977 125.901 227.594 126.525L228.606 130.395ZM168.677 46.3694C169.913 44.2521 169.811 41.7714 168.778 39.8945C167.72 37.9725 165.602 36.58 162.96 36.9986L163.586 40.9493C164.325 40.8323 164.906 41.1559 165.273 41.8228C165.665 42.5346 165.711 43.5153 165.222 44.3532L168.677 46.3694Z" fill="url(#paint1_linear_108_2063)" mask="url(#path-1-inside-1_108_2063)"/>
</g>
<g filter="url(#filter1_bdd_108_2063)">
<path d="M122.617 332.541L170.431 245.041C170.782 244.399 171.455 244 172.186 244H219.195C220.698 244 221.664 245.596 220.966 246.928L191.034 304.072C190.336 305.404 191.302 307 192.805 307H229.527C231.256 307 232.17 309.045 231.017 310.334L130.581 422.585C129.107 424.233 126.443 422.623 127.217 420.552L157.991 338.2C158.479 336.893 157.513 335.5 156.118 335.5H124.372C122.853 335.5 121.889 333.874 122.617 332.541Z" fill="url(#paint2_linear_108_2063)"/>
<path d="M123.494 333.02L171.309 245.52C171.484 245.2 171.821 245 172.186 245H219.195C219.946 245 220.429 245.798 220.08 246.464L190.148 303.608C189.102 305.605 190.55 308 192.805 308H229.527C230.391 308 230.848 309.023 230.272 309.667L129.836 421.919C129.099 422.743 127.767 421.938 128.154 420.902L158.928 338.55C159.66 336.589 158.211 334.5 156.118 334.5H124.372C123.613 334.5 123.13 333.687 123.494 333.02Z" stroke="url(#paint3_linear_108_2063)" stroke-width="2"/>
</g>
<g filter="url(#filter2_bd_108_2063)">
<mask id="path-5-inside-2_108_2063" fill="white">
<path fill-rule="evenodd" clip-rule="evenodd" d="M240.5 294.997C240.666 294.999 240.833 295 241 295C264.748 295 284 275.748 284 252C284 228.252 264.748 209 241 209C240.833 209 240.666 209.001 240.5 209.003V209H229.391C229.793 206.057 230 203.053 230 200C230 163.549 200.451 134 164 134C127.549 134 98 163.549 98 200C98 203.439 98.2631 206.817 98.7702 210.115C95.6314 209.386 92.3607 209 89 209C65.2518 209 46 228.252 46 252C46 275.748 65.2518 295 89 295C89.1676 295 89.3351 294.999 89.5023 294.997L89.5 295H240.5V294.997Z"/>
</mask>
<path fill-rule="evenodd" clip-rule="evenodd" d="M240.5 294.997C240.666 294.999 240.833 295 241 295C264.748 295 284 275.748 284 252C284 228.252 264.748 209 241 209C240.833 209 240.666 209.001 240.5 209.003V209H229.391C229.793 206.057 230 203.053 230 200C230 163.549 200.451 134 164 134C127.549 134 98 163.549 98 200C98 203.439 98.2631 206.817 98.7702 210.115C95.6314 209.386 92.3607 209 89 209C65.2518 209 46 228.252 46 252C46 275.748 65.2518 295 89 295C89.1676 295 89.3351 294.999 89.5023 294.997L89.5 295H240.5V294.997Z" fill="url(#paint4_linear_108_2063)" shape-rendering="crispEdges"/>
<path d="M240.5 294.997L240.523 292.997C239.988 292.991 239.474 293.199 239.094 293.575C238.714 293.951 238.5 294.463 238.5 294.997H240.5ZM240.5 209.003H238.5C238.5 209.537 238.714 210.049 239.094 210.425C239.474 210.801 239.988 211.009 240.523 211.003L240.5 209.003ZM240.5 209H242.5C242.5 207.895 241.605 207 240.5 207V209ZM229.391 209L227.41 208.73C227.332 209.302 227.505 209.88 227.885 210.315C228.265 210.75 228.814 211 229.391 211V209ZM98.7702 210.115L98.3176 212.063C98.9642 212.213 99.6431 212.033 100.13 211.582C100.617 211.13 100.848 210.467 100.747 209.811L98.7702 210.115ZM89.5023 294.997L91.0717 296.237C91.5494 295.632 91.6371 294.807 91.2972 294.115C90.9572 293.423 90.2501 292.988 89.4795 292.997L89.5023 294.997ZM89.5 295L87.9306 293.76C87.4554 294.362 87.3659 295.182 87.7001 295.872C88.0343 296.562 88.7334 297 89.5 297V295ZM240.5 295V297C241.605 297 242.5 296.105 242.5 295H240.5ZM240.477 296.997C240.651 296.999 240.825 297 241 297V293C240.841 293 240.682 292.999 240.523 292.997L240.477 296.997ZM241 297C265.853 297 286 276.853 286 252H282C282 274.644 263.644 293 241 293V297ZM286 252C286 227.147 265.853 207 241 207V211C263.644 211 282 229.356 282 252H286ZM241 207C240.826 207 240.651 207.001 240.477 207.003L240.523 211.003C240.682 211.001 240.841 211 241 211V207ZM238.5 209V209.003H242.5V209H238.5ZM229.391 211H240.5V207H229.391V211ZM231.373 209.27C231.787 206.238 232 203.143 232 200H228C228 202.962 227.799 205.876 227.41 208.73L231.373 209.27ZM232 200C232 162.445 201.555 132 164 132V136C199.346 136 228 164.654 228 200H232ZM164 132C126.445 132 96 162.445 96 200H100C100 164.654 128.654 136 164 136V132ZM96 200C96 203.542 96.2709 207.021 96.7935 210.419L100.747 209.811C100.255 206.614 100 203.337 100 200H96ZM99.2229 208.167C95.9367 207.403 92.5142 207 89 207V211C92.2073 211 95.3261 211.368 98.3176 212.063L99.2229 208.167ZM89 207C64.1472 207 44 227.147 44 252H48C48 229.356 66.3563 211 89 211V207ZM44 252C44 276.853 64.1472 297 89 297V293C66.3563 293 48 274.644 48 252H44ZM89 297C89.1753 297 89.3503 296.999 89.5251 296.997L89.4795 292.997C89.3198 292.999 89.16 293 89 293V297ZM91.0694 296.24L91.0717 296.237L87.9328 293.757L87.9306 293.76L91.0694 296.24ZM240.5 293H89.5V297H240.5V293ZM238.5 294.997V295H242.5V294.997H238.5Z" fill="url(#paint5_linear_108_2063)" mask="url(#path-5-inside-2_108_2063)"/>
</g>
<g filter="url(#filter3_bd_108_2063)">
<mask id="path-7-inside-3_108_2063" fill="white">
<path fill-rule="evenodd" clip-rule="evenodd" d="M318.563 250.351C318.683 250.352 318.804 250.353 318.924 250.353C336.087 250.353 350 236.44 350 219.277C350 202.115 336.087 188.202 318.924 188.202C318.804 188.202 318.683 188.202 318.563 188.204V188.202H310.535C310.825 186.075 310.975 183.904 310.975 181.697C310.975 155.355 289.62 134 263.277 134C236.935 134 215.58 155.355 215.58 181.697C215.58 184.183 215.77 186.624 216.136 189.007C213.868 188.48 211.504 188.202 209.076 188.202C191.913 188.202 178 202.115 178 219.277C178 236.44 191.913 250.353 209.076 250.353C209.197 250.353 209.318 250.352 209.439 250.351L209.437 250.353H318.563V250.351Z"/>
</mask>
<path fill-rule="evenodd" clip-rule="evenodd" d="M318.563 250.351C318.683 250.352 318.804 250.353 318.924 250.353C336.087 250.353 350 236.44 350 219.277C350 202.115 336.087 188.202 318.924 188.202C318.804 188.202 318.683 188.202 318.563 188.204V188.202H310.535C310.825 186.075 310.975 183.904 310.975 181.697C310.975 155.355 289.62 134 263.277 134C236.935 134 215.58 155.355 215.58 181.697C215.58 184.183 215.77 186.624 216.136 189.007C213.868 188.48 211.504 188.202 209.076 188.202C191.913 188.202 178 202.115 178 219.277C178 236.44 191.913 250.353 209.076 250.353C209.197 250.353 209.318 250.352 209.439 250.351L209.437 250.353H318.563V250.351Z" fill="url(#paint6_linear_108_2063)" shape-rendering="crispEdges"/>
<path d="M318.563 250.351L318.586 248.351C318.052 248.345 317.537 248.553 317.157 248.929C316.777 249.304 316.563 249.816 316.563 250.351H318.563ZM318.563 188.204H316.563C316.563 188.738 316.777 189.25 317.157 189.626C317.537 190.002 318.051 190.21 318.586 190.204L318.563 188.204ZM318.563 188.202H320.563C320.563 187.097 319.668 186.202 318.563 186.202V188.202ZM310.535 188.202L308.553 187.931C308.475 188.504 308.649 189.082 309.028 189.517C309.408 189.952 309.957 190.202 310.535 190.202V188.202ZM216.136 189.007L215.684 190.955C216.33 191.106 217.009 190.925 217.496 190.474C217.983 190.023 218.214 189.359 218.113 188.703L216.136 189.007ZM209.439 250.351L211.008 251.59C211.486 250.985 211.573 250.16 211.233 249.468C210.893 248.777 210.186 248.342 209.416 248.351L209.439 250.351ZM209.437 250.353L207.867 249.114C207.392 249.715 207.303 250.535 207.637 251.225C207.971 251.915 208.67 252.353 209.437 252.353V250.353ZM318.563 250.353V252.353C319.668 252.353 320.563 251.458 320.563 250.353H318.563ZM318.54 252.351C318.668 252.352 318.796 252.353 318.924 252.353V248.353C318.811 248.353 318.699 248.352 318.586 248.351L318.54 252.351ZM318.924 252.353C337.192 252.353 352 237.544 352 219.277H348C348 235.335 334.982 248.353 318.924 248.353V252.353ZM352 219.277C352 201.01 337.192 186.202 318.924 186.202V190.202C334.982 190.202 348 203.219 348 219.277H352ZM318.924 186.202C318.796 186.202 318.668 186.202 318.54 186.204L318.586 190.204C318.698 190.202 318.811 190.202 318.924 190.202V186.202ZM316.563 188.202V188.204H320.563V188.202H316.563ZM310.535 190.202H318.563V186.202H310.535V190.202ZM312.517 188.472C312.819 186.256 312.975 183.994 312.975 181.697H308.975C308.975 183.813 308.831 185.894 308.553 187.931L312.517 188.472ZM312.975 181.697C312.975 154.25 290.724 132 263.277 132V136C288.515 136 308.975 156.459 308.975 181.697H312.975ZM263.277 132C235.83 132 213.58 154.25 213.58 181.697H217.58C217.58 156.459 238.039 136 263.277 136V132ZM213.58 181.697C213.58 184.285 213.778 186.828 214.16 189.311L218.113 188.703C217.762 186.421 217.58 184.081 217.58 181.697H213.58ZM216.589 187.059C214.173 186.498 211.658 186.202 209.076 186.202V190.202C211.351 190.202 213.563 190.463 215.684 190.955L216.589 187.059ZM209.076 186.202C190.808 186.202 176 201.01 176 219.277H180C180 203.219 193.018 190.202 209.076 190.202V186.202ZM176 219.277C176 237.544 190.808 252.353 209.076 252.353V248.353C193.018 248.353 180 235.335 180 219.277H176ZM209.076 252.353C209.204 252.353 209.333 252.352 209.461 252.351L209.416 248.351C209.303 248.352 209.189 248.353 209.076 248.353V252.353ZM211.007 251.592L211.008 251.59L207.869 249.112L207.867 249.114L211.007 251.592ZM318.563 248.353H209.437V252.353H318.563V248.353ZM316.563 250.351V250.353H320.563V250.351H316.563Z" fill="url(#paint7_linear_108_2063)" mask="url(#path-7-inside-3_108_2063)"/>
</g>
<defs>
<filter id="filter0_bdd_108_2063" x="40.6377" y="0.924927" width="231.02" height="233.584" filterUnits="userSpaceOnUse" color-interpolation-filters="sRGB">
<feFlood flood-opacity="0" result="BackgroundImageFix"/>
<feGaussianBlur in="BackgroundImageFix" stdDeviation="7"/>
<feComposite in2="SourceAlpha" operator="in" result="effect1_backgroundBlur_108_2063"/>
<feColorMatrix in="SourceAlpha" type="matrix" values="0 0 0 0 0 0 0 0 0 0 0 0 0 0 0 0 0 0 127 0" result="hardAlpha"/>
<feOffset dx="-21" dy="15"/>
<feGaussianBlur stdDeviation="25"/>
<feComposite in2="hardAlpha" operator="out"/>
<feColorMatrix type="matrix" values="0 0 0 0 0.113438 0 0 0 0 0.148981 0 0 0 0 0.275 0 0 0 0.25 0"/>
<feBlend mode="normal" in2="effect1_backgroundBlur_108_2063" result="effect2_dropShadow_108_2063"/>
<feColorMatrix in="SourceAlpha" type="matrix" values="0 0 0 0 0 0 0 0 0 0 0 0 0 0 0 0 0 0 127 0" result="hardAlpha"/>
<feOffset/>
<feGaussianBlur stdDeviation="19"/>
<feComposite in2="hardAlpha" operator="out"/>
<feColorMatrix type="matrix" values="0 0 0 0 0.619608 0 0 0 0 0.423529 0 0 0 0 1 0 0 0 0.4 0"/>
<feBlend mode="normal" in2="effect2_dropShadow_108_2063" result="effect3_dropShadow_108_2063"/>
<feBlend mode="normal" in="SourceGraphic" in2="effect3_dropShadow_108_2063" result="shape"/>
</filter>
<filter id="filter1_bdd_108_2063" x="51.3692" y="183" width="241.162" height="305.265" filterUnits="userSpaceOnUse" color-interpolation-filters="sRGB">
<feFlood flood-opacity="0" result="BackgroundImageFix"/>
<feGaussianBlur in="BackgroundImageFix" stdDeviation="7"/>
<feComposite in2="SourceAlpha" operator="in" result="effect1_backgroundBlur_108_2063"/>
<feColorMatrix in="SourceAlpha" type="matrix" values="0 0 0 0 0 0 0 0 0 0 0 0 0 0 0 0 0 0 127 0" result="hardAlpha"/>
<feOffset dx="-21" dy="15"/>
<feGaussianBlur stdDeviation="25"/>
<feComposite in2="hardAlpha" operator="out"/>
<feColorMatrix type="matrix" values="0 0 0 0 0.113438 0 0 0 0 0.148981 0 0 0 0 0.275 0 0 0 0.25 0"/>
<feBlend mode="normal" in2="effect1_backgroundBlur_108_2063" result="effect2_dropShadow_108_2063"/>
<feColorMatrix in="SourceAlpha" type="matrix" values="0 0 0 0 0 0 0 0 0 0 0 0 0 0 0 0 0 0 127 0" result="hardAlpha"/>
<feOffset/>
<feGaussianBlur stdDeviation="30.5"/>
<feComposite in2="hardAlpha" operator="out"/>
<feColorMatrix type="matrix" values="0 0 0 0 1 0 0 0 0 0.721569 0 0 0 0 0.00392157 0 0 0 0.49 0"/>
<feBlend mode="normal" in2="effect2_dropShadow_108_2063" result="effect3_dropShadow_108_2063"/>
<feBlend mode="normal" in="SourceGraphic" in2="effect3_dropShadow_108_2063" result="shape"/>
</filter>
<filter id="filter2_bd_108_2063" x="-25" y="99" width="338" height="261" filterUnits="userSpaceOnUse" color-interpolation-filters="sRGB">
<feFlood flood-opacity="0" result="BackgroundImageFix"/>
<feGaussianBlur in="BackgroundImageFix" stdDeviation="7"/>
<feComposite in2="SourceAlpha" operator="in" result="effect1_backgroundBlur_108_2063"/>
<feColorMatrix in="SourceAlpha" type="matrix" values="0 0 0 0 0 0 0 0 0 0 0 0 0 0 0 0 0 0 127 0" result="hardAlpha"/>
<feOffset dx="-21" dy="15"/>
<feGaussianBlur stdDeviation="25"/>
<feComposite in2="hardAlpha" operator="out"/>
<feColorMatrix type="matrix" values="0 0 0 0 0.113725 0 0 0 0 0.14902 0 0 0 0 0.27451 0 0 0 0.25 0"/>
<feBlend mode="normal" in2="effect1_backgroundBlur_108_2063" result="effect2_dropShadow_108_2063"/>
<feBlend mode="normal" in="SourceGraphic" in2="effect2_dropShadow_108_2063" result="shape"/>
</filter>
<filter id="filter3_bd_108_2063" x="107" y="99" width="272" height="216.353" filterUnits="userSpaceOnUse" color-interpolation-filters="sRGB">
<feFlood flood-opacity="0" result="BackgroundImageFix"/>
<feGaussianBlur in="BackgroundImageFix" stdDeviation="7"/>
<feComposite in2="SourceAlpha" operator="in" result="effect1_backgroundBlur_108_2063"/>
<feColorMatrix in="SourceAlpha" type="matrix" values="0 0 0 0 0 0 0 0 0 0 0 0 0 0 0 0 0 0 127 0" result="hardAlpha"/>
<feOffset dx="-21" dy="15"/>
<feGaussianBlur stdDeviation="25"/>
<feComposite in2="hardAlpha" operator="out"/>
<feColorMatrix type="matrix" values="0 0 0 0 0.113438 0 0 0 0 0.148981 0 0 0 0 0.275 0 0 0 0.25 0"/>
<feBlend mode="normal" in2="effect1_backgroundBlur_108_2063" result="effect2_dropShadow_108_2063"/>
<feBlend mode="normal" in="SourceGraphic" in2="effect2_dropShadow_108_2063" result="shape"/>
</filter>
<linearGradient id="paint0_linear_108_2063" x1="132.945" y1="52.4921" x2="193.581" y2="170.375" gradientUnits="userSpaceOnUse">
<stop offset="0.0001" stop-color="#D4C0FF"/>
<stop offset="1" stop-color="#7E2FFF"/>
</linearGradient>
<linearGradient id="paint1_linear_108_2063" x1="137.757" y1="-11.4071" x2="173.241" y2="143.283" gradientUnits="userSpaceOnUse">
<stop stop-color="white"/>
<stop offset="1" stop-color="white" stop-opacity="0"/>
</linearGradient>
<linearGradient id="paint2_linear_108_2063" x1="188.5" y1="255" x2="163.5" y2="363.5" gradientUnits="userSpaceOnUse">
<stop stop-color="#FF4D00"/>
<stop offset="1" stop-color="#FFB800"/>
</linearGradient>
<linearGradient id="paint3_linear_108_2063" x1="155" y1="362" x2="200.5" y2="264.5" gradientUnits="userSpaceOnUse">
<stop stop-color="white"/>
<stop offset="1" stop-color="white" stop-opacity="0"/>
</linearGradient>
<linearGradient id="paint4_linear_108_2063" x1="165" y1="82.5" x2="165" y2="317.5" gradientUnits="userSpaceOnUse">
<stop stop-color="white"/>
<stop offset="1" stop-color="white" stop-opacity="0"/>
</linearGradient>
<linearGradient id="paint5_linear_108_2063" x1="165" y1="134" x2="165" y2="295" gradientUnits="userSpaceOnUse">
<stop stop-color="white"/>
<stop offset="1" stop-color="white" stop-opacity="0"/>
</linearGradient>
<linearGradient id="paint6_linear_108_2063" x1="272" y1="137.5" x2="272" y2="263.5" gradientUnits="userSpaceOnUse">
<stop stop-color="white"/>
<stop offset="1" stop-color="white" stop-opacity="0"/>
</linearGradient>
<linearGradient id="paint7_linear_108_2063" x1="264" y1="134" x2="264" y2="250.353" gradientUnits="userSpaceOnUse">
<stop stop-color="white"/>
<stop offset="1" stop-color="white" stop-opacity="0"/>
</linearGradient>
</defs>
</svg>
