<svg width="404" height="411" viewBox="0 0 404 411" fill="none" xmlns="http://www.w3.org/2000/svg">
<g filter="url(#filter0_bdd_108_2003)">
<mask id="path-1-inside-1_108_2003" fill="white">
<path fill-rule="evenodd" clip-rule="evenodd" d="M203.019 38.1374C206.456 37.5276 208.545 41.5962 206.735 44.5815C197.264 60.2017 195.89 80.2293 204.858 97.6643C216.797 120.874 243.132 131.847 267.348 125.286C270.721 124.372 274.054 127.51 272.513 130.646C266.585 142.715 256.865 153.051 243.989 159.674C212.141 176.056 173.043 163.518 156.662 131.67C140.28 99.822 152.818 60.7242 184.666 44.3426C190.597 41.292 196.779 39.2443 203.019 38.1374Z"/>
</mask>
<path fill-rule="evenodd" clip-rule="evenodd" d="M203.019 38.1374C206.456 37.5276 208.545 41.5962 206.735 44.5815C197.264 60.2017 195.89 80.2293 204.858 97.6643C216.797 120.874 243.132 131.847 267.348 125.286C270.721 124.372 274.054 127.51 272.513 130.646C266.585 142.715 256.865 153.051 243.989 159.674C212.141 176.056 173.043 163.518 156.662 131.67C140.28 99.822 152.818 60.7242 184.666 44.3426C190.597 41.292 196.779 39.2443 203.019 38.1374Z" fill="url(#paint0_linear_108_2003)"/>
<path d="M267.348 125.286L266.825 123.356L267.348 125.286ZM272.513 130.646L274.308 131.527L272.513 130.646ZM203.019 38.1374L203.368 40.1066L203.019 38.1374ZM206.637 96.7495C198 79.9582 199.32 60.669 208.445 45.6184L205.025 43.5445C195.208 59.7344 193.781 80.5005 203.08 98.5792L206.637 96.7495ZM266.825 123.356C243.5 129.675 218.135 119.103 206.637 96.7495L203.08 98.5792C215.459 122.646 242.763 134.019 267.871 127.216L266.825 123.356ZM270.718 129.764C264.973 141.461 255.555 151.476 243.074 157.896L244.904 161.453C258.175 154.626 268.197 143.969 274.308 131.527L270.718 129.764ZM243.074 157.896C212.208 173.772 174.316 161.621 158.44 130.755L154.883 132.585C171.77 165.415 212.074 178.34 244.904 161.453L243.074 157.896ZM158.44 130.755C142.564 99.8895 154.715 61.9975 185.581 46.1211L183.751 42.5641C150.921 59.4509 137.996 99.7546 154.883 132.585L158.44 130.755ZM185.581 46.1211C191.332 43.163 197.323 41.179 203.368 40.1066L202.669 36.1681C196.235 37.3096 189.862 39.421 183.751 42.5641L185.581 46.1211ZM267.871 127.216C268.825 126.958 269.773 127.275 270.359 127.862C270.908 128.411 271.057 129.075 270.718 129.764L274.308 131.527C275.51 129.08 274.762 126.608 273.187 125.033C271.649 123.495 269.244 122.7 266.825 123.356L267.871 127.216ZM208.445 45.6184C209.743 43.477 209.646 40.9476 208.595 39.0446C207.519 37.0958 205.352 35.6922 202.669 36.1681L203.368 40.1066C204.123 39.9728 204.719 40.2986 205.094 40.978C205.494 41.7032 205.536 42.7006 205.025 43.5445L208.445 45.6184Z" fill="url(#paint1_linear_108_2003)" mask="url(#path-1-inside-1_108_2003)"/>
</g>
<g filter="url(#filter1_bd_108_2003)">
<mask id="path-3-inside-2_108_2003" fill="white">
<path fill-rule="evenodd" clip-rule="evenodd" d="M343.563 247.351C343.683 247.352 343.804 247.353 343.924 247.353C361.087 247.353 375 233.44 375 216.277C375 199.115 361.087 185.202 343.924 185.202C343.804 185.202 343.683 185.202 343.563 185.204V185.202H335.535C335.825 183.075 335.975 180.904 335.975 178.697C335.975 152.355 314.62 131 288.277 131C261.935 131 240.58 152.355 240.58 178.697C240.58 181.183 240.77 183.624 241.136 186.007C238.868 185.48 236.504 185.202 234.076 185.202C216.913 185.202 203 199.115 203 216.277C203 233.44 216.913 247.353 234.076 247.353C234.197 247.353 234.318 247.352 234.439 247.351L234.437 247.353H343.563V247.351Z"/>
</mask>
<path fill-rule="evenodd" clip-rule="evenodd" d="M343.563 247.351C343.683 247.352 343.804 247.353 343.924 247.353C361.087 247.353 375 233.44 375 216.277C375 199.115 361.087 185.202 343.924 185.202C343.804 185.202 343.683 185.202 343.563 185.204V185.202H335.535C335.825 183.075 335.975 180.904 335.975 178.697C335.975 152.355 314.62 131 288.277 131C261.935 131 240.58 152.355 240.58 178.697C240.58 181.183 240.77 183.624 241.136 186.007C238.868 185.48 236.504 185.202 234.076 185.202C216.913 185.202 203 199.115 203 216.277C203 233.44 216.913 247.353 234.076 247.353C234.197 247.353 234.318 247.352 234.439 247.351L234.437 247.353H343.563V247.351Z" fill="url(#paint2_linear_108_2003)" shape-rendering="crispEdges"/>
<path d="M343.563 247.351L343.586 245.351C343.052 245.345 342.537 245.553 342.157 245.929C341.777 246.304 341.563 246.816 341.563 247.351H343.563ZM343.563 185.204H341.563C341.563 185.738 341.777 186.25 342.157 186.626C342.537 187.002 343.051 187.21 343.586 187.204L343.563 185.204ZM343.563 185.202H345.563C345.563 184.097 344.668 183.202 343.563 183.202V185.202ZM335.535 185.202L333.553 184.931C333.475 185.504 333.649 186.082 334.028 186.517C334.408 186.952 334.957 187.202 335.535 187.202V185.202ZM241.136 186.007L240.684 187.955C241.33 188.106 242.009 187.925 242.496 187.474C242.983 187.023 243.214 186.359 243.113 185.703L241.136 186.007ZM234.439 247.351L236.008 248.59C236.486 247.985 236.573 247.16 236.233 246.468C235.893 245.777 235.186 245.342 234.416 245.351L234.439 247.351ZM234.437 247.353L232.867 246.114C232.392 246.715 232.303 247.535 232.637 248.225C232.971 248.915 233.67 249.353 234.437 249.353V247.353ZM343.563 247.353V249.353C344.668 249.353 345.563 248.458 345.563 247.353H343.563ZM343.54 249.351C343.668 249.352 343.796 249.353 343.924 249.353V245.353C343.811 245.353 343.699 245.352 343.586 245.351L343.54 249.351ZM343.924 249.353C362.192 249.353 377 234.544 377 216.277H373C373 232.335 359.982 245.353 343.924 245.353V249.353ZM377 216.277C377 198.01 362.192 183.202 343.924 183.202V187.202C359.982 187.202 373 200.219 373 216.277H377ZM343.924 183.202C343.796 183.202 343.668 183.202 343.54 183.204L343.586 187.204C343.699 187.202 343.811 187.202 343.924 187.202V183.202ZM341.563 185.202V185.204H345.563V185.202H341.563ZM335.535 187.202H343.563V183.202H335.535V187.202ZM337.517 185.472C337.819 183.256 337.975 180.994 337.975 178.697H333.975C333.975 180.813 333.831 182.894 333.553 184.931L337.517 185.472ZM337.975 178.697C337.975 151.25 315.724 129 288.277 129V133C313.515 133 333.975 153.459 333.975 178.697H337.975ZM288.277 129C260.83 129 238.58 151.25 238.58 178.697H242.58C242.58 153.459 263.039 133 288.277 133V129ZM238.58 178.697C238.58 181.285 238.778 183.828 239.16 186.311L243.113 185.703C242.762 183.421 242.58 181.081 242.58 178.697H238.58ZM241.589 184.059C239.173 183.498 236.658 183.202 234.076 183.202V187.202C236.351 187.202 238.563 187.463 240.684 187.955L241.589 184.059ZM234.076 183.202C215.808 183.202 201 198.01 201 216.277H205C205 200.219 218.018 187.202 234.076 187.202V183.202ZM201 216.277C201 234.544 215.808 249.353 234.076 249.353V245.353C218.018 245.353 205 232.335 205 216.277H201ZM234.076 249.353C234.204 249.353 234.333 249.352 234.461 249.351L234.416 245.351C234.303 245.352 234.189 245.353 234.076 245.353V249.353ZM236.007 248.592L236.008 248.59L232.869 246.112L232.867 246.114L236.007 248.592ZM343.563 245.353H234.437V249.353H343.563V245.353ZM341.563 247.351V247.353H345.563V247.351H341.563Z" fill="url(#paint3_linear_108_2003)" mask="url(#path-3-inside-2_108_2003)"/>
</g>
<g filter="url(#filter2_bd_108_2003)">
<mask id="path-5-inside-3_108_2003" fill="white">
<path fill-rule="evenodd" clip-rule="evenodd" d="M265.5 291.997C265.666 291.999 265.833 292 266 292C289.748 292 309 272.748 309 249C309 225.252 289.748 206 266 206C265.833 206 265.666 206.001 265.5 206.003V206H254.391C254.793 203.057 255 200.053 255 197C255 160.549 225.451 131 189 131C152.549 131 123 160.549 123 197C123 200.439 123.263 203.817 123.77 207.115C120.631 206.386 117.361 206 114 206C90.2518 206 71 225.252 71 249C71 272.748 90.2518 292 114 292C114.168 292 114.335 291.999 114.502 291.997L114.5 292H265.5V291.997Z"/>
</mask>
<path fill-rule="evenodd" clip-rule="evenodd" d="M265.5 291.997C265.666 291.999 265.833 292 266 292C289.748 292 309 272.748 309 249C309 225.252 289.748 206 266 206C265.833 206 265.666 206.001 265.5 206.003V206H254.391C254.793 203.057 255 200.053 255 197C255 160.549 225.451 131 189 131C152.549 131 123 160.549 123 197C123 200.439 123.263 203.817 123.77 207.115C120.631 206.386 117.361 206 114 206C90.2518 206 71 225.252 71 249C71 272.748 90.2518 292 114 292C114.168 292 114.335 291.999 114.502 291.997L114.5 292H265.5V291.997Z" fill="url(#paint4_linear_108_2003)" shape-rendering="crispEdges"/>
<path d="M265.5 291.997L265.523 289.997C264.988 289.991 264.474 290.199 264.094 290.575C263.714 290.951 263.5 291.463 263.5 291.997H265.5ZM265.5 206.003H263.5C263.5 206.537 263.714 207.049 264.094 207.425C264.474 207.801 264.988 208.009 265.523 208.003L265.5 206.003ZM265.5 206H267.5C267.5 204.895 266.605 204 265.5 204V206ZM254.391 206L252.41 205.73C252.332 206.302 252.505 206.88 252.885 207.315C253.265 207.75 253.814 208 254.391 208V206ZM123.77 207.115L123.318 209.063C123.964 209.213 124.643 209.033 125.13 208.582C125.617 208.13 125.848 207.467 125.747 206.811L123.77 207.115ZM114.502 291.997L116.072 293.237C116.549 292.632 116.637 291.807 116.297 291.115C115.957 290.423 115.25 289.988 114.479 289.997L114.502 291.997ZM114.5 292L112.931 290.76C112.455 291.362 112.366 292.182 112.7 292.872C113.034 293.562 113.733 294 114.5 294V292ZM265.5 292V294C266.605 294 267.5 293.105 267.5 292H265.5ZM265.477 293.997C265.651 293.999 265.825 294 266 294V290C265.841 290 265.682 289.999 265.523 289.997L265.477 293.997ZM266 294C290.853 294 311 273.853 311 249H307C307 271.644 288.644 290 266 290V294ZM311 249C311 224.147 290.853 204 266 204V208C288.644 208 307 226.356 307 249H311ZM266 204C265.826 204 265.651 204.001 265.477 204.003L265.523 208.003C265.682 208.001 265.841 208 266 208V204ZM263.5 206V206.003H267.5V206H263.5ZM254.391 208H265.5V204H254.391V208ZM256.373 206.27C256.787 203.238 257 200.143 257 197H253C253 199.962 252.799 202.876 252.41 205.73L256.373 206.27ZM257 197C257 159.445 226.555 129 189 129V133C224.346 133 253 161.654 253 197H257ZM189 129C151.445 129 121 159.445 121 197H125C125 161.654 153.654 133 189 133V129ZM121 197C121 200.542 121.271 204.021 121.793 207.419L125.747 206.811C125.255 203.614 125 200.337 125 197H121ZM124.223 205.167C120.937 204.403 117.514 204 114 204V208C117.207 208 120.326 208.368 123.318 209.063L124.223 205.167ZM114 204C89.1472 204 69 224.147 69 249H73C73 226.356 91.3563 208 114 208V204ZM69 249C69 273.853 89.1472 294 114 294V290C91.3563 290 73 271.644 73 249H69ZM114 294C114.175 294 114.35 293.999 114.525 293.997L114.479 289.997C114.32 289.999 114.16 290 114 290V294ZM116.069 293.24L116.072 293.237L112.933 290.757L112.931 290.76L116.069 293.24ZM265.5 290H114.5V294H265.5V290ZM263.5 291.997V292H267.5V291.997H263.5Z" fill="url(#paint5_linear_108_2003)" mask="url(#path-5-inside-3_108_2003)"/>
</g>
<g filter="url(#filter3_bdd_108_2003)">
<path d="M148.181 275.486L149.354 291.919C149.963 300.447 141.831 306.936 133.65 304.448C125.47 301.959 122.328 292.041 127.583 285.296L137.708 272.3C141.01 268.062 147.798 270.127 148.181 275.486Z" fill="url(#paint6_linear_108_2003)" stroke="url(#paint7_linear_108_2003)" stroke-width="2"/>
<path d="M250.181 275.486L251.354 291.919C251.963 300.447 243.831 306.936 235.65 304.448C227.47 301.959 224.328 292.041 229.583 285.296L239.708 272.3C243.01 268.062 249.798 270.127 250.181 275.486Z" fill="url(#paint8_linear_108_2003)" stroke="url(#paint9_linear_108_2003)" stroke-width="2"/>
</g>
<g filter="url(#filter4_bdd_108_2003)">
<path d="M199.181 315.486L200.354 331.919C200.963 340.447 192.831 346.936 184.65 344.448C176.47 341.959 173.328 332.041 178.583 325.296L188.708 312.3C192.01 308.062 198.798 310.127 199.181 315.486Z" fill="url(#paint10_linear_108_2003)" stroke="url(#paint11_linear_108_2003)" stroke-width="2"/>
</g>
<defs>
<filter id="filter0_bdd_108_2003" x="78.4666" y="0.0760498" width="232.434" height="231.793" filterUnits="userSpaceOnUse" color-interpolation-filters="sRGB">
<feFlood flood-opacity="0" result="BackgroundImageFix"/>
<feGaussianBlur in="BackgroundImageFix" stdDeviation="7"/>
<feComposite in2="SourceAlpha" operator="in" result="effect1_backgroundBlur_108_2003"/>
<feColorMatrix in="SourceAlpha" type="matrix" values="0 0 0 0 0 0 0 0 0 0 0 0 0 0 0 0 0 0 127 0" result="hardAlpha"/>
<feOffset dx="-21" dy="15"/>
<feGaussianBlur stdDeviation="25"/>
<feComposite in2="hardAlpha" operator="out"/>
<feColorMatrix type="matrix" values="0 0 0 0 0.113438 0 0 0 0 0.148981 0 0 0 0 0.275 0 0 0 0.25 0"/>
<feBlend mode="normal" in2="effect1_backgroundBlur_108_2003" result="effect2_dropShadow_108_2003"/>
<feColorMatrix in="SourceAlpha" type="matrix" values="0 0 0 0 0 0 0 0 0 0 0 0 0 0 0 0 0 0 127 0" result="hardAlpha"/>
<feOffset/>
<feGaussianBlur stdDeviation="19"/>
<feComposite in2="hardAlpha" operator="out"/>
<feColorMatrix type="matrix" values="0 0 0 0 0.619608 0 0 0 0 0.423529 0 0 0 0 1 0 0 0 0.4 0"/>
<feBlend mode="normal" in2="effect2_dropShadow_108_2003" result="effect3_dropShadow_108_2003"/>
<feBlend mode="normal" in="SourceGraphic" in2="effect3_dropShadow_108_2003" result="shape"/>
</filter>
<filter id="filter1_bd_108_2003" x="132" y="96" width="272" height="216.353" filterUnits="userSpaceOnUse" color-interpolation-filters="sRGB">
<feFlood flood-opacity="0" result="BackgroundImageFix"/>
<feGaussianBlur in="BackgroundImageFix" stdDeviation="7"/>
<feComposite in2="SourceAlpha" operator="in" result="effect1_backgroundBlur_108_2003"/>
<feColorMatrix in="SourceAlpha" type="matrix" values="0 0 0 0 0 0 0 0 0 0 0 0 0 0 0 0 0 0 127 0" result="hardAlpha"/>
<feOffset dx="-21" dy="15"/>
<feGaussianBlur stdDeviation="25"/>
<feComposite in2="hardAlpha" operator="out"/>
<feColorMatrix type="matrix" values="0 0 0 0 0.113438 0 0 0 0 0.148981 0 0 0 0 0.275 0 0 0 0.25 0"/>
<feBlend mode="normal" in2="effect1_backgroundBlur_108_2003" result="effect2_dropShadow_108_2003"/>
<feBlend mode="normal" in="SourceGraphic" in2="effect2_dropShadow_108_2003" result="shape"/>
</filter>
<filter id="filter2_bd_108_2003" x="0" y="96" width="338" height="261" filterUnits="userSpaceOnUse" color-interpolation-filters="sRGB">
<feFlood flood-opacity="0" result="BackgroundImageFix"/>
<feGaussianBlur in="BackgroundImageFix" stdDeviation="7"/>
<feComposite in2="SourceAlpha" operator="in" result="effect1_backgroundBlur_108_2003"/>
<feColorMatrix in="SourceAlpha" type="matrix" values="0 0 0 0 0 0 0 0 0 0 0 0 0 0 0 0 0 0 127 0" result="hardAlpha"/>
<feOffset dx="-21" dy="15"/>
<feGaussianBlur stdDeviation="25"/>
<feComposite in2="hardAlpha" operator="out"/>
<feColorMatrix type="matrix" values="0 0 0 0 0.113725 0 0 0 0 0.14902 0 0 0 0 0.27451 0 0 0 0.25 0"/>
<feBlend mode="normal" in2="effect1_backgroundBlur_108_2003" result="effect2_dropShadow_108_2003"/>
<feBlend mode="normal" in="SourceGraphic" in2="effect2_dropShadow_108_2003" result="shape"/>
</filter>
<filter id="filter3_bdd_108_2003" x="53.0019" y="221.031" width="240.385" height="149.955" filterUnits="userSpaceOnUse" color-interpolation-filters="sRGB">
<feFlood flood-opacity="0" result="BackgroundImageFix"/>
<feGaussianBlur in="BackgroundImageFix" stdDeviation="7"/>
<feComposite in2="SourceAlpha" operator="in" result="effect1_backgroundBlur_108_2003"/>
<feColorMatrix in="SourceAlpha" type="matrix" values="0 0 0 0 0 0 0 0 0 0 0 0 0 0 0 0 0 0 127 0" result="hardAlpha"/>
<feOffset dx="-21" dy="15"/>
<feGaussianBlur stdDeviation="25"/>
<feComposite in2="hardAlpha" operator="out"/>
<feColorMatrix type="matrix" values="0 0 0 0 0.113438 0 0 0 0 0.148981 0 0 0 0 0.275 0 0 0 0.25 0"/>
<feBlend mode="normal" in2="effect1_backgroundBlur_108_2003" result="effect2_dropShadow_108_2003"/>
<feColorMatrix in="SourceAlpha" type="matrix" values="0 0 0 0 0 0 0 0 0 0 0 0 0 0 0 0 0 0 127 0" result="hardAlpha"/>
<feOffset dy="-7"/>
<feGaussianBlur stdDeviation="20.5"/>
<feComposite in2="hardAlpha" operator="out"/>
<feColorMatrix type="matrix" values="0 0 0 0 0.1375 0 0 0 0 0.74125 0 0 0 0 1 0 0 0 0.3 0"/>
<feBlend mode="normal" in2="effect2_dropShadow_108_2003" result="effect3_dropShadow_108_2003"/>
<feBlend mode="normal" in="SourceGraphic" in2="effect3_dropShadow_108_2003" result="shape"/>
</filter>
<filter id="filter4_bdd_108_2003" x="104.002" y="261.031" width="138.385" height="149.955" filterUnits="userSpaceOnUse" color-interpolation-filters="sRGB">
<feFlood flood-opacity="0" result="BackgroundImageFix"/>
<feGaussianBlur in="BackgroundImageFix" stdDeviation="7"/>
<feComposite in2="SourceAlpha" operator="in" result="effect1_backgroundBlur_108_2003"/>
<feColorMatrix in="SourceAlpha" type="matrix" values="0 0 0 0 0 0 0 0 0 0 0 0 0 0 0 0 0 0 127 0" result="hardAlpha"/>
<feOffset dx="-21" dy="15"/>
<feGaussianBlur stdDeviation="25"/>
<feComposite in2="hardAlpha" operator="out"/>
<feColorMatrix type="matrix" values="0 0 0 0 0.113438 0 0 0 0 0.148981 0 0 0 0 0.275 0 0 0 0.25 0"/>
<feBlend mode="normal" in2="effect1_backgroundBlur_108_2003" result="effect2_dropShadow_108_2003"/>
<feColorMatrix in="SourceAlpha" type="matrix" values="0 0 0 0 0 0 0 0 0 0 0 0 0 0 0 0 0 0 127 0" result="hardAlpha"/>
<feOffset dy="-7"/>
<feGaussianBlur stdDeviation="20.5"/>
<feComposite in2="hardAlpha" operator="out"/>
<feColorMatrix type="matrix" values="0 0 0 0 0.1375 0 0 0 0 0.74125 0 0 0 0 1 0 0 0 0.3 0"/>
<feBlend mode="normal" in2="effect2_dropShadow_108_2003" result="effect3_dropShadow_108_2003"/>
<feBlend mode="normal" in="SourceGraphic" in2="effect3_dropShadow_108_2003" result="shape"/>
</filter>
<linearGradient id="paint0_linear_108_2003" x1="172.067" y1="52.1079" x2="231.39" y2="167.44" gradientUnits="userSpaceOnUse">
<stop offset="0.0001" stop-color="#D4C0FF"/>
<stop offset="1" stop-color="#7E2FFF"/>
</linearGradient>
<linearGradient id="paint1_linear_108_2003" x1="178.197" y1="-11.14" x2="214.703" y2="140.225" gradientUnits="userSpaceOnUse">
<stop stop-color="white"/>
<stop offset="1" stop-color="white" stop-opacity="0"/>
</linearGradient>
<linearGradient id="paint2_linear_108_2003" x1="297" y1="134.5" x2="297" y2="260.5" gradientUnits="userSpaceOnUse">
<stop stop-color="#494949"/>
<stop offset="1" stop-color="#DADADA" stop-opacity="0"/>
</linearGradient>
<linearGradient id="paint3_linear_108_2003" x1="289" y1="131" x2="289" y2="247.353" gradientUnits="userSpaceOnUse">
<stop stop-color="white"/>
<stop offset="1" stop-color="white" stop-opacity="0"/>
</linearGradient>
<linearGradient id="paint4_linear_108_2003" x1="190" y1="79.5" x2="190" y2="314.5" gradientUnits="userSpaceOnUse">
<stop stop-color="white"/>
<stop offset="1" stop-color="white" stop-opacity="0"/>
</linearGradient>
<linearGradient id="paint5_linear_108_2003" x1="190" y1="131" x2="190" y2="292" gradientUnits="userSpaceOnUse">
<stop stop-color="white"/>
<stop offset="1" stop-color="white" stop-opacity="0"/>
</linearGradient>
<linearGradient id="paint6_linear_108_2003" x1="147.905" y1="257.585" x2="133.359" y2="305.404" gradientUnits="userSpaceOnUse">
<stop stop-color="#138EFF"/>
<stop offset="1" stop-color="#00E0FF"/>
</linearGradient>
<linearGradient id="paint7_linear_108_2003" x1="147.905" y1="257.585" x2="133.359" y2="305.404" gradientUnits="userSpaceOnUse">
<stop stop-color="white"/>
<stop offset="1" stop-color="white" stop-opacity="0"/>
</linearGradient>
<linearGradient id="paint8_linear_108_2003" x1="249.905" y1="257.585" x2="235.359" y2="305.404" gradientUnits="userSpaceOnUse">
<stop stop-color="#138EFF"/>
<stop offset="1" stop-color="#00E0FF"/>
</linearGradient>
<linearGradient id="paint9_linear_108_2003" x1="249.905" y1="257.585" x2="235.359" y2="305.404" gradientUnits="userSpaceOnUse">
<stop stop-color="white"/>
<stop offset="1" stop-color="white" stop-opacity="0"/>
</linearGradient>
<linearGradient id="paint10_linear_108_2003" x1="198.905" y1="297.585" x2="184.359" y2="345.404" gradientUnits="userSpaceOnUse">
<stop stop-color="#138EFF"/>
<stop offset="1" stop-color="#00E0FF"/>
</linearGradient>
<linearGradient id="paint11_linear_108_2003" x1="198.905" y1="297.585" x2="184.359" y2="345.404" gradientUnits="userSpaceOnUse">
<stop stop-color="white"/>
<stop offset="1" stop-color="white" stop-opacity="0"/>
</linearGradient>
</defs>
</svg>
