<svg width="404" height="315" viewBox="0 0 404 315" fill="none" xmlns="http://www.w3.org/2000/svg">
<g filter="url(#filter0_bd_108_2488)">
<mask id="path-1-inside-1_108_2488" fill="white">
<path fill-rule="evenodd" clip-rule="evenodd" d="M343.563 151.351C343.683 151.352 343.804 151.353 343.924 151.353C361.087 151.353 375 137.44 375 120.277C375 103.115 361.087 89.2017 343.924 89.2017C343.804 89.2017 343.683 89.2024 343.563 89.2037V89.2017H335.535C335.825 87.075 335.975 84.9037 335.975 82.6975C335.975 56.3549 314.62 35 288.277 35C261.935 35 240.58 56.3549 240.58 82.6975C240.58 85.1831 240.77 87.6243 241.136 90.0074C238.868 89.4803 236.504 89.2017 234.076 89.2017C216.913 89.2017 203 103.115 203 120.277C203 137.44 216.913 151.353 234.076 151.353C234.197 151.353 234.318 151.352 234.439 151.351L234.437 151.353H343.563V151.351Z"/>
</mask>
<path fill-rule="evenodd" clip-rule="evenodd" d="M343.563 151.351C343.683 151.352 343.804 151.353 343.924 151.353C361.087 151.353 375 137.44 375 120.277C375 103.115 361.087 89.2017 343.924 89.2017C343.804 89.2017 343.683 89.2024 343.563 89.2037V89.2017H335.535C335.825 87.075 335.975 84.9037 335.975 82.6975C335.975 56.3549 314.62 35 288.277 35C261.935 35 240.58 56.3549 240.58 82.6975C240.58 85.1831 240.77 87.6243 241.136 90.0074C238.868 89.4803 236.504 89.2017 234.076 89.2017C216.913 89.2017 203 103.115 203 120.277C203 137.44 216.913 151.353 234.076 151.353C234.197 151.353 234.318 151.352 234.439 151.351L234.437 151.353H343.563V151.351Z" fill="url(#paint0_linear_108_2488)" shape-rendering="crispEdges"/>
<path d="M343.563 151.351L343.586 149.351C343.052 149.345 342.537 149.553 342.157 149.929C341.777 150.304 341.563 150.816 341.563 151.351H343.563ZM343.563 89.2037H341.563C341.563 89.7381 341.777 90.2503 342.157 90.626C342.537 91.0017 343.051 91.2097 343.586 91.2036L343.563 89.2037ZM343.563 89.2017H345.563C345.563 88.0971 344.668 87.2017 343.563 87.2017V89.2017ZM335.535 89.2017L333.553 88.9315C333.475 89.5037 333.649 90.0818 334.028 90.5169C334.408 90.952 334.957 91.2017 335.535 91.2017V89.2017ZM241.136 90.0074L240.684 91.9555C241.33 92.1057 242.009 91.9253 242.496 91.4741C242.983 91.0228 243.214 90.3594 243.113 89.7033L241.136 90.0074ZM234.439 151.351L236.008 152.59C236.486 151.985 236.573 151.16 236.233 150.468C235.893 149.777 235.186 149.342 234.416 149.351L234.439 151.351ZM234.437 151.353L232.867 150.114C232.392 150.715 232.303 151.535 232.637 152.225C232.971 152.915 233.67 153.353 234.437 153.353V151.353ZM343.563 151.353V153.353C344.668 153.353 345.563 152.458 345.563 151.353H343.563ZM343.54 153.351C343.668 153.352 343.796 153.353 343.924 153.353V149.353C343.811 149.353 343.699 149.352 343.586 149.351L343.54 153.351ZM343.924 153.353C362.192 153.353 377 138.544 377 120.277H373C373 136.335 359.982 149.353 343.924 149.353V153.353ZM377 120.277C377 102.01 362.192 87.2017 343.924 87.2017V91.2017C359.982 91.2017 373 104.219 373 120.277H377ZM343.924 87.2017C343.796 87.2017 343.668 87.2024 343.54 87.2039L343.586 91.2036C343.699 91.2023 343.811 91.2017 343.924 91.2017V87.2017ZM341.563 89.2017V89.2037H345.563V89.2017H341.563ZM335.535 91.2017H343.563V87.2017H335.535V91.2017ZM337.517 89.4719C337.819 87.2559 337.975 84.9944 337.975 82.6975H333.975C333.975 84.8131 333.831 86.8941 333.553 88.9315L337.517 89.4719ZM337.975 82.6975C337.975 55.2503 315.724 33 288.277 33V37C313.515 37 333.975 57.4595 333.975 82.6975H337.975ZM288.277 33C260.83 33 238.58 55.2503 238.58 82.6975H242.58C242.58 57.4595 263.039 37 288.277 37V33ZM238.58 82.6975C238.58 85.2852 238.778 87.8281 239.16 90.3114L243.113 89.7033C242.762 87.4205 242.58 85.081 242.58 82.6975H238.58ZM241.589 88.0592C239.173 87.498 236.658 87.2017 234.076 87.2017V91.2017C236.351 91.2017 238.563 91.4627 240.684 91.9555L241.589 88.0592ZM234.076 87.2017C215.808 87.2017 201 102.01 201 120.277H205C205 104.219 218.018 91.2017 234.076 91.2017V87.2017ZM201 120.277C201 138.544 215.808 153.353 234.076 153.353V149.353C218.018 149.353 205 136.335 205 120.277H201ZM234.076 153.353C234.204 153.353 234.333 153.352 234.461 153.351L234.416 149.351C234.303 149.352 234.189 149.353 234.076 149.353V153.353ZM236.007 152.592L236.008 152.59L232.869 150.112L232.867 150.114L236.007 152.592ZM343.563 149.353H234.437V153.353H343.563V149.353ZM341.563 151.351V151.353H345.563V151.351H341.563Z" fill="url(#paint1_linear_108_2488)" mask="url(#path-1-inside-1_108_2488)"/>
</g>
<g filter="url(#filter1_bd_108_2488)">
<mask id="path-3-inside-2_108_2488" fill="white">
<path fill-rule="evenodd" clip-rule="evenodd" d="M265.5 195.997C265.666 195.999 265.833 196 266 196C289.748 196 309 176.748 309 153C309 129.252 289.748 110 266 110C265.833 110 265.666 110.001 265.5 110.003V110H254.391C254.793 107.057 255 104.053 255 101C255 64.5492 225.451 35 189 35C152.549 35 123 64.5492 123 101C123 104.439 123.263 107.817 123.77 111.115C120.631 110.386 117.361 110 114 110C90.2518 110 71 129.252 71 153C71 176.748 90.2518 196 114 196C114.168 196 114.335 195.999 114.502 195.997L114.5 196H265.5V195.997Z"/>
</mask>
<path fill-rule="evenodd" clip-rule="evenodd" d="M265.5 195.997C265.666 195.999 265.833 196 266 196C289.748 196 309 176.748 309 153C309 129.252 289.748 110 266 110C265.833 110 265.666 110.001 265.5 110.003V110H254.391C254.793 107.057 255 104.053 255 101C255 64.5492 225.451 35 189 35C152.549 35 123 64.5492 123 101C123 104.439 123.263 107.817 123.77 111.115C120.631 110.386 117.361 110 114 110C90.2518 110 71 129.252 71 153C71 176.748 90.2518 196 114 196C114.168 196 114.335 195.999 114.502 195.997L114.5 196H265.5V195.997Z" fill="url(#paint2_linear_108_2488)" shape-rendering="crispEdges"/>
<path d="M265.5 195.997L265.523 193.997C264.988 193.991 264.474 194.199 264.094 194.575C263.714 194.951 263.5 195.463 263.5 195.997H265.5ZM265.5 110.003H263.5C263.5 110.537 263.714 111.049 264.094 111.425C264.474 111.801 264.988 112.009 265.523 112.003L265.5 110.003ZM265.5 110H267.5C267.5 108.895 266.605 108 265.5 108V110ZM254.391 110L252.41 109.73C252.332 110.302 252.505 110.88 252.885 111.315C253.265 111.75 253.814 112 254.391 112V110ZM123.77 111.115L123.318 113.063C123.964 113.213 124.643 113.033 125.13 112.582C125.617 112.13 125.848 111.467 125.747 110.811L123.77 111.115ZM114.502 195.997L116.072 197.237C116.549 196.632 116.637 195.807 116.297 195.115C115.957 194.423 115.25 193.988 114.479 193.997L114.502 195.997ZM114.5 196L112.931 194.76C112.455 195.362 112.366 196.182 112.7 196.872C113.034 197.562 113.733 198 114.5 198V196ZM265.5 196V198C266.605 198 267.5 197.105 267.5 196H265.5ZM265.477 197.997C265.651 197.999 265.825 198 266 198V194C265.841 194 265.682 193.999 265.523 193.997L265.477 197.997ZM266 198C290.853 198 311 177.853 311 153H307C307 175.644 288.644 194 266 194V198ZM311 153C311 128.147 290.853 108 266 108V112C288.644 112 307 130.356 307 153H311ZM266 108C265.826 108 265.651 108.001 265.477 108.003L265.523 112.003C265.682 112.001 265.841 112 266 112V108ZM263.5 110V110.003H267.5V110H263.5ZM254.391 112H265.5V108H254.391V112ZM256.373 110.27C256.787 107.238 257 104.143 257 101H253C253 103.962 252.799 106.876 252.41 109.73L256.373 110.27ZM257 101C257 63.4446 226.555 33 189 33V37C224.346 37 253 65.6538 253 101H257ZM189 33C151.445 33 121 63.4446 121 101H125C125 65.6538 153.654 37 189 37V33ZM121 101C121 104.542 121.271 108.021 121.793 111.419L125.747 110.811C125.255 107.614 125 104.337 125 101H121ZM124.223 109.167C120.937 108.403 117.514 108 114 108V112C117.207 112 120.326 112.368 123.318 113.063L124.223 109.167ZM114 108C89.1472 108 69 128.147 69 153H73C73 130.356 91.3563 112 114 112V108ZM69 153C69 177.853 89.1472 198 114 198V194C91.3563 194 73 175.644 73 153H69ZM114 198C114.175 198 114.35 197.999 114.525 197.997L114.479 193.997C114.32 193.999 114.16 194 114 194V198ZM116.069 197.24L116.072 197.237L112.933 194.757L112.931 194.76L116.069 197.24ZM265.5 194H114.5V198H265.5V194ZM263.5 195.997V196H267.5V195.997H263.5Z" fill="url(#paint3_linear_108_2488)" mask="url(#path-3-inside-2_108_2488)"/>
</g>
<g filter="url(#filter2_bdd_108_2488)">
<path d="M148.181 179.486L149.354 195.919C149.963 204.447 141.831 210.936 133.65 208.448C125.47 205.959 122.328 196.041 127.583 189.296L137.708 176.3C141.01 172.062 147.798 174.127 148.181 179.486Z" fill="url(#paint4_linear_108_2488)" stroke="url(#paint5_linear_108_2488)" stroke-width="2"/>
<path d="M250.181 179.486L251.354 195.919C251.963 204.447 243.831 210.936 235.65 208.448C227.47 205.959 224.328 196.041 229.583 189.296L239.708 176.3C243.01 172.062 249.798 174.127 250.181 179.486Z" fill="url(#paint6_linear_108_2488)" stroke="url(#paint7_linear_108_2488)" stroke-width="2"/>
</g>
<g filter="url(#filter3_bdd_108_2488)">
<path d="M199.181 219.486L200.354 235.919C200.963 244.447 192.831 250.936 184.65 248.448C176.47 245.959 173.328 236.041 178.583 229.296L188.708 216.3C192.01 212.062 198.798 214.127 199.181 219.486Z" fill="url(#paint8_linear_108_2488)" stroke="url(#paint9_linear_108_2488)" stroke-width="2"/>
</g>
<path d="M243.541 232V264.03" stroke="#42A0F0" stroke-width="3" stroke-linecap="round"/>
<path d="M243.47 239.829L249.549 234.135" stroke="#42A0F0" stroke-width="3" stroke-linecap="round"/>
<path d="M243.47 239.829L237.195 234.135" stroke="#42A0F0" stroke-width="3" stroke-linecap="round"/>
<path d="M243.47 256.912L249.549 262.606" stroke="#42A0F0" stroke-width="3" stroke-linecap="round"/>
<path d="M243.47 256.912L237.195 262.606" stroke="#42A0F0" stroke-width="3" stroke-linecap="round"/>
<path d="M258.742 240.14L228.173 256.155" stroke="#42A0F0" stroke-width="3" stroke-linecap="round"/>
<path d="M251.234 243.999L259.708 245.929" stroke="#42A0F0" stroke-width="3" stroke-linecap="round"/>
<path d="M251.234 243.999L253.531 236.221" stroke="#42A0F0" stroke-width="3" stroke-linecap="round"/>
<path d="M234.931 252.54L232.536 260.165" stroke="#42A0F0" stroke-width="3" stroke-linecap="round"/>
<path d="M234.931 252.54L226.359 250.456" stroke="#42A0F0" stroke-width="3" stroke-linecap="round"/>
<path d="M258.573 256.155L228.004 240.14" stroke="#42A0F0" stroke-width="3" stroke-linecap="round"/>
<path d="M251.136 252.184L253.531 259.809" stroke="#42A0F0" stroke-width="3" stroke-linecap="round"/>
<path d="M251.136 252.184L259.708 250.1" stroke="#42A0F0" stroke-width="3" stroke-linecap="round"/>
<path d="M234.833 243.643L226.359 245.573" stroke="#42A0F0" stroke-width="3" stroke-linecap="round"/>
<path d="M234.833 243.643L232.536 235.865" stroke="#42A0F0" stroke-width="3" stroke-linecap="round"/>
<path d="M189.541 171V203.03" stroke="#42A0F0" stroke-width="3" stroke-linecap="round"/>
<path d="M189.47 178.829L195.549 173.135" stroke="#42A0F0" stroke-width="3" stroke-linecap="round"/>
<path d="M189.47 178.829L183.195 173.135" stroke="#42A0F0" stroke-width="3" stroke-linecap="round"/>
<path d="M189.47 195.912L195.549 201.606" stroke="#42A0F0" stroke-width="3" stroke-linecap="round"/>
<path d="M189.47 195.912L183.195 201.606" stroke="#42A0F0" stroke-width="3" stroke-linecap="round"/>
<path d="M204.742 179.14L174.173 195.155" stroke="#42A0F0" stroke-width="3" stroke-linecap="round"/>
<path d="M197.234 182.999L205.708 184.929" stroke="#42A0F0" stroke-width="3" stroke-linecap="round"/>
<path d="M197.234 182.999L199.531 175.221" stroke="#42A0F0" stroke-width="3" stroke-linecap="round"/>
<path d="M180.931 191.54L178.536 199.165" stroke="#42A0F0" stroke-width="3" stroke-linecap="round"/>
<path d="M180.931 191.54L172.359 189.456" stroke="#42A0F0" stroke-width="3" stroke-linecap="round"/>
<path d="M204.573 195.155L174.004 179.14" stroke="#42A0F0" stroke-width="3" stroke-linecap="round"/>
<path d="M197.136 191.184L199.531 198.809" stroke="#42A0F0" stroke-width="3" stroke-linecap="round"/>
<path d="M197.136 191.184L205.708 189.1" stroke="#42A0F0" stroke-width="3" stroke-linecap="round"/>
<path d="M180.833 182.643L172.359 184.573" stroke="#42A0F0" stroke-width="3" stroke-linecap="round"/>
<path d="M180.833 182.643L178.536 174.865" stroke="#42A0F0" stroke-width="3" stroke-linecap="round"/>
<path d="M128.542 228V260.03" stroke="#42A0F0" stroke-width="3" stroke-linecap="round"/>
<path d="M128.47 235.829L134.55 230.135" stroke="#42A0F0" stroke-width="3" stroke-linecap="round"/>
<path d="M128.47 235.829L122.195 230.135" stroke="#42A0F0" stroke-width="3" stroke-linecap="round"/>
<path d="M128.47 252.912L134.55 258.606" stroke="#42A0F0" stroke-width="3" stroke-linecap="round"/>
<path d="M128.47 252.912L122.195 258.606" stroke="#42A0F0" stroke-width="3" stroke-linecap="round"/>
<path d="M143.742 236.14L113.173 252.155" stroke="#42A0F0" stroke-width="3" stroke-linecap="round"/>
<path d="M136.234 239.999L144.708 241.929" stroke="#42A0F0" stroke-width="3" stroke-linecap="round"/>
<path d="M136.234 239.999L138.531 232.221" stroke="#42A0F0" stroke-width="3" stroke-linecap="round"/>
<path d="M119.931 248.54L117.536 256.165" stroke="#42A0F0" stroke-width="3" stroke-linecap="round"/>
<path d="M119.931 248.54L111.359 246.456" stroke="#42A0F0" stroke-width="3" stroke-linecap="round"/>
<path d="M143.573 252.155L113.004 236.14" stroke="#42A0F0" stroke-width="3" stroke-linecap="round"/>
<path d="M136.136 248.184L138.531 255.809" stroke="#42A0F0" stroke-width="3" stroke-linecap="round"/>
<path d="M136.136 248.184L144.708 246.1" stroke="#42A0F0" stroke-width="3" stroke-linecap="round"/>
<path d="M119.833 239.643L111.359 241.573" stroke="#42A0F0" stroke-width="3" stroke-linecap="round"/>
<path d="M119.833 239.643L117.536 231.865" stroke="#42A0F0" stroke-width="3" stroke-linecap="round"/>
<path d="M298.541 175V207.03" stroke="#42A0F0" stroke-width="3" stroke-linecap="round"/>
<path d="M298.47 182.829L304.549 177.135" stroke="#42A0F0" stroke-width="3" stroke-linecap="round"/>
<path d="M298.47 182.829L292.195 177.135" stroke="#42A0F0" stroke-width="3" stroke-linecap="round"/>
<path d="M298.47 199.912L304.549 205.606" stroke="#42A0F0" stroke-width="3" stroke-linecap="round"/>
<path d="M298.47 199.912L292.195 205.606" stroke="#42A0F0" stroke-width="3" stroke-linecap="round"/>
<path d="M313.742 183.14L283.173 199.155" stroke="#42A0F0" stroke-width="3" stroke-linecap="round"/>
<path d="M306.234 186.999L314.708 188.929" stroke="#42A0F0" stroke-width="3" stroke-linecap="round"/>
<path d="M306.234 186.999L308.531 179.221" stroke="#42A0F0" stroke-width="3" stroke-linecap="round"/>
<path d="M289.931 195.54L287.536 203.165" stroke="#42A0F0" stroke-width="3" stroke-linecap="round"/>
<path d="M289.931 195.54L281.359 193.456" stroke="#42A0F0" stroke-width="3" stroke-linecap="round"/>
<path d="M313.573 199.155L283.004 183.14" stroke="#42A0F0" stroke-width="3" stroke-linecap="round"/>
<path d="M306.136 195.184L308.531 202.809" stroke="#42A0F0" stroke-width="3" stroke-linecap="round"/>
<path d="M306.136 195.184L314.708 193.1" stroke="#42A0F0" stroke-width="3" stroke-linecap="round"/>
<path d="M289.833 186.643L281.359 188.573" stroke="#42A0F0" stroke-width="3" stroke-linecap="round"/>
<path d="M289.833 186.643L287.536 178.865" stroke="#42A0F0" stroke-width="3" stroke-linecap="round"/>
<defs>
<filter id="filter0_bd_108_2488" x="132" y="0" width="272" height="216.353" filterUnits="userSpaceOnUse" color-interpolation-filters="sRGB">
<feFlood flood-opacity="0" result="BackgroundImageFix"/>
<feGaussianBlur in="BackgroundImageFix" stdDeviation="7"/>
<feComposite in2="SourceAlpha" operator="in" result="effect1_backgroundBlur_108_2488"/>
<feColorMatrix in="SourceAlpha" type="matrix" values="0 0 0 0 0 0 0 0 0 0 0 0 0 0 0 0 0 0 127 0" result="hardAlpha"/>
<feOffset dx="-21" dy="15"/>
<feGaussianBlur stdDeviation="25"/>
<feComposite in2="hardAlpha" operator="out"/>
<feColorMatrix type="matrix" values="0 0 0 0 0.113438 0 0 0 0 0.148981 0 0 0 0 0.275 0 0 0 0.25 0"/>
<feBlend mode="normal" in2="effect1_backgroundBlur_108_2488" result="effect2_dropShadow_108_2488"/>
<feBlend mode="normal" in="SourceGraphic" in2="effect2_dropShadow_108_2488" result="shape"/>
</filter>
<filter id="filter1_bd_108_2488" x="0" y="0" width="338" height="261" filterUnits="userSpaceOnUse" color-interpolation-filters="sRGB">
<feFlood flood-opacity="0" result="BackgroundImageFix"/>
<feGaussianBlur in="BackgroundImageFix" stdDeviation="7"/>
<feComposite in2="SourceAlpha" operator="in" result="effect1_backgroundBlur_108_2488"/>
<feColorMatrix in="SourceAlpha" type="matrix" values="0 0 0 0 0 0 0 0 0 0 0 0 0 0 0 0 0 0 127 0" result="hardAlpha"/>
<feOffset dx="-21" dy="15"/>
<feGaussianBlur stdDeviation="25"/>
<feComposite in2="hardAlpha" operator="out"/>
<feColorMatrix type="matrix" values="0 0 0 0 0.113725 0 0 0 0 0.14902 0 0 0 0 0.27451 0 0 0 0.25 0"/>
<feBlend mode="normal" in2="effect1_backgroundBlur_108_2488" result="effect2_dropShadow_108_2488"/>
<feBlend mode="normal" in="SourceGraphic" in2="effect2_dropShadow_108_2488" result="shape"/>
</filter>
<filter id="filter2_bdd_108_2488" x="53.0019" y="125.031" width="240.385" height="149.955" filterUnits="userSpaceOnUse" color-interpolation-filters="sRGB">
<feFlood flood-opacity="0" result="BackgroundImageFix"/>
<feGaussianBlur in="BackgroundImageFix" stdDeviation="7"/>
<feComposite in2="SourceAlpha" operator="in" result="effect1_backgroundBlur_108_2488"/>
<feColorMatrix in="SourceAlpha" type="matrix" values="0 0 0 0 0 0 0 0 0 0 0 0 0 0 0 0 0 0 127 0" result="hardAlpha"/>
<feOffset dx="-21" dy="15"/>
<feGaussianBlur stdDeviation="25"/>
<feComposite in2="hardAlpha" operator="out"/>
<feColorMatrix type="matrix" values="0 0 0 0 0.113438 0 0 0 0 0.148981 0 0 0 0 0.275 0 0 0 0.25 0"/>
<feBlend mode="normal" in2="effect1_backgroundBlur_108_2488" result="effect2_dropShadow_108_2488"/>
<feColorMatrix in="SourceAlpha" type="matrix" values="0 0 0 0 0 0 0 0 0 0 0 0 0 0 0 0 0 0 127 0" result="hardAlpha"/>
<feOffset dy="-7"/>
<feGaussianBlur stdDeviation="20.5"/>
<feComposite in2="hardAlpha" operator="out"/>
<feColorMatrix type="matrix" values="0 0 0 0 0.1375 0 0 0 0 0.74125 0 0 0 0 1 0 0 0 0.3 0"/>
<feBlend mode="normal" in2="effect2_dropShadow_108_2488" result="effect3_dropShadow_108_2488"/>
<feBlend mode="normal" in="SourceGraphic" in2="effect3_dropShadow_108_2488" result="shape"/>
</filter>
<filter id="filter3_bdd_108_2488" x="104.002" y="165.031" width="138.385" height="149.955" filterUnits="userSpaceOnUse" color-interpolation-filters="sRGB">
<feFlood flood-opacity="0" result="BackgroundImageFix"/>
<feGaussianBlur in="BackgroundImageFix" stdDeviation="7"/>
<feComposite in2="SourceAlpha" operator="in" result="effect1_backgroundBlur_108_2488"/>
<feColorMatrix in="SourceAlpha" type="matrix" values="0 0 0 0 0 0 0 0 0 0 0 0 0 0 0 0 0 0 127 0" result="hardAlpha"/>
<feOffset dx="-21" dy="15"/>
<feGaussianBlur stdDeviation="25"/>
<feComposite in2="hardAlpha" operator="out"/>
<feColorMatrix type="matrix" values="0 0 0 0 0.113438 0 0 0 0 0.148981 0 0 0 0 0.275 0 0 0 0.25 0"/>
<feBlend mode="normal" in2="effect1_backgroundBlur_108_2488" result="effect2_dropShadow_108_2488"/>
<feColorMatrix in="SourceAlpha" type="matrix" values="0 0 0 0 0 0 0 0 0 0 0 0 0 0 0 0 0 0 127 0" result="hardAlpha"/>
<feOffset dy="-7"/>
<feGaussianBlur stdDeviation="20.5"/>
<feComposite in2="hardAlpha" operator="out"/>
<feColorMatrix type="matrix" values="0 0 0 0 0.1375 0 0 0 0 0.74125 0 0 0 0 1 0 0 0 0.3 0"/>
<feBlend mode="normal" in2="effect2_dropShadow_108_2488" result="effect3_dropShadow_108_2488"/>
<feBlend mode="normal" in="SourceGraphic" in2="effect3_dropShadow_108_2488" result="shape"/>
</filter>
<linearGradient id="paint0_linear_108_2488" x1="297" y1="38.5" x2="297" y2="164.5" gradientUnits="userSpaceOnUse">
<stop stop-color="#494949"/>
<stop offset="1" stop-color="#DADADA" stop-opacity="0"/>
</linearGradient>
<linearGradient id="paint1_linear_108_2488" x1="289" y1="35" x2="289" y2="151.353" gradientUnits="userSpaceOnUse">
<stop stop-color="white"/>
<stop offset="1" stop-color="white" stop-opacity="0"/>
</linearGradient>
<linearGradient id="paint2_linear_108_2488" x1="190" y1="-16.5" x2="190" y2="218.5" gradientUnits="userSpaceOnUse">
<stop stop-color="white"/>
<stop offset="1" stop-color="white" stop-opacity="0"/>
</linearGradient>
<linearGradient id="paint3_linear_108_2488" x1="190" y1="35" x2="190" y2="196" gradientUnits="userSpaceOnUse">
<stop stop-color="white"/>
<stop offset="1" stop-color="white" stop-opacity="0"/>
</linearGradient>
<linearGradient id="paint4_linear_108_2488" x1="147.905" y1="161.585" x2="133.359" y2="209.404" gradientUnits="userSpaceOnUse">
<stop stop-color="#138EFF"/>
<stop offset="1" stop-color="#00E0FF"/>
</linearGradient>
<linearGradient id="paint5_linear_108_2488" x1="147.905" y1="161.585" x2="133.359" y2="209.404" gradientUnits="userSpaceOnUse">
<stop stop-color="white"/>
<stop offset="1" stop-color="white" stop-opacity="0"/>
</linearGradient>
<linearGradient id="paint6_linear_108_2488" x1="249.905" y1="161.585" x2="235.359" y2="209.404" gradientUnits="userSpaceOnUse">
<stop stop-color="#138EFF"/>
<stop offset="1" stop-color="#00E0FF"/>
</linearGradient>
<linearGradient id="paint7_linear_108_2488" x1="249.905" y1="161.585" x2="235.359" y2="209.404" gradientUnits="userSpaceOnUse">
<stop stop-color="white"/>
<stop offset="1" stop-color="white" stop-opacity="0"/>
</linearGradient>
<linearGradient id="paint8_linear_108_2488" x1="198.905" y1="201.585" x2="184.359" y2="249.404" gradientUnits="userSpaceOnUse">
<stop stop-color="#138EFF"/>
<stop offset="1" stop-color="#00E0FF"/>
</linearGradient>
<linearGradient id="paint9_linear_108_2488" x1="198.905" y1="201.585" x2="184.359" y2="249.404" gradientUnits="userSpaceOnUse">
<stop stop-color="white"/>
<stop offset="1" stop-color="white" stop-opacity="0"/>
</linearGradient>
</defs>
</svg>
