<svg width="251" height="261" viewBox="0 0 251 261" fill="none" xmlns="http://www.w3.org/2000/svg">
<path d="M125.89 40.2212L125.89 236.324" stroke="#42A0F0" stroke-width="10" stroke-linecap="round"/>
<path d="M125.499 88.1584L159.272 53.2954" stroke="#42A0F0" stroke-width="10" stroke-linecap="round"/>
<path d="M125.498 88.1584L90.6355 53.2954" stroke="#42A0F0" stroke-width="10" stroke-linecap="round"/>
<path d="M125.499 192.746L159.272 227.609" stroke="#42A0F0" stroke-width="10" stroke-linecap="round"/>
<path d="M125.498 192.746L90.6355 227.609" stroke="#42A0F0" stroke-width="10" stroke-linecap="round"/>
<path d="M210.337 90.0581L40.5067 188.11" stroke="#42A0F0" stroke-width="10" stroke-linecap="round"/>
<path d="M168.626 113.687L215.705 125.504" stroke="#42A0F0" stroke-width="10" stroke-linecap="round"/>
<path d="M168.626 113.687L181.387 66.0635" stroke="#42A0F0" stroke-width="10" stroke-linecap="round"/>
<path d="M78.0503 165.981L64.7446 212.661" stroke="#42A0F0" stroke-width="10" stroke-linecap="round"/>
<path d="M78.0504 165.981L30.4267 153.221" stroke="#42A0F0" stroke-width="10" stroke-linecap="round"/>
<path d="M209.401 188.11L39.5709 90.0584" stroke="#42A0F0" stroke-width="10" stroke-linecap="round"/>
<path d="M168.082 163.802L181.388 210.482" stroke="#42A0F0" stroke-width="10" stroke-linecap="round"/>
<path d="M168.082 163.802L215.706 151.041" stroke="#42A0F0" stroke-width="10" stroke-linecap="round"/>
<path d="M77.5066 111.508L30.4279 123.325" stroke="#42A0F0" stroke-width="10" stroke-linecap="round"/>
<path d="M77.5065 111.508L64.7457 63.8839" stroke="#42A0F0" stroke-width="10" stroke-linecap="round"/>
<path d="M53.8838 1V14.394" stroke="#42A0F0" stroke-linecap="round"/>
<path d="M53.5938 4.2682L55.7727 3.1792" stroke="#42A0F0" stroke-linecap="round"/>
<path d="M53.5937 4.2682L50.3257 3.1792" stroke="#42A0F0" stroke-linecap="round"/>
<path d="M53.5938 11.895L55.7727 12.984" stroke="#42A0F0" stroke-linecap="round"/>
<path d="M53.5937 11.895L50.3257 12.984" stroke="#42A0F0" stroke-linecap="round"/>
<path d="M59.6519 4.4043L48.0523 11.1013" stroke="#42A0F0" stroke-linecap="round"/>
<path d="M56.8027 6.01765L60.0182 6.82507" stroke="#42A0F0" stroke-linecap="round"/>
<path d="M56.8028 6.01764L57.6743 2.76514" stroke="#42A0F0" stroke-linecap="round"/>
<path d="M50.616 9.58984L49.7075 12.7783" stroke="#42A0F0" stroke-linecap="round"/>
<path d="M50.616 9.58984L47.3635 8.71833" stroke="#42A0F0" stroke-linecap="round"/>
<path d="M59.5876 11.1016L47.9881 4.40456" stroke="#42A0F0" stroke-linecap="round"/>
<path d="M56.7659 9.44134L57.6744 12.6298" stroke="#42A0F0" stroke-linecap="round"/>
<path d="M56.7658 9.44133L60.0183 8.56982" stroke="#42A0F0" stroke-linecap="round"/>
<path d="M50.5791 5.86914L47.3636 6.67656" stroke="#42A0F0" stroke-linecap="round"/>
<path d="M50.579 5.86914L49.7075 2.61663" stroke="#42A0F0" stroke-linecap="round"/>
<path d="M238.67 30.6548V53.6148" stroke="#42A0F0" stroke-linecap="round"/>
<path d="M237.713 35.8629L242.071 34.7739" stroke="#42A0F0" stroke-linecap="round"/>
<path d="M237.713 35.8629L232.266 34.7739" stroke="#42A0F0" stroke-linecap="round"/>
<path d="M237.713 48.937L242.071 51.116" stroke="#42A0F0" stroke-linecap="round"/>
<path d="M237.713 48.937L232.266 51.116" stroke="#42A0F0" stroke-linecap="round"/>
<path d="M248.557 36.4897L228.673 47.9697" stroke="#42A0F0" stroke-linecap="round"/>
<path d="M243.673 39.2563L249.185 40.6396" stroke="#42A0F0" stroke-linecap="round"/>
<path d="M243.673 39.2563L245.167 33.6802" stroke="#42A0F0" stroke-linecap="round"/>
<path d="M233.068 45.3789L231.51 50.8442" stroke="#42A0F0" stroke-linecap="round"/>
<path d="M233.068 45.3789L227.492 43.8847" stroke="#42A0F0" stroke-linecap="round"/>
<path d="M248.447 47.9712L228.563 36.4912" stroke="#42A0F0" stroke-linecap="round"/>
<path d="M243.609 45.1245L245.167 50.5898" stroke="#42A0F0" stroke-linecap="round"/>
<path d="M243.609 45.1245L249.185 43.6304" stroke="#42A0F0" stroke-linecap="round"/>
<path d="M233.004 39.002L227.492 40.3852" stroke="#42A0F0" stroke-linecap="round"/>
<path d="M233.004 39.0019L231.51 33.4258" stroke="#42A0F0" stroke-linecap="round"/>
<path d="M224.527 199.522V218.372" stroke="#42A0F0" stroke-linecap="round"/>
<path d="M223.55 203.64L226.818 202.551" stroke="#42A0F0" stroke-linecap="round"/>
<path d="M223.55 203.64L219.192 202.551" stroke="#42A0F0" stroke-linecap="round"/>
<path d="M223.55 214.535L226.818 216.714" stroke="#42A0F0" stroke-linecap="round"/>
<path d="M223.55 214.535L219.192 216.714" stroke="#42A0F0" stroke-linecap="round"/>
<path d="M232.644 204.313L216.319 213.738" stroke="#42A0F0" stroke-linecap="round"/>
<path d="M228.634 206.584L233.159 207.719" stroke="#42A0F0" stroke-linecap="round"/>
<path d="M228.634 206.584L229.861 202.006" stroke="#42A0F0" stroke-linecap="round"/>
<path d="M219.928 211.61L218.649 216.097" stroke="#42A0F0" stroke-linecap="round"/>
<path d="M219.928 211.611L215.351 210.384" stroke="#42A0F0" stroke-linecap="round"/>
<path d="M232.554 213.738L216.229 204.313" stroke="#42A0F0" stroke-linecap="round"/>
<path d="M228.582 211.401L229.861 215.887" stroke="#42A0F0" stroke-linecap="round"/>
<path d="M228.582 211.401L233.16 210.174" stroke="#42A0F0" stroke-linecap="round"/>
<path d="M219.876 206.374L215.351 207.51" stroke="#42A0F0" stroke-linecap="round"/>
<path d="M219.876 206.374L218.65 201.797" stroke="#42A0F0" stroke-linecap="round"/>
<path d="M69.7327 243.1V259.705" stroke="#42A0F0" stroke-linecap="round"/>
<path d="M68.8457 247.218L72.1137 246.129" stroke="#42A0F0" stroke-linecap="round"/>
<path d="M68.8456 247.218L65.5776 246.129" stroke="#42A0F0" stroke-linecap="round"/>
<path d="M68.8457 255.934L72.1137 258.113" stroke="#42A0F0" stroke-linecap="round"/>
<path d="M68.8456 255.934L65.5776 258.113" stroke="#42A0F0" stroke-linecap="round"/>
<path d="M76.8831 247.32L62.5027 255.622" stroke="#42A0F0" stroke-linecap="round"/>
<path d="M73.3515 249.321L77.338 250.322" stroke="#42A0F0" stroke-linecap="round"/>
<path d="M73.3514 249.321L74.4319 245.289" stroke="#42A0F0" stroke-linecap="round"/>
<path d="M65.6819 253.749L64.5554 257.702" stroke="#42A0F0" stroke-linecap="round"/>
<path d="M65.6818 253.749L61.6493 252.668" stroke="#42A0F0" stroke-linecap="round"/>
<path d="M76.8042 255.622L62.4238 247.32" stroke="#42A0F0" stroke-linecap="round"/>
<path d="M73.3053 253.564L74.4318 257.517" stroke="#42A0F0" stroke-linecap="round"/>
<path d="M73.3054 253.564L77.3379 252.483" stroke="#42A0F0" stroke-linecap="round"/>
<path d="M65.6357 249.136L61.6492 250.137" stroke="#42A0F0" stroke-linecap="round"/>
<path d="M65.6358 249.136L64.5553 245.104" stroke="#42A0F0" stroke-linecap="round"/>
<path d="M7.07544 173.374L7.07544 186.842" stroke="#42A0F0" stroke-linecap="round"/>
<path d="M6.74658 176.403L8.92558 175.314" stroke="#42A0F0" stroke-linecap="round"/>
<path d="M6.74652 176.403L3.47852 175.314" stroke="#42A0F0" stroke-linecap="round"/>
<path d="M6.74658 184.029L8.92558 185.118" stroke="#42A0F0" stroke-linecap="round"/>
<path d="M6.74652 184.029L3.47852 185.118" stroke="#42A0F0" stroke-linecap="round"/>
<path d="M12.874 176.797L1.21039 183.531" stroke="#42A0F0" stroke-linecap="round"/>
<path d="M10.0097 178.42L13.2425 179.231" stroke="#42A0F0" stroke-linecap="round"/>
<path d="M10.0097 178.42L10.886 175.149" stroke="#42A0F0" stroke-linecap="round"/>
<path d="M3.78906 182.011L2.8753 185.216" stroke="#42A0F0" stroke-linecap="round"/>
<path d="M3.78904 182.011L0.518776 181.135" stroke="#42A0F0" stroke-linecap="round"/>
<path d="M12.8103 183.531L1.14667 176.797" stroke="#42A0F0" stroke-linecap="round"/>
<path d="M9.97288 181.861L10.8866 185.066" stroke="#42A0F0" stroke-linecap="round"/>
<path d="M9.9729 181.861L13.2432 180.985" stroke="#42A0F0" stroke-linecap="round"/>
<path d="M3.7522 178.27L0.519432 179.081" stroke="#42A0F0" stroke-linecap="round"/>
<path d="M3.75222 178.27L2.87595 175" stroke="#42A0F0" stroke-linecap="round"/>
</svg>
